<svg xmlns="http://www.w3.org/2000/svg" width="128" height="128" viewBox="0 0 128 128">
  <title>APPLE</title>
  <g>
    <path d="M64,35.147A28.841,28.841,0,0,1,92.84,6.306,28.841,28.841,0,0,1,64,35.147Z" fill="#2eb74e"/>
    <path d="M57.2,41.278h0A25,25,0,0,0,26.022,44.8h0a33.316,33.316,0,0,0-9.637,23.436h0a43.962,43.962,0,0,0,4.712,19.8l11.8,23.381a18.706,18.706,0,0,0,16.7,10.28h0a18.708,18.708,0,0,0,12.64-4.917h0a2.61,2.61,0,0,1,3.528,0h0a18.708,18.708,0,0,0,12.64,4.917h0a18.706,18.706,0,0,0,16.7-10.28l11.8-23.381a43.962,43.962,0,0,0,4.712-19.8h0A33.316,33.316,0,0,0,101.978,44.8h0A25,25,0,0,0,70.8,41.278h0A12.689,12.689,0,0,1,57.2,41.278Z" fill="#ea4a42"/>
    <g>
      <path d="M102.61,96.539a1.749,1.749,0,0,0-2.351.774l-2.029,4.022a1.75,1.75,0,1,0,3.125,1.576l2.029-4.021A1.751,1.751,0,0,0,102.61,96.539Z" fill="#441d03"/>
      <path d="M96.865,107.925a1.75,1.75,0,0,0-2.35.773l-.973,1.928a16.957,16.957,0,0,1-26.595,4.861,4.337,4.337,0,0,0-5.894,0,16.957,16.957,0,0,1-26.595-4.861L22.66,87.245a42.415,42.415,0,0,1-4.525-19.013,31.373,31.373,0,0,1,9.131-22.2,23.124,23.124,0,0,1,12.369-6.521,1.75,1.75,0,1,0-.625-3.443,26.619,26.619,0,0,0-14.232,7.5A34.86,34.86,0,0,0,14.635,68.232a45.917,45.917,0,0,0,4.9,20.589l11.8,23.381a20.456,20.456,0,0,0,32.085,5.865.857.857,0,0,1,1.164,0A20.456,20.456,0,0,0,96.666,112.2l.973-1.927A1.75,1.75,0,0,0,96.865,107.925Z" fill="#441d03"/>
      <path d="M103.222,43.564A26.911,26.911,0,0,0,69.865,39.8a10.861,10.861,0,0,1-4.115,1.544v-4.5A30.626,30.626,0,0,0,94.59,6.307a1.749,1.749,0,0,0-1.75-1.75A30.639,30.639,0,0,0,63.951,25.105,29.147,29.147,0,0,0,53.168,11.177a1.75,1.75,0,0,0-1.99,2.879A25.659,25.659,0,0,1,62.25,35.161v6.184A10.861,10.861,0,0,1,58.135,39.8a26.589,26.589,0,0,0-10.077-3.829,1.75,1.75,0,1,0-.557,3.455,23.113,23.113,0,0,1,8.758,3.329,14.43,14.43,0,0,0,7.586,2.234c.052,0,.1.016.155.016s.1-.011.155-.016a14.421,14.421,0,0,0,7.586-2.234,23.389,23.389,0,0,1,28.993,3.271,31.373,31.373,0,0,1,9.131,22.205,42.415,42.415,0,0,1-4.525,19.013l-1.175,2.329a1.75,1.75,0,1,0,3.125,1.576l1.175-2.329a45.93,45.93,0,0,0,4.9-20.589A34.86,34.86,0,0,0,103.222,43.564ZM91.031,8.116A27.133,27.133,0,0,1,65.81,33.337,27.133,27.133,0,0,1,91.031,8.116Z" fill="#441d03"/>
      <path d="M34.715,50.938a1.752,1.752,0,0,0-2.474.013A24.815,24.815,0,0,0,29.1,54.833a1.75,1.75,0,1,0,2.93,1.914,21.381,21.381,0,0,1,2.7-3.333A1.751,1.751,0,0,0,34.715,50.938Z" fill="#441d03"/>
      <path d="M28.154,60.49a1.749,1.749,0,0,0-2.149,1.228,24.676,24.676,0,0,0-.87,6.514,35.378,35.378,0,0,0,3.774,15.859,1.75,1.75,0,0,0,3.125-1.576,31.859,31.859,0,0,1-3.4-14.283,21.221,21.221,0,0,1,.746-5.592A1.751,1.751,0,0,0,28.154,60.49Z" fill="#441d03"/>
    </g>
  </g>
</svg>
