<svg xmlns="http://www.w3.org/2000/svg" width="128" height="128" viewBox="0 0 128 128">
  <title>BARN</title>
  <g>
    <polygon points="88.224 34.891 64 6.306 39.776 34.891 6.306 54.215 10.556 61.575 45.305 41.512 64 19.452 82.695 41.512 117.444 61.575 121.694 54.215 88.224 34.891" fill="#ea4a42"/>
    <polygon points="82.695 41.512 64 19.452 45.305 41.512 17.622 57.495 17.622 57.495 17.622 121.694 110.378 121.694 110.378 57.495 110.378 57.495 82.695 41.512" fill="#f9922d"/>
    <rect x="39.343" y="74.824" width="49.313" height="46.87" fill="#ea4a42"/>
    <rect x="33.524" y="68.3" width="60.953" height="6.523" fill="#ea4a42"/>
    <rect x="46.829" y="51.651" width="9.685" height="9.685" fill="#ffefc2"/>
    <rect x="71.486" y="51.651" width="9.685" height="9.685" transform="translate(152.657 112.988) rotate(-180)" fill="#ffefc2"/>
    <g>
      <path d="M17.622,104a1.75,1.75,0,0,0,1.75-1.75v-4.5a1.75,1.75,0,0,0-3.5,0v4.5A1.75,1.75,0,0,0,17.622,104Z" fill="#441d03"/>
      <path d="M122.568,52.7,109.8,45.327a1.75,1.75,0,1,0-1.75,3.031l11.254,6.5-2.5,4.33L83.833,40.149l-18.5-21.828a1.808,1.808,0,0,0-2.67,0l-18.5,21.828L11.2,59.185l-2.5-4.33L40.651,36.406a1.731,1.731,0,0,0,.46-.384L64,9.014,86.889,36.022a1.716,1.716,0,0,0,.46.384l14.074,8.126a1.75,1.75,0,0,0,1.75-3.031L89.362,33.527,65.335,5.175a1.808,1.808,0,0,0-2.67,0L38.638,33.527,5.432,52.7a1.75,1.75,0,0,0-.641,2.39L9.04,62.45a1.75,1.75,0,0,0,2.391.641l4.441-2.564V89.509a1.75,1.75,0,0,0,3.5,0v-31L46.181,43.028a1.786,1.786,0,0,0,.46-.384L64,22.16,81.359,42.644a1.786,1.786,0,0,0,.46.384l26.809,15.478v61.437H90.406V76.574h4.071a1.751,1.751,0,0,0,1.75-1.75V68.3a1.751,1.751,0,0,0-1.75-1.75H33.523a1.751,1.751,0,0,0-1.75,1.75v6.524a1.751,1.751,0,0,0,1.75,1.75h4.071v43.369H19.372V110.9a1.75,1.75,0,0,0-3.5,0v10.791a1.749,1.749,0,0,0,1.75,1.75h92.756a1.749,1.749,0,0,0,1.75-1.75V60.527l4.441,2.564a1.75,1.75,0,0,0,2.391-.641l4.249-7.361A1.75,1.75,0,0,0,122.568,52.7ZM76.328,94.5,66.9,76.574h18.86ZM86.906,81.909v32.7l-8.6-16.349Zm-24.656,32.7-8.6-16.349,8.6-16.35Zm3.5-32.7,8.6,16.35-8.6,16.349ZM51.672,94.5l-9.43-17.926H61.1Zm-1.978,3.759-8.6,16.349v-32.7Zm1.978,3.759,9.43,17.925H42.242Zm24.656,0,9.43,17.925H66.9ZM35.273,70.05H92.727v3.024H35.273Z" fill="#441d03"/>
      <path d="M56.515,63.086a1.75,1.75,0,0,0,1.75-1.75V51.651a1.751,1.751,0,0,0-1.75-1.75H46.829a1.75,1.75,0,0,0-1.75,1.75v9.685a1.749,1.749,0,0,0,1.75,1.75ZM48.579,53.4h6.186v6.185H48.579Z" fill="#441d03"/>
      <path d="M81.171,63.086a1.749,1.749,0,0,0,1.75-1.75V51.651a1.75,1.75,0,0,0-1.75-1.75H71.485a1.751,1.751,0,0,0-1.75,1.75v9.685a1.75,1.75,0,0,0,1.75,1.75ZM73.235,53.4h6.186v6.185H73.235Z" fill="#441d03"/>
    </g>
  </g>
</svg>
