<svg xmlns="http://www.w3.org/2000/svg" width="128" height="128" viewBox="0 0 128 128">
  <title>BENCH</title>
  <g>
    <rect x="6.306" y="6.306" width="115.387" height="26.547" fill="#9e5410"/>
    <rect x="6.306" y="64" width="115.387" height="15.949" fill="#9e5410"/>
    <polygon points="27.69 79.949 14.98 121.694 6.306 121.694 19.017 79.949 27.69 79.949" fill="#fd3"/>
    <polygon points="100.31 79.949 113.02 121.694 121.694 121.694 108.983 79.949 100.31 79.949" fill="#fd3"/>
    <rect x="19.017" y="32.854" width="8.673" height="31.146" fill="#fd3"/>
    <polygon points="20.015 105.158 107.985 105.158 105.344 96.484 22.656 96.484 20.015 105.158" fill="#fd3"/>
    <rect x="100.31" y="32.854" width="8.673" height="31.146" fill="#fd3"/>
    <g>
      <path d="M17.279,13.4a1.75,1.75,0,0,0,0,3.5h21a1.75,1.75,0,0,0,0-3.5Z" fill="#441d03"/>
      <path d="M45.437,13.4a1.75,1.75,0,0,0,0,3.5h4.8a1.75,1.75,0,0,0,0-3.5Z" fill="#441d03"/>
      <path d="M121.693,34.6a1.75,1.75,0,0,0,1.75-1.75V6.307a1.749,1.749,0,0,0-1.75-1.75H105.979a1.75,1.75,0,0,0,0,3.5h13.964V31.1H8.057V8.057H98.3a1.75,1.75,0,0,0,0-3.5H6.307a1.749,1.749,0,0,0-1.75,1.75V32.854a1.75,1.75,0,0,0,1.75,1.75h10.96V62.25H6.307A1.749,1.749,0,0,0,4.557,64V79.949a1.749,1.749,0,0,0,1.75,1.75H16.655L4.633,121.184a1.748,1.748,0,0,0,1.674,2.259h8.672a1.749,1.749,0,0,0,1.674-1.24l4.658-15.3H32.062a1.75,1.75,0,0,0,0-3.5H22.376l1.576-5.174h80.1l1.576,5.174H53.455a1.75,1.75,0,0,0,0,3.5h53.234l4.658,15.3a1.749,1.749,0,0,0,1.674,1.24h8.672a1.748,1.748,0,0,0,1.674-2.259L111.345,81.7h10.348a1.749,1.749,0,0,0,1.75-1.75V64a1.749,1.749,0,0,0-1.75-1.75h-10.96V34.6ZM29.44,62.25V34.6H98.56V62.25ZM20.767,34.6H25.94V62.25H20.767Zm-7.084,85.339H8.669L20.313,81.7h5.015ZM25.017,94.734,28.987,81.7H99.013l3.97,13.035Zm94.314,25.209h-5.014L102.672,81.7h5.015Zm.612-41.744H8.057V65.75H119.943ZM107.233,62.25H102.06V34.6h5.173Z" fill="#441d03"/>
      <path d="M44.8,103.408H40.3a1.75,1.75,0,0,0,0,3.5h4.5a1.75,1.75,0,0,0,0-3.5Z" fill="#441d03"/>
    </g>
  </g>
</svg>
