<svg xmlns="http://www.w3.org/2000/svg" width="128" height="128" viewBox="0 0 128 128">
  <title>BOOTS</title>
  <g>
    <path d="M121.694,111.578H83.956A79.643,79.643,0,0,1,64.8,109.24l-8.6-2.131a61.919,61.919,0,0,0-14.9-1.818h-35V87.64A61.2,61.2,0,0,1,8.943,69.872h0a30.855,30.855,0,0,0,.178-17.3h0A75.416,75.416,0,0,1,6.306,32.158V16.422l6.931-3.392a66.032,66.032,0,0,1,29.03-6.724H60.659V46.292a31.266,31.266,0,0,0,6.162,18.637h0A38.565,38.565,0,0,0,84.439,78.122l26.727,9.855a16.1,16.1,0,0,1,10.528,15.1Z" fill="#fd3"/>
    <path d="M64.8,109.24l-8.6-2.131a61.919,61.919,0,0,0-14.9-1.818h-35v16.4H20.59a7,7,0,0,1,13.987,0h9.544l4.74-6.084,16.483,3.952a77.373,77.373,0,0,0,18.036,2.132h38.314V111.578H83.956A79.643,79.643,0,0,1,64.8,109.24Z" fill="#9e5410"/>
    <g>
      <path d="M111.771,86.336,85.045,76.479A36.7,36.7,0,0,1,68.227,63.887a29.711,29.711,0,0,1-5.818-17.595V36.943a1.75,1.75,0,0,0-3.5,0v3.118L40.322,54.748A37.911,37.911,0,0,0,25.833,84.661v18.88H8.057V87.64a59.4,59.4,0,0,1,2.56-17.26A32.538,32.538,0,0,0,10.805,52.1a73.7,73.7,0,0,1-2.748-19.94V28.391H58.909v.314a1.75,1.75,0,1,0,3.5,0v-4.5a1.75,1.75,0,0,0-3.5,0v.684H8.057V17.514L14.006,14.6A64.629,64.629,0,0,1,42.267,8.057H58.909V15.55a1.75,1.75,0,1,0,3.5,0V6.307a1.75,1.75,0,0,0-1.75-1.75H42.267a68.161,68.161,0,0,0-29.8,6.9L5.538,14.85a1.75,1.75,0,0,0-.981,1.572V32.157A77.175,77.175,0,0,0,7.436,53.044a29.042,29.042,0,0,1-.168,16.32A62.906,62.906,0,0,0,4.557,87.64v34.053a1.749,1.749,0,0,0,1.75,1.75h6.608a1.75,1.75,0,1,0,0-3.5H8.057v-12.9H41.3a60.267,60.267,0,0,1,14.475,1.766l8.6,2.131a81.46,81.46,0,0,0,19.578,2.39h35.986v6.615H83.379a75.7,75.7,0,0,1-17.628-2.084l-16.483-3.951a1.753,1.753,0,0,0-1.788.627l-4.213,5.408H36.083a8.753,8.753,0,0,0-17.241,1.662,1.75,1.75,0,0,0,1.66,1.836l.089,0a1.749,1.749,0,0,0,1.747-1.662,5.252,5.252,0,0,1,10.491,0,1.751,1.751,0,0,0,1.748,1.662h9.545a1.752,1.752,0,0,0,1.38-.674l4.046-5.194,15.388,3.689a79.247,79.247,0,0,0,18.443,2.179h38.314a1.749,1.749,0,0,0,1.75-1.75V103.08A17.912,17.912,0,0,0,111.771,86.336Zm-46.55,21.206-8.6-2.132A63.783,63.783,0,0,0,41.3,103.541H29.333V84.661A34.431,34.431,0,0,1,42.492,57.494L58.909,44.521v1.771a33.236,33.236,0,0,0,6.507,19.681,40.2,40.2,0,0,0,18.418,13.79l26.726,9.856a14.4,14.4,0,0,1,9.383,13.461v6.748H83.957A77.993,77.993,0,0,1,65.221,107.542Z" fill="#441d03"/>
      <path d="M108.3,93.557,94.687,88.791a1.75,1.75,0,1,0-1.157,3.3l13.617,4.765a1.728,1.728,0,0,0,.579.1,1.75,1.75,0,0,0,.578-3.4Z" fill="#441d03"/>
      <path d="M88.676,86.687l-4.184-1.464a1.749,1.749,0,1,0-1.157,3.3l4.185,1.464a1.718,1.718,0,0,0,.578.1,1.75,1.75,0,0,0,.578-3.4Z" fill="#441d03"/>
    </g>
  </g>
</svg>
