<svg xmlns="http://www.w3.org/2000/svg" width="128" height="128" viewBox="0 0 128 128">
  <title>CARROT</title>
  <g>
    <path d="M9.285,118.715h0a10.168,10.168,0,0,1-1.2-12.942L54.51,38.112A21.262,21.262,0,0,1,67.358,29.4h0a19.785,19.785,0,0,1,18.346,5.308L93.291,42.3A19.785,19.785,0,0,1,98.6,60.641h0A21.262,21.262,0,0,1,89.888,73.49L22.227,119.91a10.168,10.168,0,0,1-12.942-1.195Z" fill="#f9922d"/>
    <path d="M85.705,34.709a30.725,30.725,0,0,0,5.337-15.24c1.386-15.266,10.12-16.038,15.187-8.5,0,0,6.128-4.39,10.662.144s.144,10.662.144,10.662c7.534,5.067,6.762,13.8-8.5,15.187A30.725,30.725,0,0,0,93.291,42.3Z" fill="#2eb74e"/>
    <g>
      <path d="M13.961,97.217a1.752,1.752,0,0,0,2.433-.453l.224-.326,7.472,7.472a1.75,1.75,0,0,0,2.475-2.474L18.631,93.5l.306-.446a1.75,1.75,0,1,0-2.886-1.981l-2.544,3.708A1.752,1.752,0,0,0,13.961,97.217Z" fill="#441d03"/>
      <path d="M97.98,63.05a1.75,1.75,0,0,0-2.313.883A19.488,19.488,0,0,1,91.388,70l-16.7-16.695a1.749,1.749,0,0,0-2.474,2.474L88.652,72.216l-35.124,24.1L42.607,85.393a1.749,1.749,0,1,0-2.474,2.474l10.46,10.46-29.356,20.14a8.418,8.418,0,0,1-11.7-11.7l2.2-3.211a1.75,1.75,0,1,0-2.886-1.981l-2.2,3.211a11.919,11.919,0,0,0,16.57,16.571l67.661-46.42a23.006,23.006,0,0,0,7.984-9.572A1.75,1.75,0,0,0,97.98,63.05Z" fill="#441d03"/>
      <path d="M69.6,37.549a1.752,1.752,0,0,0-2.254-1.022,16.675,16.675,0,0,0-7.914,6.2L55.97,47.78a1.75,1.75,0,1,0,2.885,1.981l3.466-5.051A13.192,13.192,0,0,1,68.582,39.8,1.75,1.75,0,0,0,69.6,37.549Z" fill="#441d03"/>
      <path d="M119.345,21.312c1.489-2.948,2.486-7.738-1.217-11.44s-8.492-2.707-11.439-1.216C104,5.4,100.627,3.962,97.429,4.776c-2.6.667-7.123,3.443-8.13,14.536a32.3,32.3,0,0,1-1.339,6.719,20.986,20.986,0,0,0-8.116-14.052,1.75,1.75,0,0,0-2.167,2.748,17.932,17.932,0,0,1,6.908,16.711,21.4,21.4,0,0,0-17.613-3.744,22.947,22.947,0,0,0-13.9,9.427L20.946,83.941a1.75,1.75,0,1,0,2.886,1.981l18.9-27.544L56.175,71.824A1.75,1.75,0,0,0,58.65,69.35L44.742,55.442,55.953,39.1a19.452,19.452,0,0,1,11.791-7.994,17.947,17.947,0,0,1,16.724,4.838l7.585,7.586a18.13,18.13,0,0,1,5.28,13.034,1.752,1.752,0,0,0,1.723,1.778,1.728,1.728,0,0,0,1.777-1.723,21.634,21.634,0,0,0-4.3-13.2,17.937,17.937,0,0,1,16.741,6.9,1.75,1.75,0,1,0,2.748-2.168,20.984,20.984,0,0,0-14.05-8.116,32.441,32.441,0,0,1,6.718-1.338c11.092-1.007,13.868-5.526,14.535-8.13C124.042,27.375,122.6,24,119.345,21.312Zm.488,8.39c-.734,2.867-5.019,4.929-11.46,5.513A34.045,34.045,0,0,0,93.5,40.032l-1.53-1.53,13.175-13.175a1.749,1.749,0,0,0-2.474-2.474L89.5,36.027l-1.53-1.53a34.015,34.015,0,0,0,4.816-14.869C93.37,13.186,95.43,8.9,98.3,8.167c2.073-.525,4.557.916,6.48,3.775a1.755,1.755,0,0,0,2.466.45c.2-.143,5-3.457,8.411-.045s.1,8.208-.042,8.4a1.75,1.75,0,0,0,.446,2.472C118.917,25.146,120.364,27.629,119.833,29.7Z" fill="#441d03"/>
    </g>
  </g>
</svg>
