<svg xmlns="http://www.w3.org/2000/svg" width="128" height="128" viewBox="0 0 128 128">
  <title>CHICKEN</title>
  <g>
    <path d="M44.945,50.639V31.919A13.091,13.091,0,0,0,31.854,18.828h0A13.091,13.091,0,0,0,18.763,31.919V52.68a35,35,0,0,0,35,35H70.035a28.457,28.457,0,0,0,28.4-26.687H55.3A10.354,10.354,0,0,1,44.945,50.639Z" fill="#f9922d"/>
    <circle cx="29.313" cy="34.299" r="3.904" fill="#ffefc2"/>
    <path d="M121.694,46.427a17.2,17.2,0,0,0-9.292.979,31.908,31.908,0,0,0,9.292-16.19,24.4,24.4,0,0,0-9.292,2.048,38.434,38.434,0,0,0,9.292-14.687,32.6,32.6,0,0,0-31.8,25.438c-24.907-12.259-44.949,0-44.949,0v6.624A10.353,10.353,0,0,0,55.3,60.993h46.15a20.4,20.4,0,0,0,17.572-10.035Z" fill="#fd3"/>
    <polygon points="18.763 38.204 6.306 38.204 18.851 30.395 18.763 38.204" fill="#fd3"/>
    <path d="M67.831,87.68V98.749a5.932,5.932,0,0,1-5.932,5.932h0a5.932,5.932,0,0,1-5.933-5.932V87.68Z" fill="#fd3"/>
    <path d="M20.931,24.711a13.074,13.074,0,0,1,10.923-5.883h0a13.071,13.071,0,0,1,10.922,5.883h0l5.57-9.963a3.585,3.585,0,0,0-.767-4.445l-.279-.245a3.585,3.585,0,0,0-4.722,0L40.622,11.77a3,3,0,0,1-4.831-1.341L35.266,8.8a3.584,3.584,0,0,0-6.825,0l-.525,1.634a3,3,0,0,1-4.831,1.341l-1.96-1.715a3.585,3.585,0,0,0-4.722,0l-.28.245a3.585,3.585,0,0,0-.766,4.445l5.569,9.963Z" fill="#ea4a42"/>
    <g>
      <path d="M29.313,39.954A5.655,5.655,0,1,0,23.659,34.3,5.66,5.66,0,0,0,29.313,39.954Zm0-7.809A2.155,2.155,0,1,1,27.159,34.3,2.157,2.157,0,0,1,29.313,32.145Z" fill="#441d03"/>
      <path d="M40.016,73.712a25.028,25.028,0,0,1-8.749-9.847,1.75,1.75,0,0,0-3.137,1.553A28.557,28.557,0,0,0,38.1,76.644a1.751,1.751,0,0,0,1.914-2.932Z" fill="#441d03"/>
      <path d="M29.213,57.914a25.151,25.151,0,0,1-.47-3.477,1.75,1.75,0,1,0-3.492.224,28.766,28.766,0,0,0,.534,3.962,1.75,1.75,0,0,0,3.428-.709Z" fill="#441d03"/>
      <path d="M102.191,26.806a1.74,1.74,0,0,0,1.047-.349A31.243,31.243,0,0,1,106.2,24.5a1.75,1.75,0,1,0-1.762-3.025,34.684,34.684,0,0,0-3.3,2.183,1.75,1.75,0,0,0,1.048,3.152Z" fill="#441d03"/>
      <path d="M122.068,44.718a15.463,15.463,0,0,0-4.609-.27,33.762,33.762,0,0,0,5.956-12.916,1.751,1.751,0,0,0-1.722-2.066h0a22.84,22.84,0,0,0-4.043.383,37.562,37.562,0,0,0,5.726-10.782,1.749,1.749,0,0,0-1.68-2.24,34.377,34.377,0,0,0-9.43,1.313,1.749,1.749,0,1,0,.959,3.365,30.8,30.8,0,0,1,5.89-1.071,38.705,38.705,0,0,1-7.95,11.6,1.75,1.75,0,0,0,1.988,2.817,23.148,23.148,0,0,1,6.222-1.725,30.094,30.094,0,0,1-8.143,12.985,1.751,1.751,0,0,0,1.864,2.908,16.5,16.5,0,0,1,5.709-1.13l-1.287,2.184a18.728,18.728,0,0,1-16.066,9.175H55.3a8.613,8.613,0,0,1-8.6-8.6V45.051c3.957-2.045,21.453-9.788,42.427.535A1.751,1.751,0,0,0,91.6,44.4a30.852,30.852,0,0,1,6.284-12.833,1.75,1.75,0,0,0-2.7-2.226,34.432,34.432,0,0,0-6.457,12.2c-19.605-8.8-35.849-3.245-42.034-.388V31.919a14.725,14.725,0,0,0-1.9-7.234L49.878,15.6a5.361,5.361,0,0,0-1.141-6.617l-.279-.244a5.35,5.35,0,0,0-7.027,0L39.47,10.453a1.249,1.249,0,0,1-2.013-.559L36.933,8.26a5.335,5.335,0,0,0-10.158,0L26.25,9.9a1.249,1.249,0,0,1-2.013.558l-1.96-1.715a5.355,5.355,0,0,0-7.029,0l-.278.244A5.361,5.361,0,0,0,13.829,15.6l5.078,9.084a14.735,14.735,0,0,0-1.653,4.643L5.382,36.719a1.75,1.75,0,0,0,.925,3.235H17.013V52.681a36.792,36.792,0,0,0,36.75,36.75H66.081v9.318a4.186,4.186,0,0,1-4.163,4.181l-.02,0-.019,0a4.186,4.186,0,0,1-4.163-4.181V95.357a1.75,1.75,0,0,0-3.5,0v3.392a7.69,7.69,0,0,0,5.932,7.474v7.767a18.613,18.613,0,0,0-13.1,6.668,1.75,1.75,0,0,0,2.817,2.077A15.3,15.3,0,0,1,61.9,117.419a15.308,15.308,0,0,1,12.038,5.316,1.75,1.75,0,0,0,2.817-2.077,18.616,18.616,0,0,0-13.1-6.668v-7.767a7.69,7.69,0,0,0,5.933-7.474V89.431h.453a30.245,30.245,0,0,0,30-26.688h1.415a22.244,22.244,0,0,0,19.08-10.9l2.672-4.531a1.749,1.749,0,0,0-1.133-2.6ZM16.884,13.894a1.847,1.847,0,0,1,.393-2.276l.279-.244a1.841,1.841,0,0,1,2.417,0l1.96,1.715a4.75,4.75,0,0,0,7.649-2.123l.525-1.636a1.835,1.835,0,0,1,3.494,0l.524,1.634a4.75,4.75,0,0,0,7.649,2.124l1.961-1.715a1.839,1.839,0,0,1,2.417,0l.28.244a1.845,1.845,0,0,1,.391,2.275l-4.314,7.718a14.788,14.788,0,0,0-21.311,0Zm-4.455,22.56L17.013,33.6v2.854ZM70.034,85.931H53.763a33.288,33.288,0,0,1-33.25-33.25V31.919a11.341,11.341,0,1,1,22.682,0V50.64a12.118,12.118,0,0,0,12.1,12.1H96.5A26.738,26.738,0,0,1,70.034,85.931Z" fill="#441d03"/>
    </g>
  </g>
</svg>
