<?xml version="1.0" encoding="utf-8"?>
<!-- Generator: Adobe Illustrator 23.0.6, SVG Export Plug-In . SVG Version: 6.00 Build 0)  -->
<svg version="1.1" id="Layer_1" xmlns="http://www.w3.org/2000/svg" xmlns:xlink="http://www.w3.org/1999/xlink" x="0px" y="0px"
	 width="128px" height="128px" viewBox="0 0 128 128" style="enable-background:new 0 0 128 128;" xml:space="preserve">
<style type="text/css">
	.st0{fill:#2EB74E;}
	.st1{fill:#FFDD33;}
	.st2{fill:#F9922D;}
	.st3{fill:#441D03;}
</style>
<title>CORN</title>
<g>
	<path class="st0" d="M64,109.3c0-31.9-25.8-57.7-57.7-57.7c0,0,0,0,0,0C6.3,83.5,32.1,109.3,64,109.3L64,109.3z"/>
	<path class="st0" d="M64,109.3c0-31.9,25.8-57.7,57.7-57.7l0,0C121.7,83.5,95.9,109.3,64,109.3L64,109.3z"/>
	<path class="st1" d="M64,6.3c-11.6,0-21,23.1-21,51.5c0,2.4,0.1,4.8,0.2,7.2v0C56.4,76,64,92.2,64,109.3C64,92.2,71.6,76,84.8,65v0
		c0.1-2.4,0.2-4.8,0.2-7.2C85,29.4,75.6,6.3,64,6.3z"/>
	<path class="st2" d="M69.7,109c-1.9,0.2-3.8,0.3-5.7,0.3s-3.8-0.1-5.7-0.3h-0.1v12.6h11.4L69.7,109L69.7,109z"/>
	<path class="st3" d="M31.5,99.4c-0.6,0.8-1.7,1-2.4,0.4l0,0c-1.1-0.8-2.3-1.7-3.3-2.6c-0.7-0.6-0.9-1.7-0.3-2.5
		c0.6-0.7,1.7-0.9,2.5-0.3l0,0c1,0.9,2.1,1.7,3.1,2.5C31.9,97.5,32.1,98.6,31.5,99.4z M71.5,110.6v11.1c0,1-0.8,1.8-1.8,1.8H58.3
		c-1,0-1.7-0.8-1.8-1.7l0,0v-11.1c-7.3-0.9-14.5-3.2-21-6.8c-0.8-0.5-1.1-1.5-0.7-2.4c0.5-0.8,1.5-1.1,2.3-0.7
		c6,3.2,12.4,5.4,19.2,6.3c-23.5-14.5-40.8-37.9-48-48.7C9.8,70,14.9,80.9,22.8,89.5c0.7,0.7,0.6,1.8-0.1,2.5s-1.8,0.6-2.5-0.1
		C10.1,80.9,4.6,66.5,4.6,51.6c0-1,0.9-1.8,1.8-1.8c12.6,0,24.9,4,35,11.5c0-1.2,0-2.4,0-3.5c0-16.5,3-31,7.9-40.7
		C52.7,10.4,57.7,4.6,64,4.6c10.8,0,17.4,16.2,19.6,26.1c0.2,0.9-0.3,1.9-1.3,2.1c-0.9,0.2-1.9-0.3-2.1-1.3c0-0.2-0.1-0.4-0.2-0.6
		h-3.8v7.9h5.5v-0.1c-0.2-1,0.5-1.9,1.4-2c1-0.2,1.8,0.5,2,1.4c0.8,4,1.8,16.5,1.5,23.2c10.2-7.5,22.4-11.5,35-11.5
		c1.1,0,1.8,0.9,1.8,1.7C123.5,81.6,101.2,106.8,71.5,110.6z M46.3,38.8h5.5v-7.9h-3.9C47.3,33.4,46.7,36,46.3,38.8z M62.3,19.5h-7
		v7.9h7V19.5z M65.8,27.4h7v-7.9h-7V27.4z M44.8,61.6h6.9v-7.9h-6.9c0,1.3-0.1,2.7-0.1,4.1C44.8,59.1,44.8,60.4,44.8,61.6L44.8,61.6
		z M55.3,61.6h7v-7.9h-7V61.6z M55.3,65.1V73h7v-7.9H55.3z M65.8,73.1h7v-7.9h-7V73.1z M65.8,76.6v12.7c1.6-4.5,3.8-8.7,6.4-12.7
		H65.8z M82,65.1h-5.8v6C78,69,79.9,67,82,65.1z M83.1,53.7h-6.9v7.9h6.9c0-1.3,0.1-2.5,0.1-3.8C83.2,56.4,83.2,55.1,83.1,53.7z
		 M72.7,53.7h-7v7.9h7V53.7z M72.7,50.2v-7.9h-7v7.9H72.7z M62.3,42.3h-7v7.9h7V42.3z M62.3,38.8v-7.9h-7v7.9H62.3z M48.9,27.4h2.9
		v-7.5C50.6,22.3,49.7,24.8,48.9,27.4z M45.8,42.3c-0.3,2.5-0.6,5.2-0.7,7.9h6.8v-7.9H45.8z M46,65.1c2.1,1.9,4,3.8,5.8,6v-6H46z
		 M55.9,76.5c2.6,4,4.8,8.2,6.4,12.7V76.6L55.9,76.5z M65.8,106.3c27.5-15.2,47-43.9,52.7-52.9C90.1,55.1,67.4,77.9,65.8,106.3
		L65.8,106.3z M76.2,42.3v7.9H83c-0.2-2.7-0.4-5.3-0.7-7.9H76.2z M72.7,30.9h-7v7.9h7V30.9z M79.1,27.4c-0.8-2.6-1.7-5.1-2.8-7.6
		v7.6H79.1z M65.8,8.3V16h7v-2.2C70.6,10.8,68.2,8.9,65.8,8.3z M55.3,13.8V16h7V8.3C59.9,8.9,57.5,10.8,55.3,13.8z M62.2,106.3
		C60.6,77.9,37.9,55.1,9.5,53.5C15.1,62.4,34.7,91.1,62.2,106.3z M68,110.9c-1.3,0.1-2.6,0.1-4,0.1l0,0c-1.3,0-2.6,0-4-0.1v9h8
		V110.9z M119.5,58.3c-7.2,10.8-24.4,34.2-48,48.7C96.8,103.6,116.4,83.6,119.5,58.3z M99.5,65.6c0.3,0,0.6-0.1,0.8-0.2
		c1-0.5,2.1-1.1,3.1-1.5c0.9-0.4,1.3-1.4,0.9-2.3c-0.4-0.9-1.4-1.3-2.3-0.9l0,0c-1.1,0.5-2.3,1-3.4,1.6c-0.9,0.5-1.2,1.5-0.7,2.4
		C98.2,65.3,98.8,65.6,99.5,65.6L99.5,65.6z M95.3,66.3c-0.6-0.8-1.6-1-2.4-0.4c-3.6,2.5-6.8,5.3-9.8,8.5c-0.7,0.7-0.6,1.8,0.1,2.5
		s1.8,0.6,2.5-0.1l0,0c2.8-3,5.9-5.7,9.2-8C95.6,68.2,95.8,67.1,95.3,66.3z"/>
</g>
</svg>
