<svg xmlns="http://www.w3.org/2000/svg" width="128" height="128" viewBox="0 0 128 128">
  <title>COW</title>
  <g>
    <path d="M65.819,26.708q-.9-.028-1.819-.029t-1.819.029c-22.9.736-38.249,23.956-30.628,45.57L41.9,101.622h.012C49.327,93.069,64,93.545,64,93.545s14.673-.476,22.087,8.077H86.1L96.447,72.278C104.068,50.664,88.724,27.444,65.819,26.708Z" fill="#ffefc2"/>
    <path d="M52.429,118.83c-6.949,7.86-19.8-1.6-12.376-14.6C46.479,92.969,64,93.545,64,93.545s17.521-.576,23.947,10.685c7.42,13-5.427,22.46-12.376,14.6C69.827,112.332,58.173,112.332,52.429,118.83Z" fill="#ea4a42"/>
    <circle cx="77.363" cy="107.617" r="3.904" fill="#ffefc2"/>
    <circle cx="50.637" cy="107.617" r="3.904" fill="#ffefc2"/>
    <path d="M39.19,93.94,31.55,72.28c-6.73-19.11,4.47-39.47,22.98-44.44,0,0-2.62,9.08.01,26.3C57.72,74.95,51.71,82.79,39.19,93.94Z" fill="#9e5410"/>
    <path d="M96.45,72.28,88.81,93.94C76.29,82.79,70.28,74.95,73.46,54.14c2.63-17.22.01-26.3.01-26.3C91.98,32.81,103.18,53.17,96.45,72.28Z" fill="#9e5410"/>
    <circle cx="42.564" cy="60.488" r="5.154" fill="#ffefc2"/>
    <circle cx="85.436" cy="60.488" r="5.154" fill="#ffefc2"/>
    <path d="M88.81,36.972l0,0a34.682,34.682,0,0,1,9.269,19.066h0c20.57-2.041,23.613-21.527,23.613-21.527C102.882,24.75,88.81,36.972,88.81,36.972Z" fill="#ffefc2"/>
    <path d="M92.649,41.768l.008.018a34.731,34.731,0,0,1,4.088,8.479l.008.017c14.219-2.7,17.022-11.744,17.022-11.744C104.178,33.74,92.649,41.768,92.649,41.768Z" fill="#ea4a42"/>
    <path d="M88.809,36.973h0c11.253-13.306,1.817-30.666,1.817-30.666A29.706,29.706,0,0,1,78.874,29.821v.009A33.426,33.426,0,0,1,88.809,36.973Z" fill="#9e5410"/>
    <path d="M29.919,56.042a34.682,34.682,0,0,1,9.269-19.066l0,0S25.118,24.75,6.306,34.516c0,0,3.043,19.486,23.613,21.527Z" fill="#ffefc2"/>
    <path d="M31.25,50.281a34.756,34.756,0,0,1,4.1-8.511l0,0s-11.529-8.028-21.126-3.23c0,0,2.8,9.042,17.022,11.744Z" fill="#ea4a42"/>
    <path d="M39.2,36.966a33.42,33.42,0,0,1,9.9-7.121l.032-.024A29.706,29.706,0,0,1,37.373,6.306s-9.436,17.36,1.817,30.666Z" fill="#9e5410"/>
    <g>
      <path d="M77.363,101.962a5.655,5.655,0,1,0,5.655,5.655A5.661,5.661,0,0,0,77.363,101.962Zm0,7.809a2.155,2.155,0,1,1,2.155-2.154A2.157,2.157,0,0,1,77.363,109.771Z" fill="#441d03"/>
      <path d="M50.637,101.962a5.655,5.655,0,1,0,5.654,5.655A5.662,5.662,0,0,0,50.637,101.962Zm0,7.809a2.155,2.155,0,1,1,2.154-2.154A2.157,2.157,0,0,1,50.637,109.771Z" fill="#441d03"/>
      <path d="M42.564,67.392a6.9,6.9,0,1,0-6.9-6.9A6.913,6.913,0,0,0,42.564,67.392Zm0-10.309a3.4,3.4,0,1,1-3.4,3.405A3.41,3.41,0,0,1,42.564,57.083Z" fill="#441d03"/>
      <path d="M85.436,53.583a6.9,6.9,0,1,0,6.9,6.905A6.913,6.913,0,0,0,85.436,53.583Zm0,10.309a3.4,3.4,0,1,1,3.4-3.4A3.409,3.409,0,0,1,85.436,63.892Z" fill="#441d03"/>
      <path d="M122.5,32.963c-11.978-6.219-22.239-3.9-28.464-1.116,5.447-12.589-1.522-25.733-1.872-26.376a1.749,1.749,0,0,0-3.287.836A28.21,28.21,0,0,1,78.639,27.8a35.092,35.092,0,0,0-12.763-2.837c-1.234-.04-2.519-.04-3.751,0A35.078,35.078,0,0,0,49.361,27.8,28.22,28.22,0,0,1,39.123,6.307a1.749,1.749,0,0,0-3.287-.836c-.35.643-7.319,13.787-1.872,26.376-6.224-2.784-16.485-5.1-28.464,1.116a1.752,1.752,0,0,0-.923,1.823c.032.2,3.315,19.7,23.389,22.769A36.144,36.144,0,0,0,29.9,72.86l.522,1.478a1.75,1.75,0,0,0,3.3-1.164L33.2,71.7a32.6,32.6,0,0,1-1.615-15.133,1.738,1.738,0,0,0,.072-.347c0-.033,0-.065,0-.1A33,33,0,0,1,40.5,38.129l.011-.009,0-.007a31.449,31.449,0,0,1,9.239-6.662c.019-.007.038-.017.057-.025.792-.373,1.6-.7,2.427-1.009C51.623,34.485,51,42.552,52.812,54.4c3.037,19.888-2.445,27.24-14.785,38.224l0,0a1.793,1.793,0,0,0-.2.223c-.01.012-.023.023-.033.036a1.736,1.736,0,0,0-.139.23,1.715,1.715,0,0,0-.115.278c-.011.033-.027.064-.036.1a1.889,1.889,0,0,0-.034.213c-.005.041-.016.08-.019.122a1.843,1.843,0,0,0,.013.34l0,.015a1.74,1.74,0,0,0,.079.324v.006l2.383,6.76a18.218,18.218,0,0,0-1.39,2.086c-4.619,8.094-2.062,15.115,2.267,18.214a9.478,9.478,0,0,0,12.94-1.588A13.581,13.581,0,0,1,64,115.707a13.581,13.581,0,0,1,10.26,4.282,9.756,9.756,0,0,0,7.322,3.446,9.616,9.616,0,0,0,5.618-1.858c4.329-3.1,6.886-10.12,2.267-18.214a18.218,18.218,0,0,0-1.39-2.086l2.39-6.778h0L98.1,72.86a36.158,36.158,0,0,0,1.936-15.308,27.521,27.521,0,0,0,12.919-5.381,1.75,1.75,0,0,0-2.146-2.765,24.063,24.063,0,0,1-11.248,4.681c-.16-.84-.359-1.674-.58-2.5,13.441-3.279,16.345-12.135,16.467-12.527a1.752,1.752,0,0,0-.889-2.084c-8.408-4.2-17.853.348-21.436,2.437-.549-.75-1.117-1.48-1.714-2.178a28.31,28.31,0,0,1,28.283-1.756,27.871,27.871,0,0,1-4.47,9.4,1.75,1.75,0,1,0,2.808,2.088,30.291,30.291,0,0,0,5.395-12.177A1.752,1.752,0,0,0,122.5,32.963ZM91.513,13.671c1.436,5.507,2.118,13.6-2.879,20.666a34.875,34.875,0,0,0-6.584-4.848A31.642,31.642,0,0,0,91.513,13.671Zm-55.02.025A31.645,31.645,0,0,0,45.95,29.489a34.945,34.945,0,0,0-6.584,4.847C34.393,27.293,35.067,19.208,36.493,13.7ZM8.3,35.48c13.778-6.529,24.533-.822,28.3,1.739-.6.7-1.171,1.436-1.724,2.191-3.583-2.09-13.028-6.643-21.436-2.437a1.752,1.752,0,0,0-.889,2.084c.122.392,3.026,9.248,16.467,12.527-.221.83-.42,1.664-.581,2.5C13.545,51.787,9.3,39.483,8.3,35.48Zm21.79,12.761C21.5,46.213,17.9,41.758,16.574,39.453c6.349-2.135,13.407,1.21,16.354,2.885A36.669,36.669,0,0,0,30.089,48.241Zm26.182,5.635C54.215,40.407,55.45,32,56,29.287a31.926,31.926,0,0,1,6.243-.829c1.157-.039,2.365-.039,3.523,0a31.936,31.936,0,0,1,6.243.829c.546,2.72,1.779,11.128-.276,24.589C68.4,75.665,75.128,84,86.77,94.458l-1.4,3.981C77.409,91.615,65.116,91.767,64,91.794c-1.119-.026-13.409-.178-21.366,6.645l-1.4-3.982C52.872,84,59.6,75.665,56.271,53.876Zm28.892,64.855a5.941,5.941,0,0,1-8.28-1.06A17.072,17.072,0,0,0,64,112.207a17.07,17.07,0,0,0-12.883,5.464,5.941,5.941,0,0,1-8.28,1.06c-3.2-2.288-4.827-7.391-1.265-13.633,5.823-10.2,22.205-9.814,22.372-9.8.035,0,.077,0,.112,0,.163,0,16.55-.4,22.372,9.8C89.99,111.34,88.359,116.443,85.163,118.731ZM94.8,71.7,88.034,90.875C77.068,80.813,72.316,73.216,75.188,54.4c1.811-11.852,1.189-19.919.573-23.987.813.3,1.616.629,2.4,1,.032.015.062.03.095.042a31.467,31.467,0,0,1,9.229,6.658l0,.007.011.009a33,33,0,0,1,8.841,17.99c0,.032,0,.064,0,.1a1.738,1.738,0,0,0,.072.347A32.6,32.6,0,0,1,94.8,71.7ZM111.42,39.451c-1.332,2.3-4.944,6.765-13.509,8.79a36.585,36.585,0,0,0-2.841-5.906C98.011,40.657,105.056,37.308,111.42,39.451Z" fill="#441d03"/>
      <path d="M37.033,87.817A1.751,1.751,0,0,0,38.1,85.585l-1.5-4.244a1.75,1.75,0,1,0-3.3,1.164l1.5,4.244a1.748,1.748,0,0,0,2.232,1.068Z" fill="#441d03"/>
    </g>
  </g>
</svg>
