<svg xmlns="http://www.w3.org/2000/svg" width="128" height="128" viewBox="0 0 128 128">
  <title>DIGGING</title>
  <g>
    <rect x="60.356" y="-4.464" width="7.288" height="28.829" transform="translate(73.951 -54.049) rotate(90)" fill="#ea4a42"/>
    <path d="M64,24.79a11.159,11.159,0,0,1-3.644-.619V68.44h7.288V24.171A11.159,11.159,0,0,1,64,24.79Z" fill="#f9922d"/>
    <path d="M67.64,24.17v9.38H60.36V24.17a11,11,0,0,0,7.28,0Z" fill="#ea4a42"/>
    <path d="M121.694,121.694a11.649,11.649,0,0,0-14.7-11.276A14.482,14.482,0,0,0,85.463,98.1a24.16,24.16,0,0,0-42.926,0,14.482,14.482,0,0,0-21.53,12.318,11.649,11.649,0,0,0-14.7,11.276Z" fill="#9e5410"/>
    <path d="M46.752,92.3a24.1,24.1,0,0,1,34.5,0h.018c0-.172,0-.344,0-.517V79.176L67.644,75.712H60.356L46.732,79.176V91.783c0,.173,0,.345,0,.517Z" fill="#ffefc2"/>
    <path d="M61.029,85.226a22.964,22.964,0,0,1,5.942,0h.1l.577-9.514V68.44H60.356v7.272l.577,9.514Z" fill="#ea4a42"/>
    <g>
      <path d="M68.141,116.339a1.748,1.748,0,0,0,2.391-.638,5.276,5.276,0,0,1,9.137,0,1.751,1.751,0,1,0,3.03-1.754,8.726,8.726,0,0,0-10.784-3.769,13.19,13.19,0,0,0-18.257-.777,1.75,1.75,0,1,0,2.316,2.625,9.67,9.67,0,0,1,12.925.11,8.774,8.774,0,0,0-1.4,1.812A1.75,1.75,0,0,0,68.141,116.339Z" fill="#441d03"/>
      <path d="M37.156,119.943h-4.5a1.75,1.75,0,1,0,0,3.5h4.5a1.75,1.75,0,0,0,0-3.5Z" fill="#441d03"/>
      <path d="M110.011,108.261a12.748,12.748,0,0,0-1.441.082A16.233,16.233,0,0,0,86.182,95.8,26,26,0,0,0,83.016,91.6l0-12.42a1.749,1.749,0,0,0-1.319-1.7l-12.3-3.129V47.281a1.75,1.75,0,0,0-3.5,0V66.69H62.106V35.3h3.788v4.3a1.75,1.75,0,0,0,3.5,0V25.347a12.961,12.961,0,0,0,7.419-10h1.6a1.751,1.751,0,0,0,1.75-1.75V6.307a1.75,1.75,0,0,0-1.75-1.75H49.585a1.75,1.75,0,0,0-1.75,1.75V13.6a1.751,1.751,0,0,0,1.75,1.75h1.6a12.961,12.961,0,0,0,7.419,10v49L46.3,77.48a1.749,1.749,0,0,0-1.319,1.7l0,12.42A26,26,0,0,0,41.818,95.8,16.233,16.233,0,0,0,19.43,108.343a12.748,12.748,0,0,0-1.441-.082A13.448,13.448,0,0,0,4.557,121.693a1.749,1.749,0,0,0,1.75,1.75H24a1.75,1.75,0,0,0,0-3.5H8.211a9.911,9.911,0,0,1,12.345-7.834c.028.008.058.007.087.013a10.015,10.015,0,0,1,5.083,3.34,1.749,1.749,0,1,0,2.723-2.2,13.545,13.545,0,0,0-5.6-4.085,12.734,12.734,0,0,1,18.836-9.552c.015.008.031.012.046.02a12.735,12.735,0,0,1,5.128,5.342,1.751,1.751,0,0,0,3.12-1.589,16.223,16.223,0,0,0-5.1-5.888,22.407,22.407,0,0,1,38.248,0,16.223,16.223,0,0,0-5.1,5.888,1.751,1.751,0,0,0,3.12,1.589,12.735,12.735,0,0,1,5.128-5.342c.015-.008.031-.012.046-.02a12.734,12.734,0,0,1,18.836,9.552,13.545,13.545,0,0,0-5.6,4.085,1.749,1.749,0,1,0,2.723,2.2,10.015,10.015,0,0,1,5.083-3.34c.029-.006.059,0,.087-.013a9.912,9.912,0,0,1,12.345,7.834h-74.4a1.75,1.75,0,1,0,0,3.5h76.3a1.749,1.749,0,0,0,1.75-1.75A13.448,13.448,0,0,0,110.011,108.261ZM79.518,80.537v7.892a25.789,25.789,0,0,0-10.608-4.678l.353-5.822ZM51.335,8.057h25.33v3.788H51.335Zm3.389,7.288H73.276a9.438,9.438,0,0,1-18.552,0ZM64,26.54a12.859,12.859,0,0,0,1.894-.155V31.8H62.106V26.385A12.859,12.859,0,0,0,64,26.54ZM58.738,77.929l.353,5.822a25.789,25.789,0,0,0-10.608,4.678V80.537Zm3.833,5.4-.465-7.667V70.19h3.788v5.472l-.465,7.667c-.475-.026-.95-.046-1.429-.046S63.046,83.3,62.571,83.329Z" fill="#441d03"/>
    </g>
  </g>
</svg>
