<svg xmlns="http://www.w3.org/2000/svg" width="128" height="128" viewBox="0 0 128 128">
  <title>DRAW WELL</title>
  <g>
    <path d="M94.072,74.449V10.808a4.5,4.5,0,0,1,4.5-4.5h0a4.5,4.5,0,0,1,4.5,4.5V74.449Z" fill="#9e5410"/>
    <path d="M24.925,74.449V10.808a4.5,4.5,0,0,1,4.5-4.5h0a4.5,4.5,0,0,1,4.5,4.5V74.449Z" fill="#9e5410"/>
    <circle cx="64" cy="31.611" r="8.409" fill="#ea4a42"/>
    <polygon points="49.141 66.029 62.041 66.029 64 49.895 47.181 49.895 49.141 66.029" fill="#ea4a42"/>
    <rect x="17.017" y="74.449" width="93.966" height="11.811" fill="#f9922d"/>
    <rect x="24.925" y="86.26" width="78.15" height="35.434" fill="#f9922d"/>
    <g>
      <path d="M110.983,72.7h-6.158V39.74a1.75,1.75,0,1,0-3.5,0V72.7h-5.5V10.808a2.752,2.752,0,0,1,5.5,0v7.539a1.75,1.75,0,0,0,3.5,0V10.808a6.252,6.252,0,0,0-12.5,0v2.224H35.678V10.808a6.252,6.252,0,0,0-12.5,0V72.7H17.017a1.749,1.749,0,0,0-1.75,1.75V86.26a1.749,1.749,0,0,0,1.75,1.75h6.158v33.683a1.749,1.749,0,0,0,1.75,1.75H35.487a1.75,1.75,0,1,0,0-3.5H26.675v-8.31h22.55v8.31h-6.06a1.75,1.75,0,0,0,0,3.5h59.91a1.749,1.749,0,0,0,1.75-1.75V88.01h6.158a1.749,1.749,0,0,0,1.75-1.75V74.449A1.749,1.749,0,0,0,110.983,72.7Zm-18.661,0H74.159V31.61a10.168,10.168,0,0,0-8.409-10V16.532H92.322ZM65.75,84.51V76.2H88.3V84.51Zm35.575,15.311v8.312H91.8V99.821ZM88.3,108.133H65.75V99.821H88.3Zm-48.6,0V99.821H62.25v8.312ZM52.725,96.321V88.01h22.55v8.311ZM62.25,76.2V84.51H39.7V76.2Zm-.226-24.553L60.49,64.279h-9.8L49.156,51.646ZM64,33.36a1.749,1.749,0,0,0,1.75-1.75V25.192a6.659,6.659,0,1,1-3.5,0V31.61A1.749,1.749,0,0,0,64,33.36ZM62.25,16.532v5.081a10.168,10.168,0,0,0-8.409,10V48.146h-6.66a1.75,1.75,0,0,0-1.738,1.96L47.4,66.24a1.75,1.75,0,0,0,1.738,1.539h12.9a1.749,1.749,0,0,0,1.737-1.539l1.96-16.134A1.749,1.749,0,0,0,64,48.146H57.341V39.265a10.1,10.1,0,0,0,13.318,0V72.7H35.678V16.532ZM26.675,10.808a2.752,2.752,0,0,1,5.5,0V72.7h-5.5ZM18.767,76.2H36.2V84.51H18.767ZM49.225,88.01v8.311H26.675V88.01ZM26.675,99.821H36.2v8.312H26.675Zm26.05,11.812h22.55v8.31H52.725Zm26.05,8.31v-8.31h22.55v8.31Zm22.55-23.622H78.775V88.01h22.55Zm7.908-11.811H91.8V76.2h17.433Z" fill="#441d03"/>
      <path d="M103.075,25.254a1.749,1.749,0,0,0-1.75,1.75v4.5a1.75,1.75,0,1,0,3.5,0V27A1.749,1.749,0,0,0,103.075,25.254Z" fill="#441d03"/>
    </g>
  </g>
</svg>
