<svg xmlns="http://www.w3.org/2000/svg" width="128" height="128" viewBox="0 0 128 128">
  <title>EGGS</title>
  <g>
    <ellipse cx="64" cy="41.452" rx="19.002" ry="27.41" fill="#f9922d"/>
    <rect x="6.306" y="68.861" width="115.387" height="10.723" rx="5.362" fill="#ea4a42"/>
    <path d="M114.07,79.584S108.382,113.958,64,113.958,13.93,79.584,13.93,79.584Z" fill="#fd3"/>
    <path d="M26,68.861C26,53.723,34.5,41.452,45,41.452S64,53.723,64,68.861Z" fill="#f9922d"/>
    <path d="M64,68.861c0-15.138,8.508-27.409,19-27.409s19,12.271,19,27.409Z" fill="#f9922d"/>
    <g>
      <path d="M116.332,67.111H103.714c-.613-14.47-8.769-26.126-19.006-27.3a37.172,37.172,0,0,0-3.8-15.324,1.75,1.75,0,0,0-3.121,1.584,33.6,33.6,0,0,1,3.426,13.75C73.5,40.75,66.986,47.625,64,57.16c-2.986-9.538-9.5-16.413-17.214-17.343C47.355,26.428,54.856,15.792,64,15.792c3.56,0,6.987,1.625,9.911,4.7a1.75,1.75,0,1,0,2.536-2.412c-3.6-3.786-7.905-5.787-12.447-5.787-11.05,0-20.109,12.2-20.718,27.517-10.233,1.183-18.383,12.836-19,27.3H11.668a7.112,7.112,0,0,0,0,14.223h.851c1.267,5.148,6.968,22.329,27.684,30.323a1.672,1.672,0,0,0,.241.094c.263.1.515.207.783.3a1.749,1.749,0,0,0,1.488-3.149v-4.661H62.25v8.083a1.749,1.749,0,0,0,.627,3.373q.558.008,1.123.007a65.408,65.408,0,0,0,23.343-3.9,1.754,1.754,0,0,0,.627-.244,46.822,46.822,0,0,0,12.752-7.45,1.75,1.75,0,0,0,.812-.686,45.012,45.012,0,0,0,9.25-11.1,1.727,1.727,0,0,0,.527-.912,43.453,43.453,0,0,0,4.149-10.077h.872a7.112,7.112,0,0,0,0-14.223ZM83,43.2c9.118,0,16.6,10.574,17.208,23.909H65.8C66.4,53.776,73.885,43.2,83,43.2Zm-38,0c9.117,0,16.6,10.574,17.207,23.909H27.79C28.4,53.776,35.88,43.2,45,43.2ZM62.25,81.334V89.29H42.715V81.334Zm23.035,0V89.29H65.75V81.334Zm0,11.456v7.955H65.75V92.79Zm-46.07-3.5H19.375a38.886,38.886,0,0,1-3.241-7.956H39.215ZM21.5,92.79h17.72v7.955H28.546A40.4,40.4,0,0,1,21.5,92.79Zm17.72,14.67a44.477,44.477,0,0,1-5.982-3.215h5.982Zm3.5-6.715V92.79H62.25v7.955Zm42.57,3.5v4.635a62.547,62.547,0,0,1-19.535,3.287v-7.922Zm3.5,0h6.05a43.95,43.95,0,0,1-6.05,3.256Zm10.746-3.5H88.785V92.79h17.761A40.158,40.158,0,0,1,99.531,100.745Zm9.121-11.455H88.785V81.334h23.084A38.878,38.878,0,0,1,108.652,89.29Zm7.68-11.456H11.668a3.612,3.612,0,0,1,0-7.223H116.332a3.612,3.612,0,0,1,0,7.223Z" fill="#441d03"/>
      <path d="M54.591,111.636c-1.468-.187-2.918-.423-4.31-.7a1.75,1.75,0,0,0-.682,3.432c1.47.293,3,.541,4.55.738a1.682,1.682,0,0,0,.223.015,1.75,1.75,0,0,0,.219-3.486Z" fill="#441d03"/>
      <path d="M59.038,21.22a20.512,20.512,0,0,0-6.623,10.019,1.749,1.749,0,1,0,3.336,1.054A17.049,17.049,0,0,1,61.2,23.977a1.75,1.75,0,0,0-2.157-2.757Z" fill="#441d03"/>
      <path d="M40.036,48.629a20.519,20.519,0,0,0-6.624,10.019A1.75,1.75,0,1,0,36.749,59.7a17.052,17.052,0,0,1,5.444-8.317,1.75,1.75,0,1,0-2.157-2.757Z" fill="#441d03"/>
      <path d="M72.558,60.844a1.73,1.73,0,0,0,.528.082A1.751,1.751,0,0,0,74.754,59.7,17.052,17.052,0,0,1,80.2,51.386a1.75,1.75,0,0,0-2.157-2.757,20.519,20.519,0,0,0-6.624,10.019A1.749,1.749,0,0,0,72.558,60.844Z" fill="#441d03"/>
    </g>
  </g>
</svg>
