<svg xmlns="http://www.w3.org/2000/svg" width="128" height="128" viewBox="0 0 128 128">
  <title>FARMER</title>
  <g>
    <path d="M94.713,60.171l-17.129-3.03H77.55a20.191,20.191,0,0,1-27.1,0h-.034l-17.129,3.03A15,15,0,0,0,20.9,74.942v46.752h86.2V74.942A15,15,0,0,0,94.713,60.171Z" fill="#ea4a42"/>
    <path d="M84.28,23.088V16.306a10,10,0,0,0-10-10H53.72a10,10,0,0,0-10,10v6.782L29.567,34.334H98.433Z" fill="#9e5410"/>
    <polygon points="38.69 121.694 38.69 59.216 50.416 57.141 50.416 82.56 77.584 82.56 77.584 57.141 89.31 59.216 89.31 121.694 38.69 121.694" fill="#fd3"/>
    <rect x="50.416" y="95.366" width="27.167" height="8.387" fill="#9e5410"/>
    <path d="M84.28,34.335v7.747A20.281,20.281,0,0,1,64,62.363h0A20.281,20.281,0,0,1,43.72,42.082V34.334Z" fill="#ffefc2"/>
    <g>
      <path d="M95.018,58.448,81.076,55.982a21.919,21.919,0,0,0,4.954-13.9v-6h12.4a1.75,1.75,0,0,0,1.089-3.12L86.03,22.243V16.307A11.763,11.763,0,0,0,74.28,4.557a1.75,1.75,0,0,0,0,3.5,8.259,8.259,0,0,1,8.25,8.25v5.031H45.47V16.307a8.259,8.259,0,0,1,8.25-8.25H66.6a1.75,1.75,0,0,0,0-3.5H53.72a11.763,11.763,0,0,0-11.75,11.75v5.936L28.478,32.964a1.75,1.75,0,0,0,1.089,3.12h12.4v6a21.919,21.919,0,0,0,4.954,13.9L32.982,58.448A16.728,16.728,0,0,0,19.15,74.942v46.751a1.75,1.75,0,0,0,1.75,1.75H41.651a1.75,1.75,0,0,0,0-3.5H40.44V60.683l8.227-1.455V82.56a1.75,1.75,0,0,0,1.75,1.75H77.583a1.75,1.75,0,0,0,1.75-1.75V59.228l8.227,1.455v59.26H63.044a1.75,1.75,0,0,0,0,3.5H107.1a1.75,1.75,0,0,0,1.75-1.75V74.942A16.728,16.728,0,0,0,95.018,58.448ZM44.331,24.838H83.669l9.749,7.746H34.582ZM45.47,36.084H82.53v6a18.53,18.53,0,0,1-37.06,0Zm-8.53,83.859H22.65v-45A13.23,13.23,0,0,1,33.592,61.9L36.94,61.3ZM52.167,80.81V60.65a21.948,21.948,0,0,0,23.666,0V80.81Zm53.183,39.133H91.06V61.3l3.348.593A13.231,13.231,0,0,1,105.35,74.942Z" fill="#441d03"/>
      <path d="M54.387,119.943h-4.5a1.75,1.75,0,1,0,0,3.5h4.5a1.75,1.75,0,0,0,0-3.5Z" fill="#441d03"/>
      <path d="M77.583,105.5a1.75,1.75,0,0,0,1.75-1.75V95.366a1.75,1.75,0,0,0-1.75-1.75H50.417a1.75,1.75,0,0,0-1.75,1.75v8.387a1.75,1.75,0,0,0,1.75,1.75ZM52.167,97.116H75.833V102H52.167Z" fill="#441d03"/>
    </g>
  </g>
</svg>
