<svg xmlns="http://www.w3.org/2000/svg" width="128" height="128" viewBox="0 0 128 128">
  <title>FENCE</title>
  <g>
    <rect x="33.6" y="24.344" width="60.8" height="16.924" fill="#fd3"/>
    <rect x="33.6" y="55.538" width="60.8" height="16.924" fill="#fd3"/>
    <rect x="33.6" y="86.732" width="60.8" height="16.924" fill="#fd3"/>
    <path d="M50.353,121.694V19.953A13.647,13.647,0,0,1,64,6.306h0A13.647,13.647,0,0,1,77.647,19.953V121.694Z" fill="#9e5410"/>
    <path d="M6.306,121.694V19.953A13.647,13.647,0,0,1,19.953,6.306h0A13.647,13.647,0,0,1,33.6,19.953V121.694Z" fill="#9e5410"/>
    <path d="M94.4,121.694V19.953A13.647,13.647,0,0,1,108.047,6.306h0a13.647,13.647,0,0,1,13.647,13.647V121.694Z" fill="#9e5410"/>
    <circle cx="64" cy="64" r="3.904" fill="#ffefc2"/>
    <circle cx="64" cy="32.806" r="3.904" fill="#ffefc2"/>
    <circle cx="64" cy="95.194" r="3.904" fill="#ffefc2"/>
    <circle cx="19.953" cy="64" r="3.904" fill="#ffefc2"/>
    <circle cx="19.953" cy="32.806" r="3.904" fill="#ffefc2"/>
    <circle cx="19.953" cy="95.194" r="3.904" fill="#ffefc2"/>
    <circle cx="108.047" cy="64" r="3.904" fill="#ffefc2"/>
    <circle cx="108.047" cy="32.806" r="3.904" fill="#ffefc2"/>
    <circle cx="108.047" cy="95.194" r="3.904" fill="#ffefc2"/>
    <g>
      <path d="M6.307,101.487a1.75,1.75,0,0,0,1.75-1.75v-4.5a1.75,1.75,0,0,0-3.5,0v4.5A1.749,1.749,0,0,0,6.307,101.487Z" fill="#441d03"/>
      <path d="M121.693,28.377a1.749,1.749,0,0,0,1.75-1.75V19.953a15.4,15.4,0,0,0-30.793,0v2.641H79.4V19.953a15.4,15.4,0,0,0-30.794,0v2.641H35.35V19.953a15.4,15.4,0,0,0-30.793,0v66.63a1.75,1.75,0,0,0,3.5,0V19.953a11.9,11.9,0,0,1,23.793,0v99.99H8.057V107.975a1.75,1.75,0,0,0-3.5,0v13.718a1.749,1.749,0,0,0,1.75,1.75H33.6a1.75,1.75,0,0,0,1.75-1.75V105.406H48.6v16.287a1.75,1.75,0,0,0,1.75,1.75H77.647a1.75,1.75,0,0,0,1.75-1.75V105.406H92.65v16.287a1.75,1.75,0,0,0,1.75,1.75h27.293a1.749,1.749,0,0,0,1.75-1.75V34.305a1.75,1.75,0,1,0-3.5,0v85.638H96.15V19.953a11.9,11.9,0,0,1,23.793,0v6.674A1.75,1.75,0,0,0,121.693,28.377ZM79.4,57.288H92.65V70.712H79.4Zm0-3.5V43.018H92.65v10.77Zm0,20.424H92.65v10.77H79.4ZM92.65,26.094V39.518H79.4V26.094ZM48.6,70.712H35.35V57.288H48.6Zm0-16.924H35.35V43.018H48.6ZM35.35,74.212H48.6v10.77H35.35ZM48.6,26.094V39.518H35.35V26.094ZM35.35,101.906V88.482H48.6v13.424ZM75.9,119.943H52.1V19.953a11.9,11.9,0,0,1,23.794,0Zm3.5-18.037V88.482H92.65v13.424Z" fill="#441d03"/>
      <path d="M64,58.346A5.654,5.654,0,1,0,69.654,64,5.66,5.66,0,0,0,64,58.346Zm0,7.808A2.154,2.154,0,1,1,66.154,64,2.156,2.156,0,0,1,64,66.154Z" fill="#441d03"/>
      <path d="M64,27.151a5.655,5.655,0,1,0,5.654,5.655A5.661,5.661,0,0,0,64,27.151Zm0,7.809a2.155,2.155,0,1,1,2.154-2.154A2.156,2.156,0,0,1,64,34.96Z" fill="#441d03"/>
      <path d="M64,89.54a5.655,5.655,0,1,0,5.654,5.654A5.66,5.66,0,0,0,64,89.54Zm0,7.809a2.155,2.155,0,1,1,2.154-2.155A2.157,2.157,0,0,1,64,97.349Z" fill="#441d03"/>
      <path d="M19.953,69.654A5.654,5.654,0,1,0,14.3,64,5.661,5.661,0,0,0,19.953,69.654Zm0-7.808A2.154,2.154,0,1,1,17.8,64,2.157,2.157,0,0,1,19.953,61.846Z" fill="#441d03"/>
      <path d="M19.953,38.46A5.655,5.655,0,1,0,14.3,32.806,5.661,5.661,0,0,0,19.953,38.46Zm0-7.809A2.155,2.155,0,1,1,17.8,32.806,2.158,2.158,0,0,1,19.953,30.651Z" fill="#441d03"/>
      <path d="M19.953,100.849A5.655,5.655,0,1,0,14.3,95.194,5.662,5.662,0,0,0,19.953,100.849Zm0-7.809A2.155,2.155,0,1,1,17.8,95.194,2.157,2.157,0,0,1,19.953,93.04Z" fill="#441d03"/>
      <path d="M108.047,58.346A5.654,5.654,0,1,0,113.7,64,5.661,5.661,0,0,0,108.047,58.346Zm0,7.808A2.154,2.154,0,1,1,110.2,64,2.157,2.157,0,0,1,108.047,66.154Z" fill="#441d03"/>
      <path d="M108.047,27.151a5.655,5.655,0,1,0,5.654,5.655A5.662,5.662,0,0,0,108.047,27.151Zm0,7.809a2.155,2.155,0,1,1,2.154-2.154A2.157,2.157,0,0,1,108.047,34.96Z" fill="#441d03"/>
      <path d="M108.047,89.54a5.655,5.655,0,1,0,5.654,5.654A5.661,5.661,0,0,0,108.047,89.54Zm0,7.809a2.155,2.155,0,1,1,2.154-2.155A2.158,2.158,0,0,1,108.047,97.349Z" fill="#441d03"/>
    </g>
  </g>
</svg>
