<svg xmlns="http://www.w3.org/2000/svg" width="128" height="128" viewBox="0 0 128 128">
  <title>FERTILIZER</title>
  <g>
    <rect x="11.728" y="6.306" width="80.327" height="10.388" fill="#f9922d"/>
    <rect x="11.728" y="111.306" width="80.327" height="10.388" fill="#f9922d"/>
    <path d="M92.055,16.694s5.422,24.852,5.422,46.9v.822c0,22.043-5.422,46.9-5.422,46.9H11.728S6.306,86.454,6.306,64.411v-.822c0-22.043,5.422-46.895,5.422-46.895Z" fill="#2eb74e"/>
    <path d="M114.918,113.207c.008-.158.024-.313.024-.473a9.459,9.459,0,0,0-8.693-9.425,9.431,9.431,0,0,0-9.3-11.182c-.211,0-.417.018-.625.032a10.361,10.361,0,0,0-20.626,0c-.2-.013-.4-.031-.61-.031a9.436,9.436,0,0,0-9.3,11.182,9.459,9.459,0,0,0-8.692,9.425c0,.16.016.315.023.473a8.709,8.709,0,0,0-6.775,8.487h71.351A8.708,8.708,0,0,0,114.918,113.207Z" fill="#fd3"/>
    <circle cx="50.343" cy="64" r="25.17" fill="#ffefc2"/>
    <path d="M50.343,76.227A12.087,12.087,0,0,0,38.257,64.14,12.087,12.087,0,0,0,50.343,76.227Z" fill="#2eb74e"/>
    <path d="M50.343,63.229a12.086,12.086,0,0,0,0-17.092A12.086,12.086,0,0,0,50.343,63.229Z" fill="#2eb74e"/>
    <path d="M50.343,76.227A12.088,12.088,0,0,1,62.43,64.14,12.088,12.088,0,0,1,50.343,76.227Z" fill="#2eb74e"/>
    <g>
      <path d="M95.293,104.986a1.75,1.75,0,0,0,0,3.5,4.149,4.149,0,0,1,4.144,4.144,1.75,1.75,0,0,0,3.5,0A7.653,7.653,0,0,0,95.293,104.986Z" fill="#441d03"/>
      <path d="M85.107,96.755a7.732,7.732,0,0,0-7.722,7.723,1.75,1.75,0,0,0,3.5,0,4.227,4.227,0,0,1,4.222-4.223,1.75,1.75,0,0,0,0-3.5Z" fill="#441d03"/>
      <path d="M62.43,62.391A13.8,13.8,0,0,0,52.093,67.06V63.9a13.806,13.806,0,0,0-.512-19,1.751,1.751,0,0,0-2.475,0,13.841,13.841,0,0,0-.513,19V67.06a13.789,13.789,0,0,0-10.336-4.669,1.75,1.75,0,0,0-1.75,1.75A13.847,13.847,0,0,0,48.593,77.853v4.01a1.75,1.75,0,0,0,3.5,0v-4.01A13.847,13.847,0,0,0,64.18,64.141,1.75,1.75,0,0,0,62.43,62.391ZM50.344,48.866a10.352,10.352,0,0,1,0,11.634A10.364,10.364,0,0,1,50.344,48.866Zm-10.156,17.2A10.364,10.364,0,0,1,48.413,74.3,10.364,10.364,0,0,1,40.188,66.071ZM52.274,74.3A10.364,10.364,0,0,1,60.5,66.071,10.364,10.364,0,0,1,52.274,74.3Z" fill="#441d03"/>
      <path d="M50.343,37.08A26.92,26.92,0,1,0,77.264,64,26.951,26.951,0,0,0,50.343,37.08Zm0,50.34A23.42,23.42,0,1,1,73.764,64,23.446,23.446,0,0,1,50.343,87.42Z" fill="#441d03"/>
      <path d="M116.661,111.9a11.29,11.29,0,0,0-8.5-10.05c0-.088,0-.176,0-.263A11.227,11.227,0,0,0,97.812,90.41c-.09-.393-.2-.774-.33-1.15a202.079,202.079,0,0,0,1.746-24.849v-.822c0-21.022-4.944-44.829-5.422-47.08V6.307a1.75,1.75,0,0,0-1.75-1.75H35a1.75,1.75,0,0,0,0,3.5H90.306v6.887H13.479V8.057H26.865a1.75,1.75,0,0,0,0-3.5H11.729a1.749,1.749,0,0,0-1.75,1.75v10.2C9.5,18.763,4.557,42.568,4.557,63.589v.822c0,21.021,4.943,44.826,5.422,47.08v10.2a1.749,1.749,0,0,0,1.75,1.75H84.544a1.75,1.75,0,0,0,0-3.5H71.515a4.725,4.725,0,0,1,4.381-2.976,1.75,1.75,0,0,0,0-3.5,8.237,8.237,0,0,0-8.034,6.476H52.312a6.912,6.912,0,0,1,5.194-5.029,1.751,1.751,0,0,0,1.361-1.793l-.012-.193c0-.064-.01-.129-.01-.194a7.745,7.745,0,0,1,7.083-7.68,1.75,1.75,0,0,0,1.581-2.061,7.634,7.634,0,0,1-.135-1.4,7.722,7.722,0,0,1,7.714-7.714c.118,0,.234.009.35.017l.151.01a1.75,1.75,0,0,0,1.851-1.58,8.611,8.611,0,0,1,17.142,0,1.747,1.747,0,0,0,1.857,1.58l.13-.009c.126-.009.252-.019.38-.019a7.682,7.682,0,0,1,7.579,9.116,1.749,1.749,0,0,0,1.58,2.061,7.746,7.746,0,0,1,7.084,7.68c0,.064,0,.126-.009.189l-.013.2a1.751,1.751,0,0,0,1.36,1.793,6.911,6.911,0,0,1,5.194,5.029H105.937a1.75,1.75,0,0,0,0,3.5h15.756a1.749,1.749,0,0,0,1.75-1.75A10.389,10.389,0,0,0,116.661,111.9Zm-67.92,8.039H13.479v-6.887H53.148A10.366,10.366,0,0,0,48.741,119.943Zm37.27-38.9a12.053,12.053,0,0,0-11.8,9.369,11.229,11.229,0,0,0-10.337,11.18c0,.087,0,.175,0,.263a11.311,11.311,0,0,0-8.058,7.7H13.153c-1.111-5.48-5.1-26.462-5.1-45.145v-.822c0-18.683,3.985-39.665,5.1-45.145H90.631c1.11,5.48,5.1,26.462,5.1,45.145v.822a187.639,187.639,0,0,1-1.215,20.1A12.075,12.075,0,0,0,86.011,81.042Z" fill="#441d03"/>
      <path d="M97.7,119.943H93.2a1.75,1.75,0,0,0,0,3.5h4.5a1.75,1.75,0,0,0,0-3.5Z" fill="#441d03"/>
      <path d="M36.749,25.145A1.75,1.75,0,0,0,35,23.4H20.447a1.75,1.75,0,0,0,0,3.5H35A1.751,1.751,0,0,0,36.749,25.145Z" fill="#441d03"/>
      <path d="M42.021,26.9H46a1.75,1.75,0,0,0,0-3.5H42.021a1.75,1.75,0,0,0,0,3.5Z" fill="#441d03"/>
    </g>
  </g>
</svg>
