<svg xmlns="http://www.w3.org/2000/svg" width="128" height="128" viewBox="0 0 128 128">
  <title>FIELDS</title>
  <g>
    <circle cx="64" cy="64" r="57.694" fill="#fd3"/>
    <path d="M112.2,95.7a57.69,57.69,0,0,1-96.4,0,79.57,79.57,0,0,1,96.4,0Z" fill="#2eb74e"/>
    <path d="M64,52.964A12.086,12.086,0,0,0,51.914,40.878,12.086,12.086,0,0,0,64,52.964Z" fill="#2eb74e"/>
    <path d="M64,39.967a12.087,12.087,0,0,0,0-17.093A12.087,12.087,0,0,0,64,39.967Z" fill="#2eb74e"/>
    <path d="M64,52.964A12.086,12.086,0,0,1,76.086,40.878,12.086,12.086,0,0,1,64,52.964Z" fill="#2eb74e"/>
    <path d="M64,67.734A12.087,12.087,0,0,0,51.914,55.647,12.087,12.087,0,0,0,64,67.734Z" fill="#2eb74e"/>
    <path d="M64,67.734A12.087,12.087,0,0,1,76.086,55.647,12.087,12.087,0,0,1,64,67.734Z" fill="#2eb74e"/>
    <path d="M96.013,59.668A12.086,12.086,0,0,0,83.927,47.582,12.086,12.086,0,0,0,96.013,59.668Z" fill="#2eb74e"/>
    <path d="M96.013,46.67a12.086,12.086,0,0,0,0-17.092A12.087,12.087,0,0,0,96.013,46.67Z" fill="#2eb74e"/>
    <path d="M96.013,59.668A12.087,12.087,0,0,1,108.1,47.582,12.086,12.086,0,0,1,96.013,59.668Z" fill="#2eb74e"/>
    <path d="M96.013,74.437A12.086,12.086,0,0,0,83.927,62.351,12.086,12.086,0,0,0,96.013,74.437Z" fill="#2eb74e"/>
    <path d="M96.013,74.437A12.087,12.087,0,0,1,108.1,62.351,12.086,12.086,0,0,1,96.013,74.437Z" fill="#2eb74e"/>
    <path d="M31.987,59.668A12.086,12.086,0,0,1,44.073,47.582,12.086,12.086,0,0,1,31.987,59.668Z" fill="#2eb74e"/>
    <path d="M31.987,46.67a12.086,12.086,0,0,1,0-17.092A12.087,12.087,0,0,1,31.987,46.67Z" fill="#2eb74e"/>
    <path d="M31.987,59.668A12.087,12.087,0,0,0,19.9,47.582,12.086,12.086,0,0,0,31.987,59.668Z" fill="#2eb74e"/>
    <path d="M31.987,74.437A12.086,12.086,0,0,1,44.073,62.351,12.086,12.086,0,0,1,31.987,74.437Z" fill="#2eb74e"/>
    <path d="M31.987,74.437A12.087,12.087,0,0,0,19.9,62.351,12.086,12.086,0,0,0,31.987,74.437Z" fill="#2eb74e"/>
    <g>
      <path d="M8.057,64a55.943,55.943,0,0,1,94.362-40.665,1.75,1.75,0,0,0,2.4-2.544A59.459,59.459,0,0,0,9.168,87,1.75,1.75,0,0,0,12.4,85.64,55.6,55.6,0,0,1,8.057,64Z" fill="#441d03"/>
      <path d="M113.823,96.362a59.357,59.357,0,0,0-3.653-69.806,1.75,1.75,0,0,0-2.716,2.206,55.9,55.9,0,0,1,4.259,64.411,81.332,81.332,0,0,0-13.949-8.166V76.064A13.849,13.849,0,0,0,109.85,62.351a1.75,1.75,0,0,0-1.75-1.75,13.79,13.79,0,0,0-10.336,4.67V61.3A13.849,13.849,0,0,0,109.85,47.582a1.75,1.75,0,0,0-1.75-1.75A13.793,13.793,0,0,0,97.764,50.5V47.34a13.842,13.842,0,0,0-.513-19,1.751,1.751,0,0,0-2.475,0,13.807,13.807,0,0,0-.512,19V50.5a13.794,13.794,0,0,0-10.337-4.67,1.75,1.75,0,0,0-1.75,1.75A13.849,13.849,0,0,0,94.264,61.3v3.976A13.794,13.794,0,0,0,83.927,60.6a1.75,1.75,0,0,0-1.75,1.75A13.849,13.849,0,0,0,94.264,76.064V83.5A80.793,80.793,0,0,0,65.75,77.724V69.361A13.849,13.849,0,0,0,77.836,55.647a1.75,1.75,0,0,0-1.75-1.75A13.791,13.791,0,0,0,65.75,58.568V54.591A13.848,13.848,0,0,0,77.836,40.878a1.75,1.75,0,0,0-1.75-1.75A13.79,13.79,0,0,0,65.75,43.8V40.637a13.841,13.841,0,0,0-.513-19,1.748,1.748,0,0,0-2.474,0,13.841,13.841,0,0,0-.513,19V43.8a13.79,13.79,0,0,0-10.336-4.67,1.75,1.75,0,0,0-1.75,1.75A13.848,13.848,0,0,0,62.25,54.591v3.977A13.791,13.791,0,0,0,51.914,53.9a1.75,1.75,0,0,0-1.75,1.75A13.849,13.849,0,0,0,62.25,69.361v8.363A80.793,80.793,0,0,0,33.736,83.5V76.064A13.849,13.849,0,0,0,45.823,62.351a1.75,1.75,0,0,0-1.75-1.75,13.794,13.794,0,0,0-10.337,4.67V61.3A13.849,13.849,0,0,0,45.823,47.582a1.75,1.75,0,0,0-1.75-1.75A13.794,13.794,0,0,0,33.736,50.5V47.343a13.807,13.807,0,0,0-.512-19,1.751,1.751,0,0,0-2.475,0,13.842,13.842,0,0,0-.513,19V50.5A13.793,13.793,0,0,0,19.9,45.832a1.75,1.75,0,0,0-1.75,1.75A13.849,13.849,0,0,0,30.236,61.3v3.976A13.79,13.79,0,0,0,19.9,60.6a1.75,1.75,0,0,0-1.75,1.75A13.849,13.849,0,0,0,30.236,76.064v8.943A81.3,81.3,0,0,0,16.257,93.2a1.747,1.747,0,0,0-2.917,1.919c.329.534.674,1.064,1.022,1.592.014.019.022.041.037.06l.005,0c.473.714.957,1.42,1.457,2.11a1.75,1.75,0,1,0,2.832-2.057c-.169-.233-.33-.475-.5-.712a77.744,77.744,0,0,1,14.4-8.336,1.589,1.589,0,0,0,.178-.081,78.165,78.165,0,0,1,62.442,0,1.589,1.589,0,0,0,.178.081,77.728,77.728,0,0,1,14.38,8.319,56.322,56.322,0,0,1-6.9,8.073,67.18,67.18,0,0,0-77.784.017c-.15-.145-.306-.282-.455-.429a1.75,1.75,0,0,0-2.463,2.487c.495.49,1.006.959,1.515,1.429a1.705,1.705,0,0,0,.17.16,59.367,59.367,0,0,0,80.152.086,1.73,1.73,0,0,0,.457-.42c.008-.011.013-.024.021-.035a59.842,59.842,0,0,0,9-10.587c.035-.038.076-.068.108-.11A1.759,1.759,0,0,0,113.823,96.362Zm-7.654-32.081a10.364,10.364,0,0,1-8.225,8.225A10.366,10.366,0,0,1,106.169,64.281Zm0-14.769a10.364,10.364,0,0,1-8.225,8.225A10.366,10.366,0,0,1,106.169,49.512Zm-10.156-17.2a10.364,10.364,0,0,1,0,11.634,10.352,10.352,0,0,1,0-11.634Zm-10.155,17.2a10.366,10.366,0,0,1,8.225,8.225A10.364,10.364,0,0,1,85.858,49.512Zm0,14.769a10.366,10.366,0,0,1,8.225,8.225A10.364,10.364,0,0,1,85.858,64.281Zm-43.716,0a10.364,10.364,0,0,1-8.225,8.225A10.366,10.366,0,0,1,42.142,64.281Zm0-14.769a10.364,10.364,0,0,1-8.225,8.225A10.366,10.366,0,0,1,42.142,49.512Zm-10.155-17.2a10.352,10.352,0,0,1,0,11.634A10.364,10.364,0,0,1,31.987,32.307Zm-10.156,17.2a10.366,10.366,0,0,1,8.225,8.225A10.364,10.364,0,0,1,21.831,49.512Zm0,14.769a10.366,10.366,0,0,1,8.225,8.225A10.364,10.364,0,0,1,21.831,64.281Zm52.325-6.7A10.366,10.366,0,0,1,65.931,65.8,10.364,10.364,0,0,1,74.156,57.578Zm0-14.769a10.367,10.367,0,0,1-8.225,8.225A10.364,10.364,0,0,1,74.156,42.809ZM64,25.6a10.368,10.368,0,0,1,0,11.632A10.368,10.368,0,0,1,64,25.6Zm-10.156,17.2a10.364,10.364,0,0,1,8.225,8.225A10.367,10.367,0,0,1,53.844,42.809Zm0,14.769A10.364,10.364,0,0,1,62.069,65.8,10.366,10.366,0,0,1,53.844,57.578ZM64,95.274a63.164,63.164,0,0,1,36.231,11.3,56.159,56.159,0,0,1-9.448,6.525,53.147,53.147,0,0,0-53.59.014,55.88,55.88,0,0,1-9.445-6.524A63.17,63.17,0,0,1,64,95.274ZM40.988,115.006a49.7,49.7,0,0,1,45.986-.018,55.918,55.918,0,0,1-45.986.018Z" fill="#441d03"/>
    </g>
  </g>
</svg>
