<svg xmlns="http://www.w3.org/2000/svg" width="128" height="128" viewBox="0 0 128 128">
  <title>FORK</title>
  <g>
    <rect x="50.279" y="42.378" width="61.836" height="8.85" transform="translate(-9.313 71.123) rotate(-45)" fill="#f9922d"/>
    <rect x="101.763" y="4.309" width="8.85" height="35.005" transform="translate(196.698 -37.851) rotate(135)" fill="#ea4a42"/>
    <rect x="91.653" y="25.239" width="13.364" height="8.853" transform="translate(7.825 78.222) rotate(-45)" fill="#ea4a42"/>
    <path d="M6.307,95.711,34.272,75.837a3.514,3.514,0,0,1,4.9,4.9L19.3,108.7,47.263,88.828a3.514,3.514,0,0,1,4.9,4.9L32.289,121.693l9.345-7.16a121.294,121.294,0,0,0,12-10.519l9.329-9.329a7,7,0,0,0,0-9.9L43.215,65.033a7,7,0,0,0-9.9,0l-9.329,9.329a121.294,121.294,0,0,0-10.519,12Z" fill="#ffefc2"/>
    <path d="M49.962,71.78l6.244-6.244,6.258,6.258L56.22,78.038l-2.7,2.475a4.268,4.268,0,0,1-5.9-.13h0a4.268,4.268,0,0,1-.13-5.9Z" fill="#ea4a42"/>
    <g>
      <path d="M114.336,26.176a1.75,1.75,0,0,0,2.475-2.474l-3.181-3.181A1.75,1.75,0,0,0,111.155,23Z" fill="#441d03"/>
      <path d="M122.931,29.822a1.749,1.749,0,0,0-2.475,0l-5.02,5.02L101.169,20.575h0l-8.01-8.01L96.94,8.781l8.39,8.389a1.75,1.75,0,0,0,2.475-2.474L98.178,5.069a1.751,1.751,0,0,0-2.475,0l-6.258,6.258a1.752,1.752,0,0,0,0,2.475l8.011,8.01-8.209,8.21-.006,0,0,0L54.969,64.3l-5.007,5.006-5.51-5.51a8.749,8.749,0,0,0-12.374,0l-1.634,1.633A1.75,1.75,0,0,0,32.919,67.9l1.634-1.634a5.25,5.25,0,0,1,7.425,0l5.562,5.563L46.2,73.3a6.018,6.018,0,0,0,8.5,8.5l1.467-1.344,5.564,5.563a5.258,5.258,0,0,1,0,7.426l-9.33,9.329a119.8,119.8,0,0,1-11.83,10.367l-.129.1,13.149-18.5A5.265,5.265,0,0,0,46.249,87.4l-19.53,13.88L40.6,81.751a5.264,5.264,0,0,0-7.341-7.34l-18.5,13.148.1-.129A119.883,119.883,0,0,1,25.223,75.6l2.267-2.268a1.75,1.75,0,1,0-2.474-2.475l-2.268,2.268A123.579,123.579,0,0,0,12.077,85.3L4.918,94.647a1.75,1.75,0,0,0,2.4,2.491L35.285,77.263a1.765,1.765,0,0,1,2.46,2.461L17.871,107.688a1.75,1.75,0,0,0,2.441,2.44L48.276,90.254a1.765,1.765,0,0,1,2.46,2.461L30.862,120.68a1.751,1.751,0,0,0,2.492,2.4l9.345-7.161a123.349,123.349,0,0,0,12.176-10.671l9.33-9.329a8.761,8.761,0,0,0,0-12.374l-5.511-5.51L63.7,73.032l42.487-42.488,8.01,8.01a1.749,1.749,0,0,0,2.475,0l6.258-6.258A1.75,1.75,0,0,0,122.931,29.822ZM90.479,33.738l3.783,3.783-31.8,31.8-3.783-3.782ZM55.015,76.768l-2.679,2.454a2.518,2.518,0,0,1-3.558-3.557l2.459-2.685,4.969-4.969,3.783,3.783ZM96.737,35.047l-3.783-3.783,6.977-6.977,3.783,3.783Z" fill="#441d03"/>
    </g>
  </g>
</svg>
