<svg xmlns="http://www.w3.org/2000/svg" width="128" height="128" viewBox="0 0 128 128">
  <title>GLOVE</title>
  <g>
    <rect x="47.263" y="97.639" width="60.849" height="24.054" fill="#ea4a42"/>
    <path d="M54.132,104.508H77.918a5.158,5.158,0,0,1,5.159,5.158h0a5.159,5.159,0,0,1-5.159,5.159H54.132Z" fill="#ffefc2"/>
    <path d="M108.113,97.639v-62.7a7.606,7.606,0,1,0-15.212,0V20.922a7.607,7.607,0,1,0-15.213,0V13.913a7.606,7.606,0,1,0-15.212,0V27.93a7.607,7.607,0,0,0-15.213,0V64L31.937,52.668A7.558,7.558,0,0,0,21.406,63.29L47.263,97.639Z" fill="#fd3"/>
    <g>
      <path d="M77.918,116.575a6.909,6.909,0,1,0,0-13.817H54.132a1.749,1.749,0,0,0-1.75,1.75v10.317a1.749,1.749,0,0,0,1.75,1.75ZM55.882,106.258H77.918a3.409,3.409,0,1,1,0,6.817H55.882Z" fill="#441d03"/>
      <path d="M100.507,25.583a9.314,9.314,0,0,0-5.857,2.064V20.922a9.35,9.35,0,0,0-15.215-7.289,9.357,9.357,0,0,0-18.709.28v6.726a9.351,9.351,0,0,0-15.212,7.292v32.6L32.977,51.261A9.308,9.308,0,0,0,20.008,64.343L45.514,98.225v7.165a1.75,1.75,0,0,0,3.5,0v-6h57.349v20.553H49.014v-6.877a1.75,1.75,0,0,0-3.5,0v8.627a1.749,1.749,0,0,0,1.75,1.75h60.849a1.749,1.749,0,0,0,1.75-1.75V63.723a1.75,1.75,0,0,0-3.5,0v3.859H83.077a1.75,1.75,0,0,0-1.558.953L67.533,95.89h-19.4L22.805,62.238A5.807,5.807,0,0,1,30.9,54.075L46.224,65.407A1.749,1.749,0,0,0,49.014,64V27.931a5.856,5.856,0,1,1,11.712,0V51.973a1.75,1.75,0,0,0,3.5,0V13.913a5.856,5.856,0,0,1,11.712,0V48.736a1.75,1.75,0,1,0,3.5,0V20.922a5.856,5.856,0,1,1,11.712,0V51.973a1.75,1.75,0,0,0,3.5,0V34.939a5.857,5.857,0,0,1,11.713,0V42.33a1.75,1.75,0,0,0,3.5,0V34.939A9.366,9.366,0,0,0,100.507,25.583Zm-16.36,45.5h22.216V95.89h-34.9Z" fill="#441d03"/>
      <path d="M108.113,49.236a1.75,1.75,0,0,0-1.75,1.75v4.5a1.75,1.75,0,1,0,3.5,0v-4.5A1.75,1.75,0,0,0,108.113,49.236Z" fill="#441d03"/>
      <path d="M43.6,79.755a1.751,1.751,0,0,0-.292,2.458l7.225,9.174a1.75,1.75,0,1,0,2.75-2.166l-7.225-9.174A1.75,1.75,0,0,0,43.6,79.755Z" fill="#441d03"/>
      <path d="M37.322,71.78a1.752,1.752,0,0,0-.292,2.458l2.143,2.721a1.75,1.75,0,1,0,2.75-2.166L39.78,72.072A1.75,1.75,0,0,0,37.322,71.78Z" fill="#441d03"/>
    </g>
  </g>
</svg>
