<svg xmlns="http://www.w3.org/2000/svg" width="128" height="128" viewBox="0 0 128 128">
  <title>GOAT</title>
  <g>
    <path d="M86.154,34.062v0A34.083,34.083,0,0,1,97.9,54.33l.014.023c17.14.12,23.785-15.362,23.785-15.362C104.2,23.848,86.154,34.062,86.154,34.062Z" fill="#f9922d"/>
    <path d="M91.033,39.061l.026.046a34.04,34.04,0,0,1,5.15,9.075l.02.035c12.613,0,16.8-7.293,16.8-7.293C104.8,33.638,91.033,39.061,91.033,39.061Z" fill="#ea4a42"/>
    <path d="M41.846,34.062v0A34.083,34.083,0,0,0,30.105,54.33l-.014.023c-17.14.12-23.785-15.362-23.785-15.362C23.8,23.848,41.846,34.062,41.846,34.062Z" fill="#f9922d"/>
    <path d="M36.967,39.061l-.026.046a34.04,34.04,0,0,0-5.15,9.075l-.02.035c-12.613,0-16.8-7.293-16.8-7.293C23.205,33.638,36.967,39.061,36.967,39.061Z" fill="#ea4a42"/>
    <path d="M86.151,34.06l0,0s2.581-22.585,26.218-22.784c0,0-30.334-18.3-42.237,15.334l-.021.055.019.008A33.789,33.789,0,0,1,86.151,34.06Z" fill="#9e5410"/>
    <path d="M41.846,34.062l0,0a33.789,33.789,0,0,1,16.018-7.385l.019-.008-.021-.055C45.962-7.027,15.628,11.278,15.628,11.278,39.265,11.477,41.846,34.062,41.846,34.062Z" fill="#9e5410"/>
    <path d="M64,121.694s14.927.155,19.4-17.261a41.829,41.829,0,0,1,7.745-15.127,34.519,34.519,0,0,0,7.28-21.3v-7.74A34.041,34.041,0,0,0,64.744,26.194q-.369,0-.744,0t-.744,0A34.041,34.041,0,0,0,29.579,60.267v7.74a34.519,34.519,0,0,0,7.28,21.3A41.829,41.829,0,0,1,44.6,104.433C49.073,121.849,64,121.694,64,121.694Z" fill="#f9922d"/>
    <g>
      <circle cx="45.064" cy="63.488" r="5.154" fill="#ffefc2"/>
      <circle cx="82.936" cy="63.488" r="5.154" fill="#ffefc2"/>
    </g>
    <g>
      <path d="M51.969,63.488a6.9,6.9,0,1,0-6.905,6.9A6.913,6.913,0,0,0,51.969,63.488Zm-10.309,0a3.4,3.4,0,1,1,3.4,3.4A3.409,3.409,0,0,1,41.66,63.488Z" fill="#441d03"/>
      <path d="M89.84,63.488a6.9,6.9,0,1,0-6.9,6.9A6.913,6.913,0,0,0,89.84,63.488Zm-10.309,0a3.4,3.4,0,1,1,3.405,3.4A3.41,3.41,0,0,1,79.531,63.488Z" fill="#441d03"/>
      <path d="M46.3,104a1.75,1.75,0,1,0-3.391.868,32.039,32.039,0,0,0,1.225,3.8,1.75,1.75,0,0,0,3.256-1.285A28.669,28.669,0,0,1,46.3,104Z" fill="#441d03"/>
      <path d="M122.839,37.667a36.024,36.024,0,0,0-12.229-7.1,1.75,1.75,0,0,0-1.1,3.323,31.983,31.983,0,0,1,9.994,5.551c-1.812,3.283-7.982,12.545-20.179,13.131-.2-.911-.432-1.81-.7-2.694,11.632-.851,15.738-7.772,15.918-8.086a1.75,1.75,0,0,0-.358-2.18c-7.568-6.7-18.957-3.783-22.626-2.592q-1.091-1.275-2.293-2.445a31.124,31.124,0,0,1,13.24-2.064,1.75,1.75,0,1,0,.242-3.492,34.353,34.353,0,0,0-14.182,2.066,28.31,28.31,0,0,1,2.65-6.376,1.754,1.754,0,0,0,.33-.564,22.682,22.682,0,0,1,6.218-6.779l.035-.026a24.86,24.86,0,0,1,14.587-4.314,1.75,1.75,0,0,0,.889-3.248C112.7,9.432,99,1.307,85.874,6.006c-.1.035-.193.078-.291.115a1.749,1.749,0,0,0-.174.069A25.048,25.048,0,0,0,74.155,15a1.906,1.906,0,0,0-.141.193,41.176,41.176,0,0,0-5.047,9.544,35.58,35.58,0,0,0-4.2-.3l-.762,0-.76,0a35.631,35.631,0,0,0-4.208.3,41.008,41.008,0,0,0-5.05-9.551,1.754,1.754,0,0,0-.115-.157A25.057,25.057,0,0,0,42.591,6.19a1.749,1.749,0,0,0-.174-.069c-.1-.037-.193-.08-.291-.115C29,1.308,15.3,9.432,14.725,9.78a1.75,1.75,0,0,0,.889,3.248A24.861,24.861,0,0,1,30.2,17.34c.014.009.025.019.039.028a22.689,22.689,0,0,1,6.217,6.778,1.748,1.748,0,0,0,.33.565,28.3,28.3,0,0,1,2.66,6.412c-6.253-2.272-20.53-5.36-34.283,6.544A1.752,1.752,0,0,0,4.7,39.681c.069.159,6.774,15.322,23.39,16.363a35.905,35.905,0,0,0-.259,4.223v7.74a36.433,36.433,0,0,0,7.652,22.378,44.593,44.593,0,0,1,4.754,7.433,1.75,1.75,0,1,0,3.127-1.572,48.2,48.2,0,0,0-5.125-8.019,32.912,32.912,0,0,1-6.908-20.22v-7.74A32.378,32.378,0,0,1,63.273,27.944l.727,0,.729,0A32.378,32.378,0,0,1,96.671,60.267v7.74a32.917,32.917,0,0,1-6.908,20.221A43.092,43.092,0,0,0,81.7,104c-3.221,12.555-12.125,15.223-15.95,15.79V99.259a11.465,11.465,0,0,1,8.711-7.924,1.749,1.749,0,1,0-.719-3.424A14.6,14.6,0,0,0,64,94.708a14.6,14.6,0,0,0-9.742-6.8,1.749,1.749,0,1,0-.719,3.424,11.4,11.4,0,0,1,8.711,7.923v20.519a18.447,18.447,0,0,1-11.479-6.532,1.75,1.75,0,0,0-2.707,2.218,21.758,21.758,0,0,0,15.882,7.98h.035a20.978,20.978,0,0,0,8.822-2.282c4.241-2.114,9.815-6.656,12.288-16.292a39.6,39.6,0,0,1,7.428-14.484,36.433,36.433,0,0,0,7.652-22.378v-7.74a35.936,35.936,0,0,0-.259-4.224C116.526,55,123.233,39.84,123.3,39.681A1.752,1.752,0,0,0,122.839,37.667ZM43,31.027a33.468,33.468,0,0,0-2.952-7.473,11,11,0,0,1,11.432-5.839,37.679,37.679,0,0,1,4.05,7.658A35.538,35.538,0,0,0,43,31.027Zm-7.813-22.9a13.659,13.659,0,0,0-4.762,5.214,26.306,26.306,0,0,0-8.2-3.146A32.452,32.452,0,0,1,35.183,8.131Zm-1.869,7.223a10.19,10.19,0,0,1,8.223-5.818,20.492,20.492,0,0,1,7,4.652A14.112,14.112,0,0,0,37.96,20.257,26.065,26.065,0,0,0,33.314,15.354ZM8.486,39.449c12.674-10.223,25.27-6.891,30.269-4.891q-1.214,1.178-2.313,2.464c-3.67-1.191-15.059-4.108-22.627,2.592a1.75,1.75,0,0,0-.358,2.18c.18.314,4.285,7.236,15.918,8.086-.269.884-.5,1.784-.7,2.7C16.359,52,10.277,42.758,8.486,39.449Zm22.129,6.989C23,46.147,19.053,43.013,17.424,41.243,22.888,37.6,30.471,38.991,34.15,40A35.959,35.959,0,0,0,30.615,46.438Zm79.961-5.2c-1.635,1.775-5.584,4.905-13.191,5.2A35.84,35.84,0,0,0,93.847,40C97.521,38.984,105.1,37.586,110.576,41.242ZM90.041,20.258a14.117,14.117,0,0,0-10.578-6.072,20.518,20.518,0,0,1,7-4.65,10.253,10.253,0,0,1,8.222,5.82A26.085,26.085,0,0,0,90.041,20.258ZM105.783,10.2a26.251,26.251,0,0,0-8.2,3.146A13.66,13.66,0,0,0,92.816,8.13,32.427,32.427,0,0,1,105.783,10.2ZM76.521,17.71a10.905,10.905,0,0,1,11.435,5.845A33.561,33.561,0,0,0,85,31.027a35.518,35.518,0,0,0-12.533-5.655A37.381,37.381,0,0,1,76.521,17.71Z" fill="#441d03"/>
    </g>
  </g>
</svg>
