<svg xmlns="http://www.w3.org/2000/svg" width="128" height="128" viewBox="0 0 128 128">
  <title>HARVEST</title>
  <g>
    <path d="M85.1,121.694V72.322A39.411,39.411,0,0,0,57.664,34.777H33.737A39.412,39.412,0,0,0,6.306,72.322v49.372Z" fill="#f9922d"/>
    <rect x="28.442" y="26.048" width="34.517" height="8.729" rx="4.364" fill="#ea4a42"/>
    <path d="M57.664,26.048,68.656,9.461l-.143-.089a14.587,14.587,0,0,0-15.528.089h0a9.988,9.988,0,0,0-14.569,0h0a14.585,14.585,0,0,0-15.527-.089l-.143.089L33.737,26.048Z" fill="#f9922d"/>
    <circle cx="85.096" cy="79.906" r="13.18" fill="#2eb74e"/>
    <path d="M85.1,93.086a13.181,13.181,0,0,1,26.361,0Z" fill="#2eb74e"/>
    <path d="M58.735,93.086a13.181,13.181,0,0,1,26.361,0Z" fill="#2eb74e"/>
    <rect x="48.497" y="93.086" width="73.196" height="6.802" rx="3.401" fill="#ea4a42"/>
    <path d="M116.858,99.889s-3.609,21.805-31.763,21.805S53.333,99.889,53.333,99.889Z" fill="#fd3"/>
    <g>
      <path d="M118.293,91.336h-5.2A14.949,14.949,0,0,0,99.928,78.253,14.94,14.94,0,0,0,86.174,65.03a41.35,41.35,0,0,0-23.43-30.139,6.1,6.1,0,0,0-2.068-10.22l2.045-3.085A1.75,1.75,0,0,0,59.8,19.653L56.724,24.3H34.677L25.26,10.086a12.917,12.917,0,0,1,12.216.851,1.749,1.749,0,0,0,2.216-.279,8.241,8.241,0,0,1,12.017,0,1.75,1.75,0,0,0,2.217.279,12.916,12.916,0,0,1,12.216-.851l-2.357,3.558A1.75,1.75,0,0,0,66.7,15.577l3.411-5.15a1.748,1.748,0,0,0-.537-2.453l-.141-.088a16.433,16.433,0,0,0-16.2-.592A11.606,11.606,0,0,0,45.7,4.557h0a11.613,11.613,0,0,0-7.54,2.737,16.432,16.432,0,0,0-16.194.591l-.143.089a1.749,1.749,0,0,0-.537,2.454l9.438,14.243a6.1,6.1,0,0,0-2.092,10.2A40.988,40.988,0,0,0,4.557,72.322v49.371a1.749,1.749,0,0,0,1.75,1.75H19.526a1.75,1.75,0,0,0,0-3.5H8.057V72.322A37.509,37.509,0,0,1,34.025,36.527H57.364A37.816,37.816,0,0,1,82.65,65.194,14.947,14.947,0,0,0,70.262,78.253,14.949,14.949,0,0,0,57.1,91.336H51.9a5.152,5.152,0,0,0,0,10.3h.068a28.841,28.841,0,0,0,2.526,6,1.756,1.756,0,0,0,.447.764,29.207,29.207,0,0,0,5.845,7.014,1.742,1.742,0,0,0,.666.57,29.781,29.781,0,0,0,6.29,3.958H40.919a1.75,1.75,0,0,0,0,3.5H85.1c11.125,0,18.618-3.323,23.644-7.457a1.761,1.761,0,0,0,.67-.573,29.219,29.219,0,0,0,5.841-7.012,1.744,1.744,0,0,0,.447-.765,28.76,28.76,0,0,0,2.526-6h.069a5.152,5.152,0,0,0,0-10.3ZM32.807,27.8H58.6a2.615,2.615,0,0,1,0,5.229H32.807a2.615,2.615,0,1,1,0-5.229Zm76.751,63.538H86.994a11.415,11.415,0,0,1,22.564,0ZM85.1,68.476a11.437,11.437,0,0,1,11.3,9.812,14.951,14.951,0,0,0-11.3,7.8,14.954,14.954,0,0,0-11.3-7.8A11.44,11.44,0,0,1,85.1,68.476ZM71.915,81.656A11.438,11.438,0,0,1,83.2,91.336H60.634A11.437,11.437,0,0,1,71.915,81.656Zm14.931,34.516h15.42a35.1,35.1,0,0,1-15.42,3.737Zm-3.5,3.73a35.273,35.273,0,0,1-15.442-3.73H83.346Zm-20.52-7.23a24.881,24.881,0,0,1-3.471-3.767H83.346v3.767Zm-5.666-7.267a24.318,24.318,0,0,1-1.572-3.766H83.346v3.766Zm50.151,7.267H86.846v-3.767H110.78c-.2.261-.393.522-.605.783A25.445,25.445,0,0,1,107.311,112.672Zm5.674-7.267H86.846v-3.766h27.739A25.021,25.021,0,0,1,112.985,105.405Zm5.308-7.266H51.9a1.652,1.652,0,0,1,0-3.3h66.4a1.652,1.652,0,0,1,0,3.3Z" fill="#441d03"/>
      <path d="M32.682,119.943h-4.5a1.75,1.75,0,0,0,0,3.5h4.5a1.75,1.75,0,0,0,0-3.5Z" fill="#441d03"/>
      <path d="M21.574,54.7a1.752,1.752,0,0,0-2.424.5,31.627,31.627,0,0,0-5.2,17.427v3.111a1.75,1.75,0,0,0,3.5,0V72.624a28.137,28.137,0,0,1,4.629-15.5A1.749,1.749,0,0,0,21.574,54.7Z" fill="#441d03"/>
      <path d="M29.634,47.218a1.75,1.75,0,0,0-2.442-.4,32.277,32.277,0,0,0-3.359,2.78,1.75,1.75,0,1,0,2.41,2.538,28.7,28.7,0,0,1,2.99-2.475A1.749,1.749,0,0,0,29.634,47.218Z" fill="#441d03"/>
    </g>
  </g>
</svg>
