<svg xmlns="http://www.w3.org/2000/svg" width="128" height="128" viewBox="0 0 128 128">
  <title>HOE</title>
  <g>
    <rect x="3.486" y="47.8" width="121.029" height="8.85" transform="translate(-18.184 60.551) rotate(-45)" fill="#f9922d"/>
    <rect x="16.169" y="78.418" width="34.433" height="8.849" transform="translate(-48.793 47.854) rotate(-44.988)" fill="#ea4a42"/>
    <polygon points="28.637 93.846 73.906 121.694 73.906 77.895 44.589 77.895 28.637 93.846" fill="#ffefc2"/>
    <g>
      <path d="M84.025,27.692a1.747,1.747,0,0,0,1.238-.512L88.443,24a1.75,1.75,0,0,0-2.474-2.475l-3.181,3.181a1.75,1.75,0,0,0,1.237,2.987Z" fill="#441d03"/>
      <path d="M49.925,75.033h0L111.156,13.8a1.749,1.749,0,0,0,0-2.475L104.9,5.069a1.75,1.75,0,0,0-2.474,0L92.09,15.4a1.75,1.75,0,0,0,2.474,2.475l9.1-9.1,3.783,3.782L48.687,71.321,44.9,67.538,79.437,33.005a1.75,1.75,0,0,0-2.474-2.475L16.844,90.649a1.749,1.749,0,0,0,0,2.475L23.1,99.382a1.748,1.748,0,0,0,2.474,0L28.9,96.06l44.091,27.124a1.75,1.75,0,0,0,2.667-1.491V110.749a1.75,1.75,0,0,0-3.5,0v7.814l-8.448-5.2V79.645h8.448v23.426a1.75,1.75,0,0,0,3.5,0V77.9a1.749,1.749,0,0,0-1.75-1.75H48.813l1.11-1.111ZM24.339,95.67l-3.783-3.783L42.43,70.013,46.213,73.8l-2.859,2.858-.006.006L27.363,92.646l0,0ZM60.208,79.645v31.568l-28.767-17.7L45.313,79.645Z" fill="#441d03"/>
    </g>
  </g>
</svg>
