<svg xmlns="http://www.w3.org/2000/svg" width="128" height="128" viewBox="0 0 128 128">
  <title>HORSE SHOE</title>
  <g>
    <path d="M41.445,26.5v44.26A22.555,22.555,0,0,0,64,93.319h0A22.555,22.555,0,0,0,86.555,70.764V26.5H99.61a187.022,187.022,0,0,0,8.71,20.249c6.579,13.539,9.08,28.679,3.788,42.771h0a49.614,49.614,0,0,1-46.446,32.17H62.338a49.614,49.614,0,0,1-46.446-32.17h0C10.6,75.432,13.1,60.292,19.68,46.753A187.022,187.022,0,0,0,28.39,26.5Z" fill="#fd3"/>
    <path d="M97.57,110.05q-1.77,1.5-3.66,2.81a49.5,49.5,0,0,1-28.25,8.83H62.34a49.524,49.524,0,0,1-31.91-11.64L51.17,89.31a22.53,22.53,0,0,0,25.66,0Z" fill="#ea4a42"/>
    <rect x="86.555" y="6.306" width="21.543" height="20.197" fill="#ea4a42"/>
    <rect x="19.902" y="6.306" width="21.543" height="20.197" fill="#ea4a42"/>
    <g>
      <path d="M41.547,115.193c-1.193-.576-2.367-1.2-3.489-1.866a1.751,1.751,0,0,0-1.779,3.016c1.2.71,2.466,1.384,3.746,2a1.751,1.751,0,0,0,1.522-3.153Z" fill="#441d03"/>
      <path d="M109.894,45.988c-4.144-8.525-6.611-14.639-7.785-17.734H108.1a1.75,1.75,0,0,0,1.75-1.75V6.307a1.75,1.75,0,0,0-1.75-1.75h-4.447a1.75,1.75,0,0,0,0,3.5h2.7v16.7H88.305V8.057h7.67a1.75,1.75,0,0,0,0-3.5h-9.42a1.749,1.749,0,0,0-1.75,1.75V70.765a20.805,20.805,0,0,1-41.61,0V6.307a1.749,1.749,0,0,0-1.75-1.75H19.9a1.75,1.75,0,0,0-1.75,1.75V26.5a1.75,1.75,0,0,0,1.75,1.75h5.989c-1.174,3.095-3.641,9.209-7.784,17.734C12.848,56.809,7.912,73.251,14.254,90.139a51.45,51.45,0,0,0,14.883,21.124c.012.013.02.028.033.041a1.742,1.742,0,0,0,1.237.512c.051,0,.1-.01.151-.014l.015,0a1.616,1.616,0,0,0,.3-.055l.049-.014a1.681,1.681,0,0,0,.248-.1q.044-.021.087-.045a1.875,1.875,0,0,0,.188-.121c.04-.03.077-.061.115-.094s.058-.043.085-.069L51.4,91.544a24.267,24.267,0,0,0,25.192,0L94.932,109.88a47.9,47.9,0,0,1-29.27,10.063H62.338a47.814,47.814,0,0,1-13.874-2.051,1.75,1.75,0,0,0-1.015,3.349,51.3,51.3,0,0,0,14.889,2.2h3.324a51.44,51.44,0,0,0,32.656-11.79,1.658,1.658,0,0,0,.721-.605,51.171,51.171,0,0,0,14.708-20.909C120.088,73.252,115.151,56.809,109.894,45.988ZM21.652,8.057H39.7v16.7H21.652ZM40.279,97.72A34.2,34.2,0,0,1,36.2,93.581a1.75,1.75,0,1,0-2.7,2.231,37.765,37.765,0,0,0,4.288,4.393l-7.445,7.445A47.936,47.936,0,0,1,17.53,88.908c-5.905-15.723-1.234-31.187,3.724-41.39a209.2,209.2,0,0,0,8.374-19.264h3.2l-1.047,5.812A1.75,1.75,0,0,0,33.187,36.1a1.855,1.855,0,0,0,.313.027,1.75,1.75,0,0,0,1.72-1.439l1.16-6.434H39.7V70.765a24.263,24.263,0,0,0,8.82,18.718Zm70.19-8.812a47.634,47.634,0,0,1-12.837,18.723L90.205,100.2a37.733,37.733,0,0,0,4.462-4.6,1.75,1.75,0,0,0-2.713-2.211,34.274,34.274,0,0,1-4.234,4.328l-8.236-8.236a24.261,24.261,0,0,0,8.821-18.718V28.254H91.62l.891,4.946a1.75,1.75,0,0,0,3.445-.621l-.779-4.325h3.194a209.8,209.8,0,0,0,8.374,19.264C111.7,57.722,116.375,73.186,110.469,88.908Z" fill="#441d03"/>
      <path d="M100.877,76.553a1.74,1.74,0,0,0-1.985,1.477,28.908,28.908,0,0,1-1.531,5.961c-.162.434-.334.863-.513,1.286a1.749,1.749,0,1,0,3.22,1.369c.2-.472.393-.95.572-1.429a32.394,32.394,0,0,0,1.714-6.679A1.749,1.749,0,0,0,100.877,76.553Z" fill="#441d03"/>
      <path d="M97.736,52.327a1.751,1.751,0,0,0,1.412-2.033l-1.419-7.873a1.75,1.75,0,1,0-3.445.621L95.7,50.915a1.755,1.755,0,0,0,2.033,1.412Z" fill="#441d03"/>
      <path d="M97.477,60.757l1.362,7.558.01.048.027.2a1.749,1.749,0,0,0,1.731,1.506,1.869,1.869,0,0,0,.246-.016,1.752,1.752,0,0,0,1.49-1.977l-.045-.314a1.716,1.716,0,0,0-.034-.179l-1.342-7.445a1.75,1.75,0,0,0-3.445.621Z" fill="#441d03"/>
      <path d="M32.035,42.5A1.757,1.757,0,0,0,30,43.908l-1.419,7.873a1.75,1.75,0,1,0,3.445.621l1.419-7.873A1.751,1.751,0,0,0,32.035,42.5Z" fill="#441d03"/>
      <path d="M27.128,70.31a2,2,0,0,0,.23.014A1.75,1.75,0,0,0,29.091,68.8c.018-.144.038-.287.058-.43l.011-.056,1.094-6.071a1.75,1.75,0,1,0-3.444-.621l-.935,5.185a1.817,1.817,0,0,0-.075.3q-.1.618-.18,1.241A1.751,1.751,0,0,0,27.128,70.31Z" fill="#441d03"/>
      <path d="M30.636,83.986a28.835,28.835,0,0,1-1.492-5.714,1.75,1.75,0,0,0-3.459.536,32.39,32.39,0,0,0,1.674,6.409c.213.566.44,1.127.679,1.679a1.75,1.75,0,0,0,3.212-1.391Q30.925,84.757,30.636,83.986Z" fill="#441d03"/>
    </g>
  </g>
</svg>
