<svg xmlns="http://www.w3.org/2000/svg" width="128" height="128" viewBox="0 0 128 128">
  <title>JAM</title>
  <g>
    <path d="M95.808,25.33l9.371,12.64a30,30,0,0,1,5.9,17.867v52.857a13,13,0,0,1-13,13H29.92a13,13,0,0,1-13-13V55.837a30,30,0,0,1,5.9-17.867l9.371-12.64Z" fill="#ea4a42"/>
    <rect x="24.868" y="6.306" width="78.264" height="19.023" rx="6.001" fill="#fd3"/>
    <path d="M16.92,66.937h15.1V60a10,10,0,0,1,10-10H85.98a10,10,0,0,1,10,10v6.933h15.1V85.9H95.98V93.02a10,10,0,0,1-10,10H42.02a10,10,0,0,1-10-10V85.9H16.92Z" fill="#fd3"/>
    <circle cx="55.941" cy="83.713" r="9.841" fill="#ea4a42"/>
    <circle cx="72.059" cy="83.713" r="9.841" fill="#ea4a42"/>
    <g>
      <path d="M84.643,119.943h-4.5a1.75,1.75,0,0,0,0,3.5h4.5a1.75,1.75,0,0,0,0-3.5Z" fill="#441d03"/>
      <path d="M106.585,36.928,99.09,26.819a7.758,7.758,0,0,0,5.792-7.491v-7.02A7.76,7.76,0,0,0,97.13,4.557h-49a1.75,1.75,0,0,0,0,3.5h49a4.256,4.256,0,0,1,4.252,4.251v7.02A4.256,4.256,0,0,1,97.13,23.58H30.87a4.256,4.256,0,0,1-4.252-4.252v-7.02A4.256,4.256,0,0,1,30.87,8.057h9.586a1.75,1.75,0,0,0,0-3.5H30.87a7.76,7.76,0,0,0-7.752,7.751v7.02a7.758,7.758,0,0,0,5.792,7.491l-7.5,10.109A31.961,31.961,0,0,0,15.17,55.837v52.856a14.767,14.767,0,0,0,14.75,14.75H71.907a1.75,1.75,0,0,0,0-3.5H29.92a11.263,11.263,0,0,1-11.25-11.25V87.646h11.6V93.02a11.764,11.764,0,0,0,11.75,11.75H85.98A11.764,11.764,0,0,0,97.73,93.02V87.646h11.6v21.047a11.263,11.263,0,0,1-11.25,11.25H93.3a1.75,1.75,0,0,0,0,3.5h4.78a14.767,14.767,0,0,0,14.75-14.75V55.837A31.961,31.961,0,0,0,106.585,36.928ZM24.227,39.012,33.073,27.08H94.927l8.846,11.932a28.443,28.443,0,0,1,5.557,16.825v9.35H97.73V60a11.763,11.763,0,0,0-11.75-11.75H42.02A11.763,11.763,0,0,0,30.27,60v5.183H18.67v-9.35A28.443,28.443,0,0,1,24.227,39.012ZM95.98,84.146a1.751,1.751,0,0,0-1.75,1.75V93.02a8.26,8.26,0,0,1-8.25,8.25H42.02a8.26,8.26,0,0,1-8.25-8.25V85.9a1.751,1.751,0,0,0-1.75-1.75H18.67V68.687H32.02a1.751,1.751,0,0,0,1.75-1.75V60a8.259,8.259,0,0,1,8.25-8.25H85.98A8.259,8.259,0,0,1,94.23,60v6.933a1.751,1.751,0,0,0,1.75,1.75h13.35V84.146Z" fill="#441d03"/>
      <path d="M72.059,72.122c-.214,0-.422.021-.633.032a30.22,30.22,0,0,0-4.962-8.972,1.757,1.757,0,0,0-.283-.389c-.032-.032-.07-.056-.1-.085a21.978,21.978,0,0,0-5.668-4.757,1.75,1.75,0,0,0-1.744,3.035,18.262,18.262,0,0,1,3.884,3.039,31.769,31.769,0,0,0-5.115,8.2,11.591,11.591,0,1,0,6.559,19.8,11.586,11.586,0,1,0,8.066-19.9Zm-7.235-5.366a27.555,27.555,0,0,1,3.151,6.123,11.6,11.6,0,0,0-3.981,2.527,11.593,11.593,0,0,0-3.173-2.183A28.351,28.351,0,0,1,64.824,66.756ZM47.85,83.714a8.084,8.084,0,0,1,14.012-5.5,11.568,11.568,0,0,0,0,11.009,8.084,8.084,0,0,1-14.011-5.5Zm24.209,8.091a8.092,8.092,0,1,1,8.091-8.091A8.1,8.1,0,0,1,72.059,91.805Z" fill="#441d03"/>
    </g>
  </g>
</svg>
