<svg xmlns="http://www.w3.org/2000/svg" width="128" height="128" viewBox="0 0 128 128">
  <title>LAWN MOWER</title>
  <g>
    <polygon points="66.156 60.728 29.864 24.436 6.306 24.436 6.306 30.495 27.354 30.495 57.587 60.728 66.156 60.728" fill="#fd3"/>
    <polygon points="109.623 71.065 109.623 51.627 79.256 51.627 79.256 60.728 109.623 71.065" fill="#fd3"/>
    <rect x="74.813" y="38.387" width="39.253" height="13.24" rx="3.999" fill="#ea4a42"/>
    <path d="M116.949,73.559,79.256,60.729H45.3V73.2A15.184,15.184,0,0,1,60.487,88.38h54.207a7,7,0,0,0,7-7V80.186A7,7,0,0,0,116.949,73.559Z" fill="#ea4a42"/>
    <circle cx="45.304" cy="88.38" r="15.184" fill="#9e5410"/>
    <circle cx="45.304" cy="88.38" r="6.699" fill="#ffefc2"/>
    <circle cx="94.44" cy="88.38" r="15.184" fill="#9e5410"/>
    <circle cx="94.44" cy="88.38" r="6.699" fill="#ffefc2"/>
    <rect x="6.306" y="60.728" width="38.997" height="12.467" fill="#fd3"/>
    <path d="M45.3,73.2h-39V76.02a12.36,12.36,0,0,0,12.36,12.36H30.12A15.184,15.184,0,0,1,45.3,73.2Z" fill="#ea4a42"/>
    <g>
      <path d="M45.3,79.931a8.449,8.449,0,1,0,8.448,8.449A8.459,8.459,0,0,0,45.3,79.931Zm0,13.4a4.949,4.949,0,1,1,4.948-4.949A4.955,4.955,0,0,1,45.3,93.329Z" fill="#441d03"/>
      <path d="M85.99,88.38a8.45,8.45,0,1,0,8.449-8.449A8.459,8.459,0,0,0,85.99,88.38Zm13.4,0a4.95,4.95,0,1,1-4.95-4.949A4.955,4.955,0,0,1,99.389,88.38Z" fill="#441d03"/>
      <path d="M117.513,71.9l-6.139-2.09V53.221a5.754,5.754,0,0,0,4.442-5.593V42.387a5.756,5.756,0,0,0-5.749-5.75H78.812a5.756,5.756,0,0,0-5.749,5.75v5.241a5.755,5.755,0,0,0,4.442,5.593v5.758H66.88L52.554,44.651a1.75,1.75,0,0,0-2.475,2.475L61.931,58.979H58.312L28.591,29.258a1.75,1.75,0,0,0-1.237-.513h-1.99V26.187h3.775l5.851,5.85a1.749,1.749,0,1,0,2.474-2.474L31.1,23.2a1.749,1.749,0,0,0-1.237-.512H6.307a1.749,1.749,0,0,0-1.75,1.75V30.5a1.749,1.749,0,0,0,1.75,1.75H21.529a3.991,3.991,0,0,1-1.956,2.028l-8.654,4.076a1.75,1.75,0,1,0,1.491,3.166l8.654-4.076a7.51,7.51,0,0,0,4.11-5.194h1.455L53.362,58.979H6.307a1.749,1.749,0,0,0-1.75,1.75V76.021A14.125,14.125,0,0,0,18.666,90.13H28.46a16.934,16.934,0,0,0,33.686,0H77.6a16.941,16.941,0,0,0,25.166,13,1.75,1.75,0,0,0-1.722-3.047,13.436,13.436,0,1,1,4.788-4.575,1.75,1.75,0,1,0,2.964,1.861,16.844,16.844,0,0,0,2.481-7.24h3.42a8.76,8.76,0,0,0,8.75-8.75V80.186A8.745,8.745,0,0,0,117.513,71.9ZM8.057,26.187H21.864v2.558H8.057ZM81.005,59.476v-6.1h26.869V68.622ZM76.563,47.628V42.387a2.252,2.252,0,0,1,2.249-2.25h31.255a2.252,2.252,0,0,1,2.249,2.25v5.241a2.252,2.252,0,0,1-2.249,2.249H78.812A2.252,2.252,0,0,1,76.563,47.628ZM8.057,62.479h35.5v8.967H8.057Zm0,13.542V74.946H35.035A16.918,16.918,0,0,0,28.46,86.63H18.666A10.621,10.621,0,0,1,8.057,76.021ZM45.3,101.813A13.441,13.441,0,0,1,31.885,88.689a1.508,1.508,0,0,0,0-.618A13.428,13.428,0,1,1,45.3,101.813ZM119.943,81.38a5.256,5.256,0,0,1-5.25,5.25h-3.41a16.934,16.934,0,0,0-33.687,0H62.146A16.964,16.964,0,0,0,47.054,71.537V62.479H78.966l37.42,12.738a5.246,5.246,0,0,1,3.557,4.969Z" fill="#441d03"/>
      <path d="M44.269,41.315a1.749,1.749,0,1,0,2.474-2.474L43.57,35.668A1.75,1.75,0,0,0,41.1,38.143Z" fill="#441d03"/>
      <path d="M94.439,48.118a1.749,1.749,0,0,0,1.75-1.75V43.646a1.75,1.75,0,1,0-3.5,0v2.722A1.75,1.75,0,0,0,94.439,48.118Z" fill="#441d03"/>
      <path d="M100.76,48.118a1.75,1.75,0,0,0,1.75-1.75V43.646a1.75,1.75,0,0,0-3.5,0v2.722A1.749,1.749,0,0,0,100.76,48.118Z" fill="#441d03"/>
      <path d="M88.119,48.118a1.75,1.75,0,0,0,1.75-1.75V43.646a1.75,1.75,0,1,0-3.5,0v2.722A1.75,1.75,0,0,0,88.119,48.118Z" fill="#441d03"/>
      <path d="M81.8,48.118a1.75,1.75,0,0,0,1.75-1.75V43.646a1.75,1.75,0,0,0-3.5,0v2.722A1.75,1.75,0,0,0,81.8,48.118Z" fill="#441d03"/>
      <path d="M107.08,48.118a1.75,1.75,0,0,0,1.75-1.75V43.646a1.75,1.75,0,0,0-3.5,0v2.722A1.75,1.75,0,0,0,107.08,48.118Z" fill="#441d03"/>
    </g>
  </g>
</svg>
