<svg xmlns="http://www.w3.org/2000/svg" width="128" height="128" viewBox="0 0 128 128">
  <title>LEAF BLOWER</title>
  <g>
    <path d="M39.341,112.955a29.875,29.875,0,0,1-4.571-5.878l0,0-11.989-2.819A39.565,39.565,0,0,1,28.335,68.6l10.646,2.537.176-.177c.063-.063.121-.13.184-.193l7.312-7.311L27.6,58.912a4.639,4.639,0,0,0-4.612,1.522,48.807,48.807,0,0,0-8,49.444,4.625,4.625,0,0,0,3.229,2.8l12.512,2.982L53.7,120.927l-.012-.009A29.7,29.7,0,0,1,39.341,112.955Z" fill="#fd3"/>
    <path d="M71.906,38.2,39.341,70.764a29.83,29.83,0,1,0,32.012-6.671L84.577,50.869Z" fill="#ea4a42"/>
    <circle cx="60.437" cy="91.859" r="16.184" fill="#ffefc2"/>
    <circle cx="60.437" cy="91.859" r="4.909" fill="#ea4a42"/>
    <polygon points="116.469 13.035 91.828 43.618 79.158 30.948 109.74 6.307 116.469 13.035" fill="#fd3"/>
    <rect x="76.74" y="28.418" width="10.255" height="24.981" transform="translate(-4.948 69.871) rotate(-45)" fill="#fd3"/>
    <g>
      <path d="M117.706,11.8l-6.728-6.729a1.75,1.75,0,0,0-2.336-.125l-6.827,5.5a1.75,1.75,0,1,0,2.2,2.725l5.6-4.515,4.506,4.506L91.688,41l-9.916-9.915,5.544-4.467a1.75,1.75,0,1,0-2.2-2.725l-5.836,4.7L77.9,27.213a1.8,1.8,0,0,0-2.475,0l-7.251,7.252a1.75,1.75,0,0,0,0,2.474L69.431,38.2,46.107,61.523,28,57.21a6.356,6.356,0,0,0-6.357,2.1,50.553,50.553,0,0,0-8.291,51.213,6.378,6.378,0,0,0,4.45,3.855l10.764,2.564a1.75,1.75,0,0,0,.812-3.4l-10.765-2.564a2.881,2.881,0,0,1-2.007-1.74,47.058,47.058,0,0,1,7.711-47.667,2.879,2.879,0,0,1,2.872-.952L43.2,64.429,38.427,69.2,28.741,66.9a1.749,1.749,0,0,0-1.822.672,41.438,41.438,0,0,0-5.8,37.235,1.747,1.747,0,0,0,1.261,1.156l11.283,2.652a31.806,31.806,0,0,0,4.445,5.581c.638.639,1.3,1.24,1.985,1.816l-3.237-.742a1.75,1.75,0,0,0-.783,3.412l16.608,3.809c.141.036.284.064.426.1l.209.048h.01a31.808,31.808,0,0,0,7.115.809A31.589,31.589,0,0,0,74.4,63.523l10.18-10.179,1.259,1.26a1.752,1.752,0,0,0,2.475,0l7.251-7.251a1.749,1.749,0,0,0,0-2.475l-1.385-1.386,23.655-29.359A1.75,1.75,0,0,0,117.706,11.8ZM24.146,102.78a37.942,37.942,0,0,1,4.937-32.2l6.668,1.588a31.609,31.609,0,0,0-4.264,32.343ZM82.1,50.869,70.116,62.855a1.75,1.75,0,0,0,.6,2.867,28.084,28.084,0,0,1-10.277,54.221,28.3,28.3,0,0,1-6.465-.75l-.442-.1a27.907,27.907,0,0,1-12.951-7.373,28.247,28.247,0,0,1-4.313-5.542l-.018-.032A28.106,28.106,0,0,1,40.579,72L71.906,40.673l5.1,5.1Zm4.972.023-1.26-1.26L73.144,36.961l0,0L71.884,35.7l4.777-4.777L91.85,46.115Z" fill="#441d03"/>
      <path d="M92.648,21.829a1.743,1.743,0,0,0,1.1-.388l3.51-2.828a1.749,1.749,0,1,0-2.2-2.724l-3.51,2.828a1.75,1.75,0,0,0,1.1,3.112Z" fill="#441d03"/>
      <path d="M60.437,73.926c-.057,0-.11.011-.166.016A17.907,17.907,0,0,0,42.5,91.85v.019a17.905,17.905,0,0,0,17.767,17.907c.056.005.109.017.166.017s.11-.012.165-.017A17.905,17.905,0,0,0,78.37,91.869V91.85A17.907,17.907,0,0,0,60.6,73.942C60.547,73.937,60.494,73.926,60.437,73.926ZM74.754,90.109h-7.9a6.573,6.573,0,0,0-.644-1.553L71.8,82.973A14.263,14.263,0,0,1,74.754,90.109ZM71.8,100.746l-5.583-5.583a6.581,6.581,0,0,0,.644-1.554h7.9A14.262,14.262,0,0,1,71.8,100.746ZM46.12,93.609h7.9a6.578,6.578,0,0,0,.643,1.554l-5.583,5.583A14.28,14.28,0,0,1,46.12,93.609Zm2.956-10.636,5.583,5.583a6.57,6.57,0,0,0-.643,1.553h-7.9A14.281,14.281,0,0,1,49.076,82.973ZM63.6,91.859a3.158,3.158,0,1,1-.926-2.234A3.141,3.141,0,0,1,63.6,91.859Zm-4.91-6.418a6.636,6.636,0,0,0-1.551.642L51.551,80.5a14.361,14.361,0,0,1,7.136-2.948ZM57.136,97.635a6.639,6.639,0,0,0,1.551.643v7.889a14.347,14.347,0,0,1-7.136-2.947Zm5.051.643a6.622,6.622,0,0,0,1.551-.643l5.585,5.585a14.343,14.343,0,0,1-7.136,2.947Zm1.551-12.2a6.618,6.618,0,0,0-1.551-.642v-7.89A14.353,14.353,0,0,1,69.323,80.5Z" fill="#441d03"/>
    </g>
  </g>
</svg>
