<svg xmlns="http://www.w3.org/2000/svg" width="128" height="128" viewBox="0 0 128 128">
  <title>MILK</title>
  <g>
    <path d="M43.3,21.023V40.449l-6.088,5.844A25,25,0,0,0,29.53,64.328v47.366a10,10,0,0,0,10,10H88.47a10,10,0,0,0,10-10V64.328a25,25,0,0,0-7.686-18.035L84.7,40.449V21.023Z" fill="#f9922d"/>
    <rect x="36.796" y="6.306" width="54.407" height="14.716" rx="5.152" fill="#ea4a42"/>
    <rect x="29.53" y="65.981" width="68.941" height="39.074" fill="#ffefc2"/>
    <g>
      <path d="M92,45.031,86.445,39.7V22.753a6.9,6.9,0,0,0,6.509-6.882V11.458a6.91,6.91,0,0,0-6.9-6.9H55.25a1.75,1.75,0,0,0,0,3.5h30.8a3.405,3.405,0,0,1,3.4,3.4v4.413a3.406,3.406,0,0,1-3.4,3.4h-44.1a3.406,3.406,0,0,1-3.4-3.4V11.458a3.405,3.405,0,0,1,3.4-3.4h5.625a1.75,1.75,0,0,0,0-3.5H41.948a6.91,6.91,0,0,0-6.9,6.9v4.413a6.9,6.9,0,0,0,6.509,6.882V39.7L36,45.031a26.88,26.88,0,0,0-8.224,19.3v47.365a11.763,11.763,0,0,0,11.75,11.75H63.747a1.75,1.75,0,0,0,0-3.5H39.53a8.259,8.259,0,0,1-8.25-8.25v-4.888H96.721v4.888a8.259,8.259,0,0,1-8.25,8.25H85.14a1.75,1.75,0,0,0,0,3.5h3.331a11.764,11.764,0,0,0,11.75-11.75V64.328A26.878,26.878,0,0,0,92,45.031ZM38.428,47.556l6.089-5.844a1.753,1.753,0,0,0,.538-1.263V22.773h37.89V40.449a1.749,1.749,0,0,0,.538,1.262l6.088,5.845a23.355,23.355,0,0,1,7.147,16.675H31.282A23.366,23.366,0,0,1,38.428,47.556ZM31.28,103.305V67.731H96.721v35.574Z" fill="#441d03"/>
      <path d="M76.483,119.943h-4.5a1.75,1.75,0,0,0,0,3.5h4.5a1.75,1.75,0,0,0,0-3.5Z" fill="#441d03"/>
      <path d="M38.459,60.776a1.747,1.747,0,0,0,2.259-1.01q.223-.585.49-1.154a17.131,17.131,0,0,1,3.677-5.136l4.62-4.436a1.75,1.75,0,1,0-2.423-2.525l-4.621,4.436a20.631,20.631,0,0,0-4.424,6.179q-.319.682-.588,1.388A1.748,1.748,0,0,0,38.459,60.776Z" fill="#441d03"/>
      <polygon points="43.295 86.55 38.355 77.551 34.945 77.551 34.945 93.485 38.355 93.485 38.355 83.559 43.295 92.558 48.212 83.559 48.212 93.485 51.644 93.485 51.644 77.551 48.212 77.551 43.295 86.55" fill="#441d03"/>
      <rect x="56.115" y="77.551" width="3.433" height="15.934" fill="#441d03"/>
      <polygon points="67.198 77.551 63.766 77.551 63.766 93.485 75.131 93.485 75.131 90.401 67.198 90.401 67.198 77.551" fill="#441d03"/>
      <polygon points="86.399 84.463 92.615 77.551 88.462 77.551 82.015 84.857 82.015 77.551 78.606 77.551 78.606 93.485 82.015 93.485 82.015 89.032 84.009 86.898 88.904 93.485 93.055 93.485 86.399 84.463" fill="#441d03"/>
    </g>
  </g>
</svg>
