<svg xmlns="http://www.w3.org/2000/svg" width="128" height="128" viewBox="0 0 128 128">
  <title>PESTICIDE</title>
  <g>
    <path d="M107.762,31.089V27.33a4,4,0,0,1,4-4h.278V16.883h-.725a10,10,0,0,0-10,10v4.206Z" fill="#fd3"/>
    <path d="M72.534,95.867H24.964a9,9,0,0,1-9-9V60.075a30.018,30.018,0,0,1,1.295-8.719L25.786,23.27A9,9,0,0,1,34.4,16.883H63.1a9,9,0,0,1,8.614,6.387l8.531,28.086a29.984,29.984,0,0,1,1.3,8.719V86.864A9,9,0,0,1,72.534,95.867Z" fill="#f9922d"/>
    <rect x="39.182" y="6.306" width="19.134" height="10.577" fill="#fd3"/>
    <rect x="25.512" y="95.867" width="46.473" height="25.826" fill="#ea4a42"/>
    <polygon points="71.985 102.107 78.134 105.538 78.134 111.985 71.985 115.454 71.985 102.107" fill="#fd3"/>
    <path d="M107.762,59.772V99.313A12.671,12.671,0,0,1,95.09,111.985H78.245v-6.447H94.931a6.384,6.384,0,0,0,6.384-6.384V59.772Z" fill="#fd3"/>
    <rect x="97.84" y="31.089" width="14.199" height="28.684" fill="#ea4a42"/>
    <g>
      <path d="M107.762,80.833a1.75,1.75,0,0,0-1.75,1.75v4.5a1.75,1.75,0,1,0,3.5,0v-4.5A1.749,1.749,0,0,0,107.762,80.833Z" fill="#441d03"/>
      <path d="M61.438,41.077a12.689,12.689,0,1,0-12.689,12.69A12.7,12.7,0,0,0,61.438,41.077Zm-21.878,0a9.189,9.189,0,1,1,9.189,9.19A9.2,9.2,0,0,1,39.56,41.077Z" fill="#441d03"/>
      <path d="M48.023,112.33H34.329a1.75,1.75,0,1,0,0,3.5H48.023a1.75,1.75,0,1,0,0-3.5Z" fill="#441d03"/>
      <path d="M58.994,112.33H54.836a1.75,1.75,0,0,0,0,3.5h4.158a1.75,1.75,0,1,0,0-3.5Z" fill="#441d03"/>
      <path d="M111.762,25.08h.278a1.75,1.75,0,0,0,1.75-1.75V16.883a1.75,1.75,0,0,0-1.75-1.75h-.725a11.763,11.763,0,0,0-11.75,11.75v2.456H97.84a1.75,1.75,0,0,0-1.75,1.75V59.772a1.75,1.75,0,0,0,1.75,1.75h1.725V99.154a4.639,4.639,0,0,1-4.633,4.634H78.589l-4.854-2.708V97.546a10.766,10.766,0,0,0,9.552-10.682V60.074a31.745,31.745,0,0,0-1.37-9.227L73.386,22.761A10.693,10.693,0,0,0,63.1,15.133H60.066V6.307a1.75,1.75,0,0,0-1.75-1.75H39.182a1.749,1.749,0,0,0-1.75,1.75v8.826H34.4a10.693,10.693,0,0,0-10.289,7.628L22.733,27.3a1.75,1.75,0,0,0,3.349,1.017l1.378-4.539A7.214,7.214,0,0,1,34.4,18.633H63.1a7.212,7.212,0,0,1,6.94,5.145l8.531,28.086a28.241,28.241,0,0,1,1.219,8.21v26.79a7.262,7.262,0,0,1-7.253,7.253H65.8V65.271a1.751,1.751,0,0,0-1.75-1.75h-30.6a1.75,1.75,0,0,0-1.75,1.75V94.117H24.964a7.262,7.262,0,0,1-7.254-7.253V60.074a28.242,28.242,0,0,1,1.22-8.21l4.921-16.2A1.75,1.75,0,1,0,20.5,34.646l-4.921,16.2a31.712,31.712,0,0,0-1.371,9.227v26.79a10.767,10.767,0,0,0,9.552,10.682v24.147a1.75,1.75,0,0,0,1.75,1.75H71.985a1.749,1.749,0,0,0,1.75-1.75v-5.218l4.859-2.741h16.5a14.437,14.437,0,0,0,14.422-14.421V95.319a1.75,1.75,0,0,0-3.5,0v3.994A10.933,10.933,0,0,1,95.09,110.234H79.884v-2.946H94.932a8.142,8.142,0,0,0,8.133-8.134V61.522h2.947V73.927a1.75,1.75,0,1,0,3.5,0V61.522h2.528a1.75,1.75,0,0,0,1.75-1.75V31.089a1.75,1.75,0,0,0-1.75-1.75h-2.528V27.33A2.253,2.253,0,0,1,111.762,25.08Zm-55.2-9.947H53.687V8.057h2.879Zm-6.379,0H47.31V8.057h2.877ZM40.932,8.057H43.81v7.076H40.932ZM35.2,67.021H62.3v27.1H35.2Zm-7.939,52.922V97.617H70.235v22.326Zm49.122-8.981-2.649,1.494v-7.368l2.649,1.477Zm33.906-52.94H99.59V32.839h10.7Zm-7.225-28.683V26.883A8.263,8.263,0,0,1,110.29,18.7v3.075a5.762,5.762,0,0,0-4.278,5.559v2.009Z" fill="#441d03"/>
    </g>
  </g>
</svg>
