<svg xmlns="http://www.w3.org/2000/svg" width="128" height="128" viewBox="0 0 128 128">
  <title>PIG</title>
  <g>
    <path d="M85.62,33.04l31.465,45.568a26.019,26.019,0,0,1,1.133,27.776h0a26.02,26.02,0,0,1-18.813,12.759h0a246.99,246.99,0,0,1-70.81,0h0A26.02,26.02,0,0,1,9.782,106.384h0a26.019,26.019,0,0,1,1.133-27.776L42.38,33.04A26.02,26.02,0,0,1,63.79,21.806h.42A26.02,26.02,0,0,1,85.62,33.04Z" fill="#f9922d"/>
    <circle cx="81.099" cy="61.577" r="7.512" fill="#ffefc2"/>
    <circle cx="46.901" cy="61.577" r="7.512" fill="#ffefc2"/>
    <ellipse cx="64" cy="93.861" rx="21.304" ry="13.171" fill="#ea4a42"/>
    <circle cx="71.683" cy="93.861" r="3.904" fill="#ffefc2"/>
    <circle cx="56.317" cy="93.861" r="3.904" fill="#ffefc2"/>
    <path d="M85.62,33.04,96.794,49.222h0c24.169-12.817,24.9-42.916,24.9-42.916-35.667,0-40.923,21.458-40.923,21.458l0,.007A25.969,25.969,0,0,1,85.62,33.04Z" fill="#f9922d"/>
    <path d="M92.751,43.368c19.14-11.73,20.865-29.165,20.865-29.165-21.283,0-28,18.837-28,18.837l7.131,10.328Z" fill="#ea4a42"/>
    <path d="M31.206,49.222h0L42.38,33.04a25.969,25.969,0,0,1,4.851-5.269l0-.007S41.973,6.306,6.306,6.306C6.306,6.306,7.037,36.405,31.206,49.222Z" fill="#f9922d"/>
    <path d="M35.249,43.368h0L42.38,33.04S35.667,14.2,14.384,14.2C14.384,14.2,16.109,31.638,35.249,43.368Z" fill="#ea4a42"/>
    <g>
      <path d="M99.312,49.789A44.98,44.98,0,0,0,115.4,33.466a1.75,1.75,0,1,0-3.02-1.769A41.509,41.509,0,0,1,97.318,46.9l-2.1-3.036c18.2-12,20.065-28.762,20.136-29.489a1.749,1.749,0,0,0-1.741-1.922c-17.18,0-25.451,11.787-28.367,17.262A27.717,27.717,0,0,0,82.791,27.2c1.481-4,8.8-18.5,37.027-19.121a61.537,61.537,0,0,1-4.327,17.343,1.75,1.75,0,0,0,3.231,1.346,62.265,62.265,0,0,0,4.72-20.417,1.749,1.749,0,0,0-1.749-1.792c-29.822,0-39.186,14.5-41.758,20.381A27.768,27.768,0,0,0,64.21,20.056h-.42a27.768,27.768,0,0,0-15.725,4.882C45.493,19.054,36.129,4.557,6.307,4.557A1.749,1.749,0,0,0,4.558,6.349c.029,1.241,1,29.863,24.122,43.451L21.662,59.963a1.75,1.75,0,0,0,2.881,1.989L43.82,34.035A24.268,24.268,0,0,1,63.79,23.556h.42A24.268,24.268,0,0,1,84.18,34.035L115.645,79.6A24.381,24.381,0,0,1,116.7,105.51a24.13,24.13,0,0,1-17.549,11.9,245.074,245.074,0,0,1-70.306,0A24.13,24.13,0,0,1,11.3,105.51,24.381,24.381,0,0,1,12.355,79.6a1.75,1.75,0,1,0-2.88-1.989,27.9,27.9,0,0,0-1.21,29.644,27.614,27.614,0,0,0,20.08,13.617A248.763,248.763,0,0,0,64,123.445a248.763,248.763,0,0,0,35.655-2.57,27.613,27.613,0,0,0,20.08-13.618,27.9,27.9,0,0,0-1.21-29.643ZM34.769,40.982A43.831,43.831,0,0,1,19.284,23.769a36.387,36.387,0,0,1-2.792-7.749c16,1.016,22.456,13.452,23.912,16.8Zm7.982-11.266c-2.916-5.475-11.187-17.262-28.367-17.262a1.749,1.749,0,0,0-1.741,1.922c.071.727,1.937,17.489,20.136,29.489l-2.106,3.049C12.26,36.213,8.809,14.485,8.188,8.077,36.416,8.7,43.728,23.2,45.209,27.2A27.717,27.717,0,0,0,42.751,29.716Zm68.757-13.7a36.348,36.348,0,0,1-2.792,7.749A43.831,43.831,0,0,1,93.231,40.982L87.6,32.822C89.052,29.473,95.51,17.036,111.508,16.02Z" fill="#441d03"/>
      <path d="M15.846,73.215a1.747,1.747,0,0,0,1.442-.756l2.563-3.711A1.75,1.75,0,0,0,16.97,66.76l-2.563,3.711a1.751,1.751,0,0,0,1.439,2.744Z" fill="#441d03"/>
      <path d="M71.683,99.515a5.655,5.655,0,1,0-5.655-5.654A5.66,5.66,0,0,0,71.683,99.515Zm0-7.809a2.155,2.155,0,1,1-2.155,2.155A2.158,2.158,0,0,1,71.683,91.706Z" fill="#441d03"/>
      <path d="M56.317,88.206a5.655,5.655,0,1,0,5.655,5.655A5.661,5.661,0,0,0,56.317,88.206Zm0,7.809a2.155,2.155,0,1,1,2.155-2.154A2.157,2.157,0,0,1,56.317,96.015Z" fill="#441d03"/>
      <path d="M90.36,61.577A9.262,9.262,0,1,0,81.1,70.838,9.272,9.272,0,0,0,90.36,61.577Zm-15.023,0A5.762,5.762,0,1,1,81.1,67.338,5.769,5.769,0,0,1,75.337,61.577Z" fill="#441d03"/>
      <path d="M46.9,52.315a9.262,9.262,0,1,0,9.262,9.262A9.272,9.272,0,0,0,46.9,52.315Zm0,15.023a5.762,5.762,0,1,1,5.762-5.761A5.768,5.768,0,0,1,46.9,67.338Z" fill="#441d03"/>
      <path d="M40.946,93.861c0,8.367,10.126,14.92,23.054,14.92s23.054-6.553,23.054-14.92S76.928,78.94,64,78.94,40.946,85.494,40.946,93.861Zm42.608,0c0,6.19-8.954,11.42-19.554,11.42s-19.554-5.23-19.554-11.42S53.4,82.44,64,82.44,83.554,87.67,83.554,93.861Z" fill="#441d03"/>
      <path d="M110.882,100.8a1.748,1.748,0,0,0,2.364-.73C117.619,91.8,112.1,83.739,111.86,83.4a1.75,1.75,0,0,0-2.867,2.007c.046.066,4.544,6.624,1.159,13.031A1.75,1.75,0,0,0,110.882,100.8Z" fill="#441d03"/>
      <path d="M106.534,80.627a1.75,1.75,0,0,0,1.429-2.758l-2.026-2.876a1.75,1.75,0,0,0-2.862,2.015l2.027,2.877A1.744,1.744,0,0,0,106.534,80.627Z" fill="#441d03"/>
    </g>
  </g>
</svg>
