<svg xmlns="http://www.w3.org/2000/svg" width="128" height="128" viewBox="0 0 128 128">
  <title>RAKE</title>
  <g>
    <polygon points="50.2 84.055 43.942 77.797 16.868 61.254 10.61 67.511 60.486 117.387 66.744 111.129 50.2 84.055" fill="#ea4a42"/>
    <rect x="43.497" y="36.104" width="87.945" height="8.85" transform="translate(-3.039 73.72) rotate(-45)" fill="#f9922d"/>
    <path d="M53.247,68.493l6.258,6.258L47.878,86.377a4.425,4.425,0,0,1-6.258,0h0a4.425,4.425,0,0,1,0-6.258Z" fill="#ffefc2"/>
    <g>
      <path d="M122.929,13.8a1.751,1.751,0,0,0,0-2.475l-6.258-6.258a1.751,1.751,0,0,0-2.475,0L105.4,13.861a1.75,1.75,0,0,0,2.475,2.475l7.556-7.555,3.783,3.783L59.505,72.276l-3.783-3.783,37.029-37.03a1.75,1.75,0,0,0-2.475-2.475L52.01,67.256l-8.331,8.33L17.78,59.761a1.746,1.746,0,0,0-2.149.256L9.373,66.274a1.749,1.749,0,0,0,0,2.475l1.958,1.958-6.26,6.26a1.75,1.75,0,1,0,2.475,2.474l6.26-6.259,4.772,4.772-6.259,6.26a1.75,1.75,0,1,0,2.475,2.474l6.259-6.259L25.826,85.2l-6.26,6.259a1.75,1.75,0,0,0,2.475,2.475l6.26-6.259,4.773,4.772-6.26,6.26a1.75,1.75,0,0,0,2.475,2.475l6.259-6.26L40.322,99.7l-6.26,6.259a1.75,1.75,0,0,0,2.474,2.475l6.26-6.26,4.773,4.773-6.26,6.26a1.75,1.75,0,0,0,2.474,2.475l6.26-6.26,4.773,4.772-6.264,6.265a1.75,1.75,0,0,0,2.474,2.475l6.265-6.265,1.958,1.958a1.749,1.749,0,0,0,2.475,0l6.257-6.257a1.747,1.747,0,0,0,.256-2.149L63.2,101.979a1.75,1.75,0,1,0-2.986,1.825l4.315,7.062-4.046,4.046-47.4-47.4,4.047-4.046,24,14.666-.75.75a6.174,6.174,0,1,0,8.732,8.732l.751-.75,6.387,10.453a1.75,1.75,0,0,0,2.986-1.824L52.412,84.319l8.33-8.331ZM48.963,82.818,46.641,85.14a2.742,2.742,0,0,1-3.784,0,2.68,2.68,0,0,1,0-3.784l2.323-2.321,8.067-8.067,3.783,3.783Z" fill="#441d03"/>
      <path d="M97.339,26.15a1.746,1.746,0,0,0,1.237-.512l3.181-3.181a1.75,1.75,0,0,0-2.475-2.475L96.1,23.163a1.75,1.75,0,0,0,1.237,2.987Z" fill="#441d03"/>
    </g>
  </g>
</svg>
