<?xml version="1.0" encoding="utf-8"?>
<!-- Generator: Adobe Illustrator 23.0.6, SVG Export Plug-In . SVG Version: 6.00 Build 0)  -->
<svg version="1.1" id="Layer_1" xmlns="http://www.w3.org/2000/svg" xmlns:xlink="http://www.w3.org/1999/xlink" x="0px" y="0px"
	 width="128px" height="128px" viewBox="0 0 128 128" style="enable-background:new 0 0 128 128;" xml:space="preserve">
<style type="text/css">
	.st0{fill:#F9922D;}
	.st1{fill:#FFEFC2;}
	.st2{fill:#EA4A42;}
	.st3{fill:#441D03;}
</style>
<title>SCYTHE</title>
<g>
	<path class="st0" d="M17.2,115.4l86.1-86.1c1.7-1.7,4.5-1.7,6.3,0c0,0,0,0,0,0l0,0c1.7,1.7,1.7,4.5,0,6.3c0,0,0,0,0,0l-86.1,86.1
		L17.2,115.4z"/>
	<path class="st1" d="M97.5,35.1l-4.7-4.6C74.7,12.4,49.2,3.7,23.8,7L20,7.5l3.6,1.5c17.2,6.9,32.8,17.3,46,30.4l0,0
		c0,0,9-2.6,17.6,6.1L97.5,35.1z"/>
	<rect x="84.3" y="39.3" transform="matrix(0.7071 -0.7071 0.7071 0.7071 -3.0737 80.073)" class="st2" width="21.7" height="8.8"/>
	<path class="st3" d="M110.8,28.1c-2.4-2.4-6.3-2.4-8.7,0l0,0l-4.6,4.6l-3.4-3.4c-6.8-6.8-14.7-12.4-23.4-16.5
		c-0.9-0.4-1.9,0-2.3,0.9c-0.4,0.8,0,1.8,0.8,2.3c8.3,4,15.9,9.3,22.4,15.8l3.4,3.4l-3,3C72.6,19.5,48.7,11.4,34,8.1
		C43.6,8,53.2,9.7,62.3,13c0.9,0.4,1.9-0.1,2.3-1s-0.1-1.9-1-2.3h-0.1C50.7,5.1,37,3.5,23.6,5.3c0,0-2.8,0.3-3.7,0.5
		c-2.2,0.3-1.9,2.8-0.5,3.4c0.9,0.4,3.6,1.5,3.6,1.5c17,6.8,32.4,17,45.4,30c0.5,0.5,1.1,0.6,1.7,0.4c0.1,0,7.2-2,14.6,4.4L16,114.2
		c-0.7,0.7-0.7,1.8,0,2.5l0,0l6.3,6.3c0.7,0.7,1.8,0.7,2.5,0L37,110.6c0.7-0.7,0.7-1.8,0-2.5s-1.8-0.7-2.5,0l0,0l-11.1,11.1
		l-3.8-3.8l64.7-64.7l3.8,3.8L49.7,93c-0.7,0.7-0.7,1.8,0,2.5s1.8,0.7,2.5,0l58.6-58.6C113.2,34.4,113.2,30.5,110.8,28.1z
		 M70.2,37.4C59.5,26.9,47.3,18.2,33.9,11.6C48.2,15,71,22.8,89.5,40.6L87.2,43C80,36.6,72.8,37,70.2,37.4z M86.8,48.3l11.9-11.9
		l0,0l0.9-0.9l3.8,3.8L90.6,52.1L86.8,48.3z M108.3,34.4l-2.4,2.4l-3.8-3.8l2.4-2.4c1.1-1,2.7-1,3.8,0
		C109.3,31.6,109.3,33.3,108.3,34.4z M46,99.1c0.7,0.7,0.7,1.8,0,2.5l0,0l-3.2,3.2c-0.7,0.7-1.8,0.7-2.5,0s-0.7-1.8,0-2.5l3.2-3.2
		C44.2,98.4,45.3,98.4,46,99.1L46,99.1z"/>
</g>
</svg>
