<svg xmlns="http://www.w3.org/2000/svg" width="128" height="128" viewBox="0 0 128 128">
  <title>SEED BAG</title>
  <g>
    <polygon points="109.493 25.071 98.558 121.694 29.442 121.694 18.507 25.071 109.493 25.071" fill="#fd3"/>
    <circle cx="64" cy="73.382" r="25.17" fill="#ffefc2"/>
    <path d="M18.507,25.071V16.306a10,10,0,0,1,10-10H99.493a10,10,0,0,1,10,10v8.765Z" fill="#2eb74e"/>
    <path d="M64,85.609A12.086,12.086,0,0,0,51.914,73.523,12.086,12.086,0,0,0,64,85.609Z" fill="#2eb74e"/>
    <path d="M64,72.611a12.086,12.086,0,0,0,0-17.092A12.086,12.086,0,0,0,64,72.611Z" fill="#2eb74e"/>
    <path d="M64,85.609A12.086,12.086,0,0,1,76.086,73.523,12.086,12.086,0,0,1,64,85.609Z" fill="#2eb74e"/>
    <g>
      <path d="M111.243,16.307a11.763,11.763,0,0,0-11.75-11.75H56.455a1.75,1.75,0,0,0,0,3.5H99.493a8.259,8.259,0,0,1,8.25,8.25v7.014H20.257V16.307a8.259,8.259,0,0,1,8.25-8.25h6.555a1.75,1.75,0,0,0,0-3.5H28.507a11.763,11.763,0,0,0-11.75,11.75v8.764c0,.035.008.067.01.1s0,.064,0,.1L27.7,121.891a1.751,1.751,0,0,0,1.739,1.552H98.558a1.751,1.751,0,0,0,1.739-1.552l1.687-14.907a1.75,1.75,0,1,0-3.478-.394l-1.512,13.353H31.006L20.466,26.821h87.068l-8.165,72.14a1.751,1.751,0,0,0,3.479.394l8.384-74.086c0-.033,0-.065,0-.1s.01-.066.01-.1Z" fill="#441d03"/>
      <path d="M43.3,8.057h4.5a1.75,1.75,0,0,0,0-3.5H43.3a1.75,1.75,0,0,0,0,3.5Z" fill="#441d03"/>
      <path d="M76.086,71.772A13.791,13.791,0,0,0,65.75,76.443V73.281a13.841,13.841,0,0,0-.513-19,1.75,1.75,0,0,0-2.474,0,13.841,13.841,0,0,0-.513,19v3.162a13.791,13.791,0,0,0-10.336-4.671,1.75,1.75,0,0,0-1.75,1.75A13.848,13.848,0,0,0,62.25,87.236v4.01a1.75,1.75,0,0,0,3.5,0v-4.01A13.848,13.848,0,0,0,77.836,73.522,1.75,1.75,0,0,0,76.086,71.772ZM64,58.249a10.364,10.364,0,0,1,0,11.632A10.364,10.364,0,0,1,64,58.249Zm-10.155,17.2a10.364,10.364,0,0,1,8.224,8.226A10.366,10.366,0,0,1,53.845,75.453Zm12.086,8.226a10.364,10.364,0,0,1,8.224-8.226A10.366,10.366,0,0,1,65.931,83.679Z" fill="#441d03"/>
      <path d="M90.92,73.382A26.92,26.92,0,1,0,64,100.3,26.95,26.95,0,0,0,90.92,73.382ZM64,96.8A23.421,23.421,0,1,1,87.42,73.382,23.447,23.447,0,0,1,64,96.8Z" fill="#441d03"/>
      <path d="M39.828,110.67a1.75,1.75,0,1,0,0,3.5H57.692a1.75,1.75,0,0,0,0-3.5Z" fill="#441d03"/>
      <path d="M65.256,110.67a1.75,1.75,0,0,0,0,3.5h4.055a1.75,1.75,0,0,0,0-3.5Z" fill="#441d03"/>
    </g>
  </g>
</svg>
