<svg xmlns="http://www.w3.org/2000/svg" width="128" height="128" viewBox="0 0 128 128">
  <title>SHEARS</title>
  <g>
    <path d="M56.737,78.413A7.4,7.4,0,0,0,50.2,75.188l-.007,0,4.674-9.476A10.438,10.438,0,0,1,70.1,52.18a30.615,30.615,0,0,0,8.393-10.4L95.984,6.306l7.509,18.35L92.4,47.147a26.238,26.238,0,0,1-16.588,13.7l-1.387.381a10.416,10.416,0,0,1-13.792,9.314l-3.887,7.88Z" fill="#ffefc2"/>
    <rect x="35.372" y="73.351" width="14.852" height="50.162" rx="7.426" transform="translate(37.638 205.642) rotate(-153.745)" fill="#ea4a42"/>
    <rect x="33.754" y="91.006" width="18.088" height="14.852" transform="translate(-64.412 93.272) rotate(-63.745)" fill="#fd3"/>
    <path d="M71.263,78.413A7.4,7.4,0,0,1,77.8,75.188l.007,0-4.674-9.476A10.438,10.438,0,0,0,57.9,52.18a30.615,30.615,0,0,1-8.393-10.4l-17.5-35.47-7.509,18.35L35.6,47.147a26.238,26.238,0,0,0,16.588,13.7l1.387.381a10.416,10.416,0,0,0,13.792,9.314l3.887,7.88Z" fill="#ffefc2"/>
    <circle cx="63.993" cy="60.657" r="3.78" fill="#ea4a42"/>
    <rect x="77.776" y="73.351" width="14.852" height="50.162" rx="7.426" transform="translate(-34.753 47.845) rotate(-26.255)" fill="#ea4a42"/>
    <rect x="77.776" y="89.388" width="14.852" height="18.088" transform="translate(-34.753 47.845) rotate(-26.255)" fill="#fd3"/>
    <g>
      <path d="M76.274,62.53a28.006,28.006,0,0,0,17.7-14.609l11.092-22.49a1.752,1.752,0,0,0,.051-1.438L97.6,5.644a1.749,1.749,0,0,0-1.558-1.086,1.767,1.767,0,0,0-1.631.974L76.919,41a29.04,29.04,0,0,1-6.975,9.019,12.133,12.133,0,0,0-11.9,0A29.08,29.08,0,0,1,51.081,41l-3.256-6.6a1.75,1.75,0,1,0-3.138,1.549l3.255,6.6a32.6,32.6,0,0,0,8.87,11,1.753,1.753,0,0,0,2.114.051A8.689,8.689,0,0,1,71.605,64.859a1.752,1.752,0,0,0-.038,1.622l3.564,7.226a9.089,9.089,0,0,0-3.417,1.686l-2.777-5.63a1.752,1.752,0,0,0-2.134-.882,8.668,8.668,0,0,1-11.481-7.752,1.748,1.748,0,0,0-1.285-1.594l-1.386-.38A24.506,24.506,0,0,1,37.169,46.372L26.425,24.589l5.739-14.026,3.054,6.19A1.75,1.75,0,1,0,38.356,15.2L33.585,5.532a1.75,1.75,0,0,0-3.189.112L22.887,23.993a1.755,1.755,0,0,0,.05,1.438L34.03,47.921a28.005,28.005,0,0,0,17.7,14.609l.236.066a12.117,12.117,0,0,0,.942,3.125l-3.872,7.851a9.157,9.157,0,0,0-6.655,4.967L30.571,102.477l0,.006,0,.007-3.806,7.717a9.176,9.176,0,1,0,16.458,8.118l3.808-7.721h0v0l11.81-23.942a9.162,9.162,0,0,0-.109-8.3l2.837-5.75a12.222,12.222,0,0,0,2.428.25,11.971,11.971,0,0,0,2.442-.251l2.837,5.751a9.162,9.162,0,0,0-.109,8.3L80.973,110.6v0h0l3.808,7.721a9.176,9.176,0,1,0,16.458-8.118l-3.8-7.716,0-.008-.005-.007-2.376-4.818a1.75,1.75,0,1,0-3.139,1.549l1.606,3.256-10.18,5.021L76.885,94.4,87.066,89.38l1.449,2.936a1.75,1.75,0,0,0,3.138-1.548L85.622,78.539a9.16,9.16,0,0,0-6.655-4.967l-3.875-7.858a12.209,12.209,0,0,0,.924-3.113ZM44.661,107.484l-10.18-5.021L40.934,89.38,51.115,94.4Zm-4.583,9.292a5.676,5.676,0,0,1-10.181-5.02l3.036-6.154,10.18,5.021ZM55.7,85.109l-3.035,6.154L42.482,86.241l3.035-6.153a5.64,5.64,0,0,1,3.266-2.864A5.676,5.676,0,0,1,55.7,85.109Zm.588-9.716a9.089,9.089,0,0,0-3.417-1.686l2.3-4.653a12.212,12.212,0,0,0,3.089,2.352ZM95.067,105.6l3.036,6.154a5.676,5.676,0,1,1-10.181,5.02l-3.035-6.153ZM82.483,80.088l3.035,6.153L75.337,91.263,72.3,85.109a5.676,5.676,0,0,1,10.181-5.021ZM80.058,42.551,95.836,10.564l5.739,14.025L90.831,46.372A24.507,24.507,0,0,1,76.055,58.941,12.152,12.152,0,0,0,72.763,52.2,32.594,32.594,0,0,0,80.058,42.551Z" fill="#441d03"/>
      <path d="M69.523,60.657a5.53,5.53,0,1,0-5.53,5.531A5.535,5.535,0,0,0,69.523,60.657Zm-7.559,0a2.03,2.03,0,1,1,2.029,2.031A2.032,2.032,0,0,1,61.964,60.657Z" fill="#441d03"/>
      <path d="M41.04,28.558a1.75,1.75,0,0,0,3.139-1.547l-1.991-4.037a1.749,1.749,0,1,0-3.138,1.547Z" fill="#441d03"/>
    </g>
  </g>
</svg>
