<svg xmlns="http://www.w3.org/2000/svg" width="128" height="128" viewBox="0 0 128 128">
  <title>SHEEP</title>
  <g>
    <path d="M30.105,54.33a34.083,34.083,0,0,1,11.74-20.266v0S23.8,23.848,6.306,38.991c0,0,6.645,15.482,23.785,15.362Z" fill="#f9922d"/>
    <path d="M64,121.694s14.927.155,19.4-17.261a41.837,41.837,0,0,1,7.745-15.127,34.519,34.519,0,0,0,7.28-21.3v-7.74A34.041,34.041,0,0,0,64.744,26.194q-.369,0-.744,0t-.744,0A34.041,34.041,0,0,0,29.579,60.267v7.74a34.519,34.519,0,0,0,7.28,21.3A41.837,41.837,0,0,1,44.6,104.433C49.073,121.849,64,121.694,64,121.694Z" fill="#f9922d"/>
    <circle cx="45.064" cy="63.488" r="5.154" fill="#ffefc2"/>
    <circle cx="82.936" cy="63.488" r="5.154" fill="#ffefc2"/>
    <path d="M83,17.468c.017-.245.038-.489.038-.738A10.422,10.422,0,0,0,64,10.858,10.422,10.422,0,0,0,44.966,16.73c0,.249.021.493.038.738a10.048,10.048,0,1,0,9.5,17.566,11.069,11.069,0,0,0,18.99,0A10.048,10.048,0,1,0,83,17.468Z" fill="#ffefc2"/>
    <path d="M64,99.683a13.329,13.329,0,0,0,8.485-3.352,4.213,4.213,0,0,0-2.125-7.414H57.64a4.213,4.213,0,0,0-2.125,7.414A13.329,13.329,0,0,0,64,99.683Z" fill="#9e5410"/>
    <path d="M86.154,34.062v0A34.083,34.083,0,0,1,97.9,54.33l.014.023c17.14.12,23.785-15.362,23.785-15.362C104.2,23.848,86.154,34.062,86.154,34.062Z" fill="#f9922d"/>
    <path d="M91.033,39.061l.026.046a34.04,34.04,0,0,1,5.15,9.075l.02.035c12.613,0,16.8-7.293,16.8-7.293C104.8,33.638,91.033,39.061,91.033,39.061Z" fill="#ea4a42"/>
    <path d="M31.791,48.182a34.04,34.04,0,0,1,5.15-9.075l.026-.046s-13.762-5.423-21.992,1.863c0,0,4.183,7.3,16.8,7.293Z" fill="#ea4a42"/>
    <g>
      <path d="M51.969,63.488a6.9,6.9,0,1,0-6.905,6.9A6.913,6.913,0,0,0,51.969,63.488Zm-10.309,0a3.4,3.4,0,1,1,3.4,3.4A3.409,3.409,0,0,1,41.66,63.488Z" fill="#441d03"/>
      <path d="M89.84,63.488a6.9,6.9,0,1,0-6.9,6.9A6.913,6.913,0,0,0,89.84,63.488Zm-10.309,0a3.4,3.4,0,1,1,3.405,3.4A3.41,3.41,0,0,1,79.531,63.488Z" fill="#441d03"/>
      <path d="M46.3,104a1.75,1.75,0,1,0-3.391.868,32.039,32.039,0,0,0,1.225,3.8,1.75,1.75,0,0,0,3.256-1.285A28.669,28.669,0,0,1,46.3,104Z" fill="#441d03"/>
      <path d="M122.839,37.667a36.024,36.024,0,0,0-12.229-7.1,1.75,1.75,0,0,0-1.1,3.323,31.983,31.983,0,0,1,9.994,5.551c-1.811,3.282-7.978,12.538-20.167,13.13-.2-.909-.441-1.806-.708-2.693,11.628-.852,15.733-7.772,15.913-8.086a1.75,1.75,0,0,0-.358-2.18c-7.533-6.669-18.855-3.81-22.578-2.608-.724-.848-1.5-1.661-2.3-2.445a31.082,31.082,0,0,1,13.2-2.048,1.75,1.75,0,1,0,.242-3.492,34.275,34.275,0,0,0-12.315,1.434,11.771,11.771,0,0,0-5.655-14.084A12.171,12.171,0,0,0,64,8.127a12.171,12.171,0,0,0-20.778,8.244,11.767,11.767,0,0,0-5.637,14.135c-6.939-2.088-19.9-3.679-32.424,7.161A1.752,1.752,0,0,0,4.7,39.681C4.767,39.84,11.47,55,28.083,56.043a36.108,36.108,0,0,0-.254,4.224v7.74a36.433,36.433,0,0,0,7.652,22.378,44.593,44.593,0,0,1,4.754,7.433,1.75,1.75,0,1,0,3.127-1.572,48.2,48.2,0,0,0-5.125-8.019,32.912,32.912,0,0,1-6.908-20.22v-7.74A32.284,32.284,0,0,1,41.9,36.351,11.746,11.746,0,0,0,54,37.362a12.817,12.817,0,0,0,20,0,11.746,11.746,0,0,0,12.1-1.011A32.284,32.284,0,0,1,96.671,60.267v7.74a32.912,32.912,0,0,1-6.908,20.22A43.1,43.1,0,0,0,81.7,104c-3.222,12.558-12.129,15.225-15.95,15.79V101.3A15.47,15.47,0,0,0,73.6,97.679a5.964,5.964,0,0,0-3-10.5,1.73,1.73,0,0,0-.238-.016H57.64a1.73,1.73,0,0,0-.238.016,5.963,5.963,0,0,0-3,10.495A15.463,15.463,0,0,0,62.25,101.3v18.483a18.365,18.365,0,0,1-11.479-6.541,1.75,1.75,0,0,0-2.707,2.218,21.758,21.758,0,0,0,15.882,7.98H64c.552,0,16.393-.276,21.089-18.574a39.6,39.6,0,0,1,7.428-14.484,36.433,36.433,0,0,0,7.652-22.378v-7.74a36.108,36.108,0,0,0-.254-4.224C116.527,55,123.233,39.84,123.3,39.681A1.752,1.752,0,0,0,122.839,37.667Zm-67,54.753a2.4,2.4,0,0,1,1.934-1.753H70.227a2.463,2.463,0,0,1,1.142,4.316c-4.728,3.915-10.01,3.915-14.738,0A2.389,2.389,0,0,1,55.839,92.42Zm54.737-51.178c-1.634,1.774-5.579,4.9-13.178,5.2a35.758,35.758,0,0,0-3.5-6.454C97.586,38.972,105.121,37.6,110.576,41.242ZM8.486,39.449c12.641-10.2,25.206-6.908,30.23-4.907-.814.79-1.593,1.609-2.323,2.464-3.724-1.2-15.046-4.061-22.578,2.608a1.75,1.75,0,0,0-.358,2.18c.18.314,4.284,7.235,15.913,8.086-.268.888-.509,1.785-.708,2.694C16.355,51.991,10.276,42.757,8.486,39.449ZM30.6,46.438c-7.6-.3-11.549-3.426-13.178-5.195,5.441-3.627,12.983-2.264,16.679-1.256A35.724,35.724,0,0,0,30.6,46.438ZM74.493,33.6a1.751,1.751,0,0,0-2.5.534,9.317,9.317,0,0,1-15.99,0,1.75,1.75,0,0,0-2.5-.534A8.3,8.3,0,1,1,45.661,19.09a1.837,1.837,0,0,0,1.083-1.816c-.013-.181-.027-.36-.027-.544a8.672,8.672,0,0,1,15.838-4.885,1.751,1.751,0,0,0,2.89,0A8.672,8.672,0,0,1,81.283,16.73c0,.184-.014.363-.027.544l0,.069a1.749,1.749,0,0,0,1.088,1.747A8.3,8.3,0,1,1,74.493,33.6Z" fill="#441d03"/>
    </g>
  </g>
</svg>
