<svg xmlns="http://www.w3.org/2000/svg" width="128" height="128" viewBox="0 0 128 128">
  <title>SHOVEL</title>
  <g>
    <rect x="101.763" y="4.309" width="8.85" height="35.005" transform="translate(196.698 -37.852) rotate(135)" fill="#ea4a42"/>
    <path d="M93.447,34.553a13.562,13.562,0,0,1-2.6-3.66L52.84,68.9,59.1,75.16,97.107,37.151A13.562,13.562,0,0,1,93.447,34.553Z" fill="#f9922d"/>
    <path d="M52.854,81.4,46.6,75.146,31.925,66.423,21.1,77.248A131.506,131.506,0,0,0,9.686,90.274L8.43,91.912a10.3,10.3,0,0,0,.894,13.548L22.54,118.676a10.3,10.3,0,0,0,13.548.894l1.638-1.256A131.506,131.506,0,0,0,50.752,106.9L61.577,96.075Z" fill="#ffefc2"/>
    <path d="M97.11,37.15,89.06,45.2h-.01L82.8,38.95l.01-.02,8.04-8.04a13.445,13.445,0,0,0,6.26,6.26Z" fill="#ea4a42"/>
    <path d="M52.84,68.9,46.6,75.146,37.251,85.7a3.579,3.579,0,0,0,.148,4.9h0a3.579,3.579,0,0,0,4.9.148L52.854,81.4,59.1,75.16Z" fill="#ea4a42"/>
    <g>
      <path d="M114.633,26.473A1.75,1.75,0,0,0,117.108,24l-3.181-3.181a1.749,1.749,0,1,0-2.474,2.474Z" fill="#441d03"/>
      <path d="M122.931,29.822a1.749,1.749,0,0,0-2.475,0l-5.02,5.02L93.158,12.564l3.783-3.782,8.39,8.389a1.75,1.75,0,1,0,2.475-2.474L98.178,5.069a1.75,1.75,0,0,0-2.474,0l-6.258,6.258a1.749,1.749,0,0,0,0,2.475l1.6,1.6a15.37,15.37,0,0,0-2.279,15.1l-7.208,7.208,0,0,0,0L51.6,67.665l-5.282,5.281-13.5-8.027a1.75,1.75,0,0,0-2.131.267l-4.27,4.269a1.75,1.75,0,1,0,2.475,2.474L32.2,68.623,43.884,75.57l-7.943,8.969a5.327,5.327,0,0,0,7.52,7.52l8.969-7.943L59.377,95.8l-9.862,9.863a130.252,130.252,0,0,1-12.853,11.262l-1.638,1.256a8.579,8.579,0,0,1-11.247-.742L10.561,104.223a8.577,8.577,0,0,1-.742-11.246l1.256-1.639A130.252,130.252,0,0,1,22.337,78.485l1.127-1.127a1.75,1.75,0,1,0-2.474-2.475l-1.128,1.128A133.937,133.937,0,0,0,8.3,89.209L7.041,90.848A12.088,12.088,0,0,0,8.086,106.7L21.3,119.914a12.087,12.087,0,0,0,15.85,1.045l1.639-1.255a133.937,133.937,0,0,0,13.2-11.566L62.814,97.313a1.75,1.75,0,0,0,.267-2.132l-8.027-13.5L60.335,76.4,97.5,39.231a15.322,15.322,0,0,0,15.1-2.279l1.6,1.6a1.749,1.749,0,0,0,2.475,0l6.258-6.258A1.75,1.75,0,0,0,122.931,29.822ZM82.8,41.421,86.579,45.2,59.1,72.685,55.315,68.9ZM41.141,89.439a1.828,1.828,0,0,1-2.58-2.58l9.31-10.513,4.969-4.969,3.783,3.783-4.969,4.969Zm47.913-46.71-3.783-3.782L90.5,33.723a14.5,14.5,0,0,0,3.783,3.783Zm5.631-9.414a11.851,11.851,0,0,1-1.136-15.41L110.1,34.451A11.85,11.85,0,0,1,94.685,33.315Z" fill="#441d03"/>
      <path d="M15.186,100.491a1.748,1.748,0,0,0,0,2.474l1.921,1.922a1.75,1.75,0,1,0,2.475-2.475l-1.921-1.921A1.749,1.749,0,0,0,15.186,100.491Z" fill="#441d03"/>
      <path d="M21.26,106.564a1.749,1.749,0,0,0,0,2.475l6.794,6.794a1.75,1.75,0,0,0,2.474-2.475l-6.794-6.794A1.75,1.75,0,0,0,21.26,106.564Z" fill="#441d03"/>
    </g>
  </g>
</svg>
