<svg xmlns="http://www.w3.org/2000/svg" width="128" height="128" viewBox="0 0 128 128">
  <title>SICKLE</title>
  <g>
    <path d="M46.883,91.016,22.9,118.437A9.468,9.468,0,0,1,9.08,118.9h0a9.467,9.467,0,0,1,.462-13.822L36.962,81.1Z" fill="#f9922d"/>
    <polygon points="46.883 91.016 36.962 81.095 47.521 74.809 53.169 80.457 46.883 91.016" fill="#ea4a42"/>
    <path d="M47.521,74.809l2.137-2.137a5.278,5.278,0,0,0,.659-6.613,38.778,38.778,0,1,1,59.459,6.966l-.012-.005V56.347c0-15.125-12.24-27.73-27.362-27.443q-.742.014-1.476.068c-17.062,1.253-27.771,19.122-21.664,35.1h0A12.292,12.292,0,0,1,56.47,77.156l-3.3,3.3Z" fill="#ffefc2"/>
    <g>
      <path d="M18.517,98.977a1.742,1.742,0,0,0,1.151-.433l3.385-2.96a1.75,1.75,0,1,0-2.3-2.635l-3.385,2.96a1.75,1.75,0,0,0,1.152,3.068Z" fill="#441d03"/>
      <path d="M123.276,41.365a1.75,1.75,0,1,0-3.485.317,36.865,36.865,0,0,1-8.277,26.9V56.347a29.658,29.658,0,0,0-8.83-21.043,28.147,28.147,0,0,0-20.314-8.15q-.791.015-1.573.073A26.587,26.587,0,0,0,60.173,39.669,28.143,28.143,0,0,0,57.626,64.7a10.558,10.558,0,0,1-2.393,11.219l-2.064,2.064L50,74.81l.9-.9a6.99,6.99,0,0,0,.891-8.8,37.03,37.03,0,1,1,66.57-30.8,1.75,1.75,0,0,0,3.351-1.012A40.531,40.531,0,1,0,48.847,67.009a3.514,3.514,0,0,1-.427,4.426l-1.982,1.983L36.067,79.591c-.027.016-.049.039-.075.057a1.623,1.623,0,0,0-.182.129l-8.546,7.475a1.75,1.75,0,0,0,2.3,2.635l7.314-6.4L44.488,91.1l-22.9,26.188a7.718,7.718,0,1,1-10.891-10.89l2.776-2.428a1.75,1.75,0,1,0-2.3-2.635L8.39,103.759a11.217,11.217,0,0,0,7.389,19.662c.123,0,.247,0,.371-.006a11.255,11.255,0,0,0,8.069-3.826L48.2,92.169a1.708,1.708,0,0,0,.129-.181c.018-.027.041-.048.058-.076l6.175-10.374,3.146-3.144A14.063,14.063,0,0,0,60.9,63.45a24.622,24.622,0,0,1,2.231-21.9A23.116,23.116,0,0,1,81.051,30.717c.457-.032.918-.055,1.383-.063a24.61,24.61,0,0,1,17.8,7.148,26.132,26.132,0,0,1,7.781,18.545V73.021a1.75,1.75,0,0,0,1.005,1.583,1.082,1.082,0,0,0,.1.044,1.741,1.741,0,0,0,1.866-.361A40.37,40.37,0,0,0,123.276,41.365ZM46.53,88.188l-6.74-6.74,7.456-4.438,3.723,3.721Z" fill="#441d03"/>
      <path d="M82.036,12.213a33.1,33.1,0,0,0-4.431.416,1.75,1.75,0,0,0,.28,3.477,1.707,1.707,0,0,0,.284-.022,29.56,29.56,0,0,1,3.961-.373,1.75,1.75,0,0,0-.046-3.5Z" fill="#441d03"/>
      <path d="M70.461,14.646A32.761,32.761,0,0,0,55.15,27.489a1.75,1.75,0,1,0,2.956,1.873A29.271,29.271,0,0,1,71.79,17.885a1.751,1.751,0,0,0-1.329-3.239Z" fill="#441d03"/>
    </g>
  </g>
</svg>
