<?xml version="1.0" encoding="utf-8"?>
<!-- Generator: Adobe Illustrator 23.0.6, SVG Export Plug-In . SVG Version: 6.00 Build 0)  -->
<svg version="1.1" id="Layer_1" xmlns="http://www.w3.org/2000/svg" xmlns:xlink="http://www.w3.org/1999/xlink" x="0px" y="0px"
	 width="128px" height="128px" viewBox="0 0 128 128" style="enable-background:new 0 0 128 128;" xml:space="preserve">
<style type="text/css">
	.st0{fill:#FFDD33;}
	.st1{fill:#EA4A42;}
	.st2{fill:#F9922D;}
	.st3{fill:#441D03;}
</style>
<title>SILO</title>
<g>
	<rect x="6.3" y="34.1" class="st0" width="93.9" height="87.6"/>
	<rect x="39" y="6.3" class="st1" width="28.5" height="10.2"/>
	<polygon class="st2" points="6.3,34.1 39,16.5 67.5,16.5 100.2,34.1 	"/>
	<rect x="78.6" y="77.9" class="st2" width="43.1" height="43.8"/>
	<path class="st1" d="M78.6,77.9c0-11.9,9.6-21.5,21.5-21.5s21.5,9.6,21.5,21.5H78.6z"/>
	<path class="st3" d="M4.6,101.1v-4.5c0-1,0.8-1.8,1.8-1.8s1.8,0.8,1.8,1.8v4.5c0,1-0.8,1.8-1.8,1.8S4.6,102.1,4.6,101.1z
		 M123.4,77.9v43.8c0,1-0.8,1.7-1.7,1.8l0,0H6.3c-1,0-1.7-0.8-1.8-1.7l0,0v-12.3c0-1,0.8-1.8,1.8-1.8s1.8,0.8,1.8,1.8l0,0v10.6h12.1
		V35.8H8.1V88c0,1-0.8,1.8-1.8,1.8S4.6,88.9,4.6,88V34.1c0-1.1,0.9-1.5,0.9-1.5l31.8-17.1V6.3c0-1,0.8-1.7,1.7-1.8h28.5
		c1,0,1.7,0.8,1.8,1.7l0,0v9.1L101,32.5c0,0,0.9,0.5,0.9,1.5c0,1.7,0,6.8,0,6.8c0,1-0.8,1.8-1.8,1.8s-1.8-0.8-1.8-1.8v-5H40.8v84.1
		h36.1v-42c0-12.2,9.4-22.3,21.5-23.2v-6.2c0-1,0.8-1.8,1.8-1.8s1.8,0.8,1.8,1.8v6.2C114.1,55.6,123.4,65.7,123.4,77.9z M80.5,76.1
		h39.4c-1-10.9-10.6-18.9-21.4-18C88.9,59,81.3,66.6,80.5,76.1z M23.7,68.7v7.5h13.6v-7.5H23.7z M37.3,65.2v-7.5H23.7v7.5H37.3z
		 M23.7,79.6v7.5h13.6v-7.5H23.7z M23.7,90.6V98h13.6v-7.5L23.7,90.6z M37.3,46.8H23.7v7.5h13.6C37.3,54.3,37.3,46.8,37.3,46.8z
		 M23.7,109h13.6v-7.5H23.7V109z M93.2,32.3L67,18.2H39.4L13.2,32.3H93.2z M40.8,8.1v6.7h25V8.1H40.8z M23.7,35.8v7.5h13.6v-7.5
		H23.7z M23.7,119.9h13.6v-7.5H23.7V119.9z M119.9,79.6H80.4v40.3H120L119.9,79.6L119.9,79.6z M113.6,114.5c1,0,1.8-0.8,1.8-1.8
		v-12.2c0-1-0.8-1.8-1.8-1.8s-1.8,0.8-1.8,1.8v12.2C111.8,113.7,112.6,114.5,113.6,114.5z M113.6,95.7c1,0,1.7-0.8,1.8-1.8v-3.8
		c0-1-0.8-1.8-1.8-1.8s-1.8,0.8-1.8,1.8v3.8C111.8,94.9,112.6,95.7,113.6,95.7z"/>
</g>
</svg>
