<svg xmlns="http://www.w3.org/2000/svg" width="128" height="128" viewBox="0 0 128 128">
  <title>SPRINKLER</title>
  <g>
    <rect x="47.491" y="47.491" width="33.017" height="11.827" fill="#fd3"/>
    <rect x="54.22" y="67.198" width="19.56" height="18.036" fill="#fd3"/>
    <rect x="58.089" y="93.113" width="11.821" height="11.045" fill="#fd3"/>
    <polygon points="58.089 93.113 54.22 85.234 73.78 85.234 69.911 93.113 58.089 93.113" fill="#f9922d"/>
    <polygon points="54.22 67.198 47.491 59.319 80.509 59.319 73.78 67.198 54.22 67.198" fill="#f9922d"/>
    <path d="M48.888,104.158H79.112a17.536,17.536,0,0,1,17.536,17.536v0a0,0,0,0,1,0,0H31.353a0,0,0,0,1,0,0v0A17.536,17.536,0,0,1,48.888,104.158Z" fill="#2eb74e"/>
    <g>
      <path d="M79.111,102.408H71.66V93.519l3.691-7.514c0-.011.006-.023.011-.034a1.733,1.733,0,0,0,.168-.738V67.844l6.31-7.388c.014-.016.02-.036.033-.053a1.722,1.722,0,0,0,.212-.335c.008-.017.019-.032.026-.048a1.694,1.694,0,0,0,.119-.419c.007-.039.008-.077.012-.115,0-.056.017-.11.017-.167V47.491a1.75,1.75,0,0,0-3.5,0V57.569H49.241V49.241H72.8a1.75,1.75,0,0,0,0-3.5H47.491a1.749,1.749,0,0,0-1.75,1.75V59.319c0,.057.012.111.017.167,0,.038,0,.076.012.115a1.694,1.694,0,0,0,.119.419c.007.016.018.032.026.048a1.709,1.709,0,0,0,.212.335c.013.017.019.037.033.053l6.31,7.388V85.233a1.737,1.737,0,0,0,.168.738c.005.011.006.023.011.034l3.691,7.514v8.889H48.889A19.307,19.307,0,0,0,29.6,121.693a1.749,1.749,0,0,0,1.75,1.75H41.34a1.75,1.75,0,1,0,0-3.5H33.2a15.808,15.808,0,0,1,15.69-14.035H79.111A15.808,15.808,0,0,1,94.8,119.943H62.732a1.75,1.75,0,0,0,0,3.5H96.647a1.749,1.749,0,0,0,1.75-1.75A19.307,19.307,0,0,0,79.111,102.408ZM72.03,83.483H55.97V68.948H72.03Zm-12.85,7.88-2.151-4.38H70.971l-2.151,4.38ZM76.713,61.069l-3.74,4.379H55.027l-3.74-4.379ZM59.84,94.863h8.32v7.545H59.84Z" fill="#441d03"/>
      <path d="M54.075,119.943h-4.5a1.75,1.75,0,1,0,0,3.5h4.5a1.75,1.75,0,0,0,0-3.5Z" fill="#441d03"/>
      <path d="M108.619,51.655H87.812a1.75,1.75,0,1,0,0,3.5h20.807a1.75,1.75,0,0,0,0-3.5Z" fill="#441d03"/>
      <path d="M121.693,51.655h-6.237a1.75,1.75,0,1,0,0,3.5h6.237a1.75,1.75,0,1,0,0-3.5Z" fill="#441d03"/>
      <path d="M41.938,53.405a1.749,1.749,0,0,0-1.75-1.75H19.381a1.75,1.75,0,0,0,0,3.5H40.188A1.749,1.749,0,0,0,41.938,53.405Z" fill="#441d03"/>
      <path d="M12.544,51.655H6.307a1.75,1.75,0,0,0,0,3.5h6.237a1.75,1.75,0,0,0,0-3.5Z" fill="#441d03"/>
      <path d="M49.6,41.476A1.75,1.75,0,1,0,52.07,39L37.357,24.287a1.75,1.75,0,0,0-2.474,2.475Z" fill="#441d03"/>
      <path d="M30.048,21.928a1.75,1.75,0,0,0,2.474-2.475l-4.41-4.41a1.75,1.75,0,0,0-2.474,2.475Z" fill="#441d03"/>
      <path d="M77.167,41.988a1.746,1.746,0,0,0,1.237-.512L93.117,26.762a1.75,1.75,0,0,0-2.474-2.475L75.93,39a1.75,1.75,0,0,0,1.237,2.987Z" fill="#441d03"/>
      <path d="M96.715,22.44a1.742,1.742,0,0,0,1.237-.512l4.41-4.41a1.75,1.75,0,0,0-2.474-2.475l-4.41,4.41a1.75,1.75,0,0,0,1.237,2.987Z" fill="#441d03"/>
      <path d="M64,41.938a1.749,1.749,0,0,0,1.75-1.75V19.381a1.75,1.75,0,0,0-3.5,0V40.188A1.749,1.749,0,0,0,64,41.938Z" fill="#441d03"/>
      <path d="M64,14.294a1.749,1.749,0,0,0,1.75-1.75V6.307a1.75,1.75,0,0,0-3.5,0v6.237A1.749,1.749,0,0,0,64,14.294Z" fill="#441d03"/>
    </g>
  </g>
</svg>
