<svg xmlns="http://www.w3.org/2000/svg" width="128" height="128" viewBox="0 0 128 128">
  <title>SUN</title>
  <g>
    <path d="M114.638,67.718,121.694,64l-7.054-3.717A8.06,8.06,0,0,1,112.2,48.009l5.084-6.132-7.878-.722a8.05,8.05,0,0,1-6.95-10.4L104.8,23.2l-7.52,2.33a8.081,8.081,0,0,1-10.434-6.978c-.441-4.8-.719-7.839-.719-7.839L80,15.793a8.077,8.077,0,0,1-12.3-2.457L64,6.306s-1.438,2.73-3.7,7.023a8.081,8.081,0,0,1-12.3,2.459l-6.117-5.071s-.277,3.027-.717,7.817a8.093,8.093,0,0,1-10.449,7L23.2,23.2l2.357,7.605A8.005,8.005,0,0,1,18.645,41.15l-7.928.727,5.1,6.157a8.034,8.034,0,0,1-2.434,12.235L6.306,64l7.074,3.727a8.037,8.037,0,0,1,2.445,12.236l-5.108,6.16,7.934.727a8,8,0,0,1,6.912,10.334L23.2,104.8l7.577-2.348a8.034,8.034,0,0,1,10.372,6.937c.443,4.837.724,7.9.724,7.9l6.168-5.114a8.023,8.023,0,0,1,12.217,2.43L64,121.694s1.454-2.761,3.739-7.1a8.02,8.02,0,0,1,12.211-2.433l6.173,5.118s.281-3.07.726-7.921a8.011,8.011,0,0,1,10.342-6.923L104.8,104.8l-2.357-7.605a8.009,8.009,0,0,1,6.916-10.341l7.928-.727-5.094-6.144A8.053,8.053,0,0,1,114.638,67.718Z" fill="#fd3"/>
    <circle cx="64" cy="64" r="38.514" fill="#f9922d"/>
    <g>
      <path d="M64,104.264A40.264,40.264,0,1,1,104.264,64,40.31,40.31,0,0,1,64,104.264Zm0-77.028A36.764,36.764,0,1,0,100.764,64,36.807,36.807,0,0,0,64,27.236Z" fill="#441d03"/>
      <path d="M49.754,39.922a1.75,1.75,0,0,1-.848-3.281,31.212,31.212,0,0,1,4.2-1.93,1.749,1.749,0,1,1,1.221,3.279A27.928,27.928,0,0,0,50.6,39.7,1.735,1.735,0,0,1,49.754,39.922Z" fill="#441d03"/>
      <path d="M35.441,58.37A1.693,1.693,0,0,1,35,58.314a1.749,1.749,0,0,1-1.258-2.13A31.135,31.135,0,0,1,43.021,40.85a1.75,1.75,0,1,1,2.351,2.593,27.639,27.639,0,0,0-8.238,13.614A1.75,1.75,0,0,1,35.441,58.37Z" fill="#441d03"/>
      <path d="M23.205,106.546a1.75,1.75,0,0,1-1.672-2.268l2.358-7.611a6.249,6.249,0,0,0-5.4-8.073l-7.935-.728a1.75,1.75,0,0,1-1.187-2.86l5.108-6.16a6.288,6.288,0,0,0-1.914-9.571L5.491,65.548a1.75,1.75,0,0,1,0-3.1l7.081-3.731a6.284,6.284,0,0,0,1.9-9.57L9.37,42.994a1.75,1.75,0,0,1,1.187-2.86l7.928-.727a6.255,6.255,0,0,0,5.4-8.08l-2.356-7.6a1.751,1.751,0,0,1,2.19-2.19l7.506,2.326a6.343,6.343,0,0,0,8.188-5.484l.717-7.816a1.751,1.751,0,0,1,2.86-1.189l6.117,5.071a6.332,6.332,0,0,0,9.64-1.926l3.7-7.023A1.748,1.748,0,0,1,64,4.557h0a1.748,1.748,0,0,1,1.548.934l3.7,7.03a6.327,6.327,0,0,0,9.631,1.925l6.123-5.077a1.751,1.751,0,0,1,2.86,1.188l.426,4.645a1.75,1.75,0,0,1-3.486.32l-.122-1.338-3.566,2.957a9.826,9.826,0,0,1-14.962-2.99L64,10.061l-2.152,4.084a9.833,9.833,0,0,1-14.972,2.99l-3.56-2.951-.413,4.51A9.845,9.845,0,0,1,30.194,27.2l-4.335-1.344,1.373,4.434a9.755,9.755,0,0,1-8.428,12.6l-4.62.422,2.985,3.6a9.783,9.783,0,0,1-2.966,14.9L10.061,64,14.2,66.18a9.785,9.785,0,0,1,2.976,14.9l-2.988,3.6,4.627.423a9.75,9.75,0,0,1,8.423,12.6l-1.375,4.44,4.4-1.366A1.75,1.75,0,0,1,31.3,104.12l-7.576,2.348A1.745,1.745,0,0,1,23.205,106.546Z" fill="#441d03"/>
      <path d="M64,123.443h0a1.748,1.748,0,0,1-1.548-.934l-3.739-7.095a6.272,6.272,0,0,0-9.551-1.9l-6.168,5.114a1.751,1.751,0,0,1-2.86-1.188l-.3-3.266a1.75,1.75,0,0,1,3.481-.361l3.611-2.994a9.775,9.775,0,0,1,14.883,2.961L64,117.939l2.19-4.157a9.773,9.773,0,0,1,14.877-2.965l3.617,3,.422-4.614a9.761,9.761,0,0,1,12.6-8.434l4.433,1.374-1.373-4.433a9.761,9.761,0,0,1,8.427-12.6l4.621-.422L110.841,81.1a9.8,9.8,0,0,1,2.982-14.926L117.939,64l-4.115-2.169a9.809,9.809,0,0,1-2.972-14.939l2.964-3.576-4.571-.418a9.8,9.8,0,0,1-8.461-12.658l1.357-4.382-4.347,1.348a9.813,9.813,0,0,1-10.966-3.757,1.75,1.75,0,0,1,2.866-2.01,6.323,6.323,0,0,0,7.064,2.423l7.519-2.33a1.751,1.751,0,0,1,2.19,2.19l-2.34,7.553a6.3,6.3,0,0,0,5.437,8.137l7.879.722a1.75,1.75,0,0,1,1.187,2.86l-5.084,6.132a6.311,6.311,0,0,0,1.91,9.609l7.053,3.717a1.75,1.75,0,0,1,0,3.1l-7.054,3.718a6.3,6.3,0,0,0-1.919,9.595l5.094,6.145a1.75,1.75,0,0,1-1.187,2.86l-7.928.727a6.259,6.259,0,0,0-5.4,8.081l2.356,7.6a1.751,1.751,0,0,1-2.19,2.19l-7.6-2.357a6.261,6.261,0,0,0-8.081,5.411l-.726,7.92a1.751,1.751,0,0,1-2.86,1.189l-6.173-5.12a6.272,6.272,0,0,0-9.546,1.9l-3.739,7.1A1.75,1.75,0,0,1,64,123.443Z" fill="#441d03"/>
      <path d="M40.279,108.148a1.747,1.747,0,0,1-1.552-.939,6.315,6.315,0,0,0-1.8-2.108,1.75,1.75,0,0,1,2.1-2.8,9.82,9.82,0,0,1,2.8,3.288,1.749,1.749,0,0,1-1.549,2.56Z" fill="#441d03"/>
    </g>
  </g>
</svg>
