<svg xmlns="http://www.w3.org/2000/svg" width="128" height="128" viewBox="0 0 128 128">
  <title>SUNFLOWER</title>
  <g>
    <path d="M96.038,38.344h-11.8L92.58,30A8.381,8.381,0,0,0,80.728,18.145l-8.347,8.346v-11.8a8.381,8.381,0,1,0-16.762,0v11.8l-8.347-8.346A8.381,8.381,0,0,0,35.42,30l8.346,8.346h-11.8a8.381,8.381,0,1,0,0,16.762h11.8L35.42,63.453A8.381,8.381,0,1,0,47.272,75.306l8.347-8.347v11.8a8.381,8.381,0,0,0,16.762,0v-11.8l8.347,8.347A8.381,8.381,0,1,0,92.58,63.453l-8.346-8.347h11.8a8.381,8.381,0,0,0,0-16.762Z" fill="#fd3"/>
    <circle cx="64" cy="46.725" r="21.894" fill="#f9922d"/>
    <path d="M64,112.349A23.306,23.306,0,0,0,40.694,89.043,23.306,23.306,0,0,0,64,112.349Z" fill="#2eb74e"/>
    <path d="M64,112.349A23.306,23.306,0,0,1,87.306,89.043,23.306,23.306,0,0,1,64,112.349Z" fill="#2eb74e"/>
    <g>
      <path d="M106.169,46.725A10.143,10.143,0,0,0,96.038,36.594H88.459l5.358-5.359A10.131,10.131,0,1,0,79.49,16.908l-5.359,5.359V14.688a10.131,10.131,0,0,0-20.262,0v7.578L48.51,16.908A10.131,10.131,0,0,0,34.182,31.235a1.75,1.75,0,1,0,2.475-2.475,6.631,6.631,0,0,1,9.378-9.378l6.611,6.611a23.732,23.732,0,0,0-4.07,2.834L42.953,23.2a1.75,1.75,0,1,0-2.474,2.475L46.1,31.3a23.746,23.746,0,0,0-2.835,4.069l-1.329-1.329a1.75,1.75,0,0,0-2.475,2.474l.078.078H31.962a10.131,10.131,0,0,0,0,20.262h7.579l-5.359,5.36A10.131,10.131,0,0,0,48.51,76.543l5.359-5.358v7.578a10.14,10.14,0,0,0,8.381,9.969V99.6a25.066,25.066,0,0,0-21.556-12.3,1.751,1.751,0,0,0-1.75,1.75A25.084,25.084,0,0,0,62.25,114.031v7.662a1.75,1.75,0,0,0,3.5,0v-7.661a24.845,24.845,0,0,0,7.986-1.895,1.75,1.75,0,0,0-1.361-3.225,21.339,21.339,0,0,1-6.549,1.611A21.594,21.594,0,0,1,85.48,90.869a21.5,21.5,0,0,1-1.052,5.077,1.75,1.75,0,0,0,3.316,1.12,25.032,25.032,0,0,0,1.313-8.024,1.751,1.751,0,0,0-1.75-1.75A25.067,25.067,0,0,0,65.75,99.6V88.732a10.141,10.141,0,0,0,8.381-9.969V71.184l5.359,5.359A10.131,10.131,0,1,0,93.817,62.216l-5.358-5.36h7.579A10.142,10.142,0,0,0,106.169,46.725Zm-24.2-27.343a6.631,6.631,0,0,1,9.378,9.378l-6.61,6.611A23.681,23.681,0,0,0,81.9,31.3l5.623-5.622A1.75,1.75,0,0,0,85.047,23.2l-5.623,5.623a23.793,23.793,0,0,0-4.07-2.835ZM64,66.87A20.145,20.145,0,1,1,84.145,46.725,20.168,20.168,0,0,1,64,66.87ZM57.369,14.688a6.631,6.631,0,0,1,13.262,0v9.346a23.486,23.486,0,0,0-4.881-.881V15.211a1.75,1.75,0,1,0-3.5,0v7.942a23.474,23.474,0,0,0-4.881.881ZM31.962,53.356a6.631,6.631,0,1,1,0-13.262h9.347a23.486,23.486,0,0,0-.881,4.881H32.485a1.75,1.75,0,0,0,0,3.5h7.943a23.474,23.474,0,0,0,.881,4.881ZM46.035,74.068a6.631,6.631,0,0,1-9.378-9.378l6.611-6.61A23.763,23.763,0,0,0,46.1,62.149l-5.623,5.623a1.75,1.75,0,0,0,2.474,2.475l5.623-5.623a23.788,23.788,0,0,0,4.07,2.834Zm-3.514,16.8a21.593,21.593,0,0,1,19.652,19.653A21.591,21.591,0,0,1,42.521,90.869ZM64,85.394a6.638,6.638,0,0,1-6.631-6.631V69.416a23.475,23.475,0,0,0,4.881.882V78.24a1.75,1.75,0,1,0,3.5,0V70.3a23.552,23.552,0,0,0,4.881-.881v9.346A6.639,6.639,0,0,1,64,85.394Zm27.343-20.7a6.631,6.631,0,0,1-9.378,9.378l-6.611-6.61a23.732,23.732,0,0,0,4.07-2.834l5.623,5.623a1.75,1.75,0,0,0,2.474-2.475L81.9,62.149a23.729,23.729,0,0,0,2.835-4.069ZM86.691,53.356a23.475,23.475,0,0,0,.882-4.881h7.942a1.75,1.75,0,0,0,0-3.5H87.573a23.487,23.487,0,0,0-.882-4.881h9.347a6.631,6.631,0,0,1,0,13.262Z" fill="#441d03"/>
      <path d="M83.459,101.993a1.749,1.749,0,0,0-2.456.3,21.836,21.836,0,0,1-2.375,2.581A1.75,1.75,0,1,0,81,107.447a25.264,25.264,0,0,0,2.758-3A1.749,1.749,0,0,0,83.459,101.993Z" fill="#441d03"/>
      <path d="M64.115,35.889a1.75,1.75,0,1,0,2.406-2.541l-2-1.9a1.75,1.75,0,1,0-2.407,2.541Z" fill="#441d03"/>
      <path d="M64.869,57.707l-2.8,1.478a1.75,1.75,0,1,0,1.635,3.094L66.5,60.8a1.75,1.75,0,0,0-1.635-3.095Z" fill="#441d03"/>
      <path d="M63.1,49.218a1.744,1.744,0,0,0,1.115-.4l1.8-1.486a1.75,1.75,0,0,0-2.233-2.695l-1.794,1.486a1.749,1.749,0,0,0,1.117,3.1Z" fill="#441d03"/>
      <path d="M52,44.165A1.753,1.753,0,0,0,49.858,45.4l-.738,2.755a1.75,1.75,0,1,0,3.38.906l.739-2.754A1.75,1.75,0,0,0,52,44.165Z" fill="#441d03"/>
      <path d="M78.767,46.625,77.538,44.08A1.75,1.75,0,1,0,74.386,45.6l1.228,2.545a1.751,1.751,0,0,0,1.577.99,1.752,1.752,0,0,0,1.576-2.511Z" fill="#441d03"/>
    </g>
  </g>
</svg>
