<?xml version="1.0" encoding="utf-8"?>
<!-- Generator: Adobe Illustrator 23.0.6, SVG Export Plug-In . SVG Version: 6.00 Build 0)  -->
<svg version="1.1" id="Layer_1" xmlns="http://www.w3.org/2000/svg" xmlns:xlink="http://www.w3.org/1999/xlink" x="0px" y="0px"
	 width="128px" height="128px" viewBox="0 0 128 128" style="enable-background:new 0 0 128 128;" xml:space="preserve">
<style type="text/css">
	.st0{fill:#EA4A42;}
	.st1{fill:#2EB74E;}
	.st2{fill:#441D03;}
</style>
<title>TOMATO</title>
<g>
	<circle class="st0" cx="64" cy="75" r="46.7"/>
	<path class="st1" d="M64,56.1c3.8-4.4,6.3-9.8,7.1-15.6c11.3-2.3,22,5.9,22,5.9C89.1,37.5,79.7,31,79.7,31c5.7-4,17.1-3.6,17.1-3.6
		C77.3,17.3,64,28.3,64,28.3s-13.3-11.1-32.8-0.8c0,0,11.4-0.5,17.1,3.6c0,0-9.4,6.4-13.4,15.4c0,0,10.7-8.1,22-5.9
		C57.7,46.3,60.2,51.7,64,56.1z"/>
	<path class="st2" d="M102.8,104c-0.9,1.2-1.9,2.4-2.9,3.5c-0.6,0.7-1.8,0.8-2.5,0.1s-0.8-1.8-0.1-2.5l0,0c0.9-1,1.8-2.1,2.7-3.3
		c0.6-0.8,1.7-0.9,2.4-0.3C103.2,102.1,103.4,103.2,102.8,104L102.8,104z M83.9,30.9c5.4-1.9,12.7-1.6,12.8-1.6c1,0,1.8-0.7,1.8-1.7
		c0-0.7-0.3-1.3-0.9-1.6c-15.2-7.9-26.8-3.7-31.9-0.8c0.1-1.8,0.4-3.6,0.9-5.3c1.6-5.8,5-9.7,10.2-11.8c0.9-0.4,1.3-1.4,1-2.3
		s-1.4-1.3-2.3-1C64.6,9,62.6,19.6,62.2,25.1c-3.5-1.9-7.3-3.1-11.3-3.5c-1-0.1-1.8,0.6-2,1.5c-0.1,1,0.6,1.8,1.5,2h0.1
		c4.4,0.4,8.7,2,12.3,4.6c0.8,0.5,1.5,0.5,2.2,0c0.1-0.1,9.5-7.7,23.8-3.5c-3.5,0.5-7.4,1.5-10.2,3.4c-1.1,0.8-0.8,2.3,0,2.9
		c3.6,2.6,6.6,5.6,9.3,9c-4.4-2-10.7-4-17.3-2.6c-0.8,0.2-1.3,0.8-1.4,1.6c-0.6,4.7-2.5,9.2-5.3,13c-2.8-3.8-4.7-8.3-5.3-13
		c-0.1-0.8-0.6-1.4-1.4-1.6c-6.6-1.3-12.9,0.6-17.3,2.6c2.7-3.4,5.8-6.4,9.3-9c0.9-0.7,1-2.1,0-2.9c-2.9-2.1-6.7-3-10.2-3.4
		c1.3-0.4,2.6-0.7,3.9-0.9c1-0.2,1.6-1.1,1.4-2c-0.2-0.9-1-1.6-2-1.4c-4.2,0.7-8.2,2.1-12,4.1c-0.9,0.4-1.2,1.5-0.7,2.4
		c0.3,0.6,0.9,1,1.6,0.9c0.1,0,7.3-0.3,12.8,1.6C19.6,41.9,8.8,70.6,19.8,95c7.8,17.3,25.1,28.5,44.1,28.5
		c10.9,0,21.4-3.6,29.9-10.4c0.8-0.6,0.9-1.7,0.3-2.5s-1.7-0.9-2.5-0.3l0,0c-7.9,6.3-17.7,9.6-27.8,9.6C39,119.9,18.9,99.8,18.9,75
		c0-14.5,7-28.1,18.8-36.6c-1.8,2.2-3.4,4.6-4.6,7.2c-0.4,0.9,0,1.9,0.9,2.3c0.6,0.3,1.3,0.2,1.8-0.2c0.1-0.1,9.4-7,19.4-5.7
		c1,5.7,3.5,10.9,7.3,15.3c0.7,0.7,1.8,0.8,2.5,0.1l0.1-0.1c3.8-4.3,6.3-9.6,7.3-15.3c10-1.3,19.3,5.7,19.4,5.7
		c0.8,0.6,1.9,0.4,2.5-0.3c0.4-0.5,0.5-1.2,0.2-1.8c-1.2-2.6-2.7-5-4.6-7.2c11.8,8.4,18.8,22.1,18.8,36.6c0,7-1.6,13.9-4.7,20.1
		c-0.4,0.9-0.1,1.9,0.8,2.4c0.9,0.4,1.9,0.1,2.4-0.8l0,0c3.4-6.7,5.1-14.1,5.1-21.7C112.4,56,101.3,38.7,83.9,30.9z M30,79.3
		c-0.2-1.4-0.3-2.9-0.3-4.3c0-1-0.8-1.8-1.8-1.8S26.3,74,26.3,75c0,1.6,0.1,3.2,0.3,4.7c0.1,0.9,0.9,1.5,1.7,1.5c0.1,0,0.1,0,0.2,0
		C29.5,81.1,30.1,80.3,30,79.3L30,79.3z M40.2,104.3c0.7,0.6,1.8,0.5,2.5-0.2s0.5-1.8-0.2-2.5c0,0,0,0-0.1,0
		c-4.9-3.9-8.5-9.1-10.7-15c-0.3-0.9-1.3-1.4-2.2-1.1c-0.9,0.3-1.4,1.3-1.1,2.2l0,0C30.8,94.2,34.8,99.9,40.2,104.3L40.2,104.3z"/>
</g>
</svg>
