<svg xmlns="http://www.w3.org/2000/svg" width="128" height="128" viewBox="0 0 128 128">
  <title>TRACTOR</title>
  <g>
    <path d="M114.9,54.189,75.262,48.122l-4.12-23.971a8,8,0,0,0-7.884-6.645H33.1a8,8,0,0,0-7.884,6.645l-6.291,36.6h0A29.316,29.316,0,0,1,56.9,94.814h58.218a6.575,6.575,0,0,0,6.575-6.575V62.1A8,8,0,0,0,114.9,54.189Z" fill="#fd3"/>
    <circle cx="28.264" cy="88.536" r="21.958" fill="#9e5410"/>
    <circle cx="28.264" cy="88.536" r="10.902" fill="#ffefc2"/>
    <circle cx="99.438" cy="94.814" r="15.68" fill="#9e5410"/>
    <circle cx="99.438" cy="94.814" r="7.785" fill="#ffefc2"/>
    <path d="M29.636,50.249A38.164,38.164,0,0,1,54.2,60.338l.015-.016,12.2-12.2L62.664,26.309H33.747L29.636,50.225Z" fill="#ffefc2"/>
    <polygon points="100.749 52.023 100.749 26.309 111.314 26.309 111.314 53.64 100.749 52.023" fill="#ea4a42"/>
    <path d="M48.992,67.809a29.314,29.314,0,0,0-41.455,0l5.2,5.2a21.958,21.958,0,0,1,36.568,21.8h7.6A29.292,29.292,0,0,0,48.992,67.809Z" fill="#ea4a42"/>
    <g>
      <path d="M28.265,75.884A12.652,12.652,0,1,0,40.916,88.536,12.667,12.667,0,0,0,28.265,75.884Zm0,21.8a9.152,9.152,0,1,1,9.151-9.152A9.162,9.162,0,0,1,28.265,97.688Z" fill="#441d03"/>
      <path d="M99.438,85.278a9.536,9.536,0,1,0,9.536,9.535A9.547,9.547,0,0,0,99.438,85.278Zm0,15.571a6.036,6.036,0,1,1,6.036-6.036A6.043,6.043,0,0,1,99.438,100.849Z" fill="#441d03"/>
      <path d="M121.693,84.354a1.751,1.751,0,0,0-1.75,1.75v2.135a4.818,4.818,0,0,1-3.206,4.525,17.424,17.424,0,0,0-34.641.3h-23.1a31.062,31.062,0,0,0-30.73-35.59,31.287,31.287,0,0,0-7.142.828l1.792-10.425a1.75,1.75,0,1,0-3.449-.592l-2.089,12.15A30.968,30.968,0,0,0,6.3,66.572a1.748,1.748,0,0,0,0,2.474l4.021,4.022a23.7,23.7,0,1,0,40.249,23.5h6.319l.013,0,.009,0H82.1a17.426,17.426,0,0,0,34.692-.168,8.339,8.339,0,0,0,6.655-8.156V86.1A1.75,1.75,0,0,0,121.693,84.354Zm-93.428,24.39A20.208,20.208,0,1,1,48.472,88.536,20.231,20.231,0,0,1,28.265,108.744Zm0-43.915A23.6,23.6,0,0,0,12.8,70.593l-2.745-2.745a27.362,27.362,0,0,1,9.413-5.443c.04-.013.077-.025.115-.04a27.567,27.567,0,0,1,35.867,30.7H51.533A23.694,23.694,0,0,0,28.265,64.829Zm71.173,43.915a13.931,13.931,0,1,1,13.93-13.931A13.946,13.946,0,0,1,99.438,108.744Z" fill="#441d03"/>
      <path d="M115.169,52.459l-2.105-.322V26.309a1.749,1.749,0,0,0-1.75-1.75h-3.533v-1.77a7.04,7.04,0,0,0-7.032-7.033,1.75,1.75,0,0,0,0,3.5,3.537,3.537,0,0,1,3.532,3.533v1.77h-3.532A1.749,1.749,0,0,0,99,26.309V49.985l-22.226-3.4L72.867,23.854a9.727,9.727,0,0,0-9.609-8.1H33.1a9.729,9.729,0,0,0-9.61,8.1l-.4,2.354a1.75,1.75,0,1,0,3.449.592l.4-2.353A6.238,6.238,0,0,1,33.1,19.256H63.258a6.237,6.237,0,0,1,6.16,5.191l4.12,23.972A1.753,1.753,0,0,0,75,49.853l39.642,6.066a6.214,6.214,0,0,1,5.3,6.178v16.33a1.75,1.75,0,0,0,3.5,0V62.1A9.7,9.7,0,0,0,115.169,52.459Zm-12.67-24.4h7.065V51.6L102.5,50.52Z" fill="#441d03"/>
      <path d="M22.358,40.776a1.7,1.7,0,0,0,.3.026,1.751,1.751,0,0,0,1.723-1.454l.762-4.431a1.75,1.75,0,0,0-3.45-.593l-.761,4.431A1.749,1.749,0,0,0,22.358,40.776Z" fill="#441d03"/>
      <path d="M29.575,52a36.539,36.539,0,0,1,23.44,9.627,1.722,1.722,0,0,0,1.174.455,1.784,1.784,0,0,0,1.262-.521l12.2-12.2a1.748,1.748,0,0,0,.488-1.534L64.389,26.012a1.749,1.749,0,0,0-1.725-1.453H33.747a1.75,1.75,0,0,0-1.725,1.453l-4.11,23.917A1.773,1.773,0,0,0,29.575,52Zm5.647-23.939H61.189l3.346,19.467L54.123,57.938A40.038,40.038,0,0,0,31.688,48.62Z" fill="#441d03"/>
      <path d="M100.749,68.329a1.75,1.75,0,0,0,1.75-1.75V59.224a1.75,1.75,0,1,0-3.5,0v7.355A1.75,1.75,0,0,0,100.749,68.329Z" fill="#441d03"/>
      <path d="M77.013,66.579V55.611a1.75,1.75,0,1,0-3.5,0V66.579a1.75,1.75,0,0,0,3.5,0Z" fill="#441d03"/>
      <path d="M85.508,66.579V56.911a1.75,1.75,0,1,0-3.5,0v9.668a1.75,1.75,0,0,0,3.5,0Z" fill="#441d03"/>
      <path d="M94,66.579V58.441a1.75,1.75,0,0,0-3.5,0v8.138a1.75,1.75,0,0,0,3.5,0Z" fill="#441d03"/>
    </g>
  </g>
</svg>
