<svg xmlns="http://www.w3.org/2000/svg" width="128" height="128" viewBox="0 0 128 128">
  <title>TRUCK</title>
  <g>
    <rect x="6.306" y="54.137" width="57.694" height="22.251" fill="#ea4a42"/>
    <path d="M64,76.386V32.206H89.013A6,6,0,0,1,94.6,36.021l7.08,18.116,16.574,4.034a4.5,4.5,0,0,1,3.439,4.376V76.388Z" fill="#ea4a42"/>
    <polygon points="88.58 39.279 94.387 54.137 71.073 54.137 71.073 39.279 88.58 39.279" fill="#ffefc2"/>
    <rect x="115.333" y="64.402" width="6.36" height="6.686" fill="#ffefc2"/>
    <path d="M109.857,76.388h0a18.315,18.315,0,0,0-34.026,0H46.277l.006,0a18.315,18.315,0,0,0-34.025,0l.005,0H6.306l4.939,6.773H121.694V76.388Z" fill="#fd3"/>
    <circle cx="29.27" cy="83.161" r="12.634" fill="#9e5410"/>
    <circle cx="29.27" cy="83.161" r="5.157" fill="#ffefc2"/>
    <circle cx="93.11" cy="83.161" r="12.634" fill="#9e5410"/>
    <circle cx="93.11" cy="83.161" r="5.157" fill="#ffefc2"/>
    <g>
      <path d="M29.271,76.254a6.907,6.907,0,1,0,6.907,6.906A6.915,6.915,0,0,0,29.271,76.254Zm0,10.313a3.407,3.407,0,1,1,3.407-3.407A3.411,3.411,0,0,1,29.271,86.567Z" fill="#441d03"/>
      <path d="M93.11,76.254a6.907,6.907,0,1,0,6.907,6.906A6.915,6.915,0,0,0,93.11,76.254Zm0,10.313a3.407,3.407,0,1,1,3.407-3.407A3.41,3.41,0,0,1,93.11,86.567Z" fill="#441d03"/>
      <path d="M24.476,55.887h4.5a1.75,1.75,0,1,0,0-3.5h-4.5a1.75,1.75,0,0,0,0,3.5Z" fill="#441d03"/>
      <path d="M118.669,56.471l-15.689-3.82L96.231,35.385a7.7,7.7,0,0,0-7.218-4.929H64a1.749,1.749,0,0,0-1.75,1.75V52.387H37.212a1.75,1.75,0,0,0,0,3.5H62.25V74.638H47.422a20.05,20.05,0,0,0-36.3,0H8.057V55.887h7.762a1.75,1.75,0,0,0,0-3.5H6.307a1.749,1.749,0,0,0-1.75,1.75V76.388c0,.029.007.057.008.086s.008.082.013.124a1.624,1.624,0,0,0,.072.328c.01.031.017.062.028.093a1.739,1.739,0,0,0,.2.378c0,.007.007.015.012.022l4.938,6.772a1.749,1.749,0,0,0,1.414.719H15a14.372,14.372,0,0,0,28.533,0H78.844a14.376,14.376,0,1,0,27.728-6.772h13.371V81.41h-6.521a1.75,1.75,0,0,0,0,3.5h8.271a1.749,1.749,0,0,0,1.75-1.75V62.547A6.237,6.237,0,0,0,118.669,56.471Zm1.274,12.867h-2.86V66.152h2.86Zm-40.294,8.8a14.268,14.268,0,0,0-.805,3.272H43.537a14.268,14.268,0,0,0-.8-3.272ZM29.271,66.6a16.464,16.464,0,0,1,14.2,8.034H40.831a14.33,14.33,0,0,0-23.121,0H15.072A16.464,16.464,0,0,1,29.271,66.6ZM9.749,78.138h6.06A14.268,14.268,0,0,0,15,81.41H12.135ZM29.271,94.044A10.884,10.884,0,1,1,40.154,83.16,10.9,10.9,0,0,1,29.271,94.044Zm63.839,0A10.884,10.884,0,1,1,103.994,83.16,10.9,10.9,0,0,1,93.11,94.044Zm0-25.268a14.357,14.357,0,0,0-11.56,5.862h-2.9a16.563,16.563,0,0,1,28.4,0h-2.374A14.359,14.359,0,0,0,93.11,68.776ZM111,74.638a20.048,20.048,0,0,0-36.3,0H65.75V33.956H89.013a4.226,4.226,0,0,1,3.959,2.7l7.08,18.115a1.747,1.747,0,0,0,1.216,1.064l16.573,4.034a2.747,2.747,0,0,1,2.1,2.676v.105h-4.61a1.75,1.75,0,0,0-1.75,1.75v6.686a1.749,1.749,0,0,0,1.75,1.75h4.61v1.8Z" fill="#441d03"/>
      <path d="M90.21,38.643a1.75,1.75,0,0,0-1.63-1.114H71.073a1.75,1.75,0,0,0-1.75,1.75V54.137a1.749,1.749,0,0,0,1.75,1.75H94.387a1.75,1.75,0,0,0,1.63-2.387ZM72.823,52.387V41.029H87.385l4.439,11.358Z" fill="#441d03"/>
      <path d="M76.505,59.036H71.073a1.75,1.75,0,1,0,0,3.5h5.432a1.75,1.75,0,0,0,0-3.5Z" fill="#441d03"/>
    </g>
  </g>
</svg>
