<svg xmlns="http://www.w3.org/2000/svg" width="128" height="128" viewBox="0 0 128 128">
  <title>WATER TOWER</title>
  <g>
    <path d="M37.626,74.768V30.02a8,8,0,0,1,8-8H82.374a8,8,0,0,1,8,8V74.768Z" fill="#fd3"/>
    <circle cx="64" cy="48.394" r="15.467" fill="#ea4a42"/>
    <path d="M64,56.914a5.431,5.431,0,0,1-5.431-5.431C58.537,46.3,64,39.875,64,39.875s5.463,6.426,5.431,11.608A5.431,5.431,0,0,1,64,56.914Z" fill="#ffefc2"/>
    <rect x="48.056" y="13.794" width="31.889" height="8.226" fill="#ea4a42"/>
    <path d="M79.944,13.794S75.1,6.306,64,6.306s-15.944,7.488-15.944,7.488Z" fill="#fd3"/>
    <rect x="30.415" y="74.768" width="67.171" height="8.248" fill="#9e5410"/>
    <rect x="59.876" y="83.016" width="8.248" height="38.678" fill="#9e5410"/>
    <rect x="89.338" y="83.016" width="8.248" height="38.678" fill="#9e5410"/>
    <rect x="30.415" y="83.016" width="8.248" height="38.678" fill="#9e5410"/>
    <g>
      <path d="M71.181,51.493c.036-5.764-5.608-12.469-5.848-12.752a1.81,1.81,0,0,0-2.666,0c-.241.283-5.883,6.988-5.848,12.741a7.181,7.181,0,0,0,14.362.011Zm-10.862-.021c-.017-2.8,2.062-6.412,3.682-8.717,1.62,2.3,3.7,5.9,3.68,8.727a3.681,3.681,0,1,1-7.362-.01Z" fill="#441d03"/>
      <path d="M81.217,48.4A17.217,17.217,0,1,0,64,65.611,17.236,17.236,0,0,0,81.217,48.4Zm-30.934,0A13.717,13.717,0,1,1,64,62.111,13.733,13.733,0,0,1,50.283,48.4Z" fill="#441d03"/>
      <path d="M97.585,73.019H92.124v-43a9.761,9.761,0,0,0-9.75-9.75h-.68V13.8c0-.04-.009-.077-.011-.117a1.693,1.693,0,0,0-.022-.212c-.011-.057-.03-.111-.046-.166s-.029-.108-.05-.161a1.965,1.965,0,0,0-.1-.194c-.019-.033-.031-.068-.052-.1l-.016-.023-.006-.01c-.355-.54-5.641-8.255-17.392-8.255s-17.027,7.7-17.39,8.253l-.009.014-.015.021c-.019.029-.029.061-.047.091a1.956,1.956,0,0,0-.1.2c-.02.05-.032.1-.048.153a1.721,1.721,0,0,0-.048.174,1.758,1.758,0,0,0-.021.205c0,.041-.012.081-.012.123v6.476h-.68a9.761,9.761,0,0,0-9.75,9.75v4.526a1.75,1.75,0,0,0,3.5,0V30.021a6.257,6.257,0,0,1,6.25-6.25H82.374a6.257,6.257,0,0,1,6.25,6.25v43H39.376V42.225a1.75,1.75,0,0,0-3.5,0V73.019H30.415a1.749,1.749,0,0,0-1.75,1.75v46.924a1.749,1.749,0,0,0,1.75,1.75h8.247a1.731,1.731,0,0,0,.416-.055c.036-.009.069-.021.1-.032a1.753,1.753,0,0,0,.3-.122c.033-.018.067-.035.1-.055a1.759,1.759,0,0,0,.328-.253.311.311,0,0,1,.023-.028,1.8,1.8,0,0,0,.236-.318c.01-.017.024-.028.033-.045l9.073-16.542,9.073,16.542c.009.017.023.028.033.044a1.726,1.726,0,0,0,.237.319c.008.009.014.019.022.028a1.793,1.793,0,0,0,.328.253c.033.02.066.037.1.055a1.778,1.778,0,0,0,.3.122c.034.011.067.023.1.032a1.731,1.731,0,0,0,.416.055h8.248a1.739,1.739,0,0,0,.417-.055c.035-.009.068-.021.1-.032a1.71,1.71,0,0,0,.3-.123c.034-.017.067-.034.1-.053a1.765,1.765,0,0,0,.328-.254c.008-.008.014-.019.022-.027a1.738,1.738,0,0,0,.238-.32c.009-.016.023-.027.032-.044l9.073-16.542L87.8,122.535c.009.017.023.028.032.044a1.751,1.751,0,0,0,.239.321c.007.008.013.018.021.026a1.808,1.808,0,0,0,.328.254c.032.019.065.036.1.053a1.71,1.71,0,0,0,.3.123c.034.011.067.023.1.032a1.739,1.739,0,0,0,.417.055h8.247a1.749,1.749,0,0,0,1.75-1.75V110.5a1.75,1.75,0,0,0-3.5,0v9.445H91.088V84.766h4.747v4.339a1.75,1.75,0,0,0,3.5,0V74.769A1.749,1.749,0,0,0,97.585,73.019Zm-21.7-60.974H52.133A18.49,18.49,0,0,1,64,8.057,18.425,18.425,0,0,1,75.882,12.045Zm-26.076,3.5H78.194v4.726H49.806ZM32.165,76.519h63.67v4.747H32.165Zm54.217,8.247-7.651,13.95L71.08,84.766Zm-29.462,0-7.651,13.95-7.651-13.95ZM32.165,119.943V84.766h4.747v35.177Zm8.247-5.079V89.845l6.861,12.509ZM58.126,89.845v25.019l-6.861-12.51Zm3.5,30.1V84.766h4.748v35.177Zm8.248-5.079V89.845l6.861,12.509ZM87.588,89.845v25.019l-6.861-12.51Z" fill="#441d03"/>
      <path d="M97.585,95.593a1.749,1.749,0,0,0-1.75,1.75v4.5a1.75,1.75,0,0,0,3.5,0v-4.5A1.749,1.749,0,0,0,97.585,95.593Z" fill="#441d03"/>
    </g>
  </g>
</svg>
