<svg xmlns="http://www.w3.org/2000/svg" width="128" height="128" viewBox="0 0 128 128">
  <title>WATERING CAN</title>
  <g>
    <polygon points="84.698 97.88 24.743 97.88 34.024 46.88 75.417 46.88 84.698 97.88" fill="#fd3"/>
    <path d="M53.254,39.213A20.7,20.7,0,1,0,30.317,67.248l-1.256,6.905a27.719,27.719,0,1,1,28.77-41.469Z" fill="#ea4a42"/>
    <path d="M24.743,97.88v3.956a7,7,0,0,0,7,7H77.7a7,7,0,0,0,7-7V97.88Z" fill="#ea4a42"/>
    <polygon points="82.512 85.864 105.669 64.939 110.289 69.56 84.698 97.881 82.512 85.864" fill="#fd3"/>
    <polygon points="105.669 64.939 106.829 53.535 121.694 68.4 110.289 69.56 105.669 64.939" fill="#ea4a42"/>
    <polygon points="75.417 46.88 57.829 32.685 47.873 46.88 75.417 46.88" fill="#ea4a42"/>
    <g>
      <path d="M70.949,64.789a1.75,1.75,0,0,0,1.409-2.035l-.621-3.418a1.75,1.75,0,0,0-3.443.626l.621,3.418a1.75,1.75,0,0,0,1.72,1.438A1.683,1.683,0,0,0,70.949,64.789Z" fill="#441d03"/>
      <path d="M71.535,68.005a1.751,1.751,0,0,0-1.408,2.036l2.127,11.683a1.751,1.751,0,0,0,1.72,1.437,1.784,1.784,0,0,0,.315-.029A1.75,1.75,0,0,0,75.7,81.1L73.57,69.414A1.749,1.749,0,0,0,71.535,68.005Z" fill="#441d03"/>
      <path d="M69.069,107.085h-4.5a1.75,1.75,0,0,0,0,3.5h4.5a1.75,1.75,0,0,0,0-3.5Z" fill="#441d03"/>
      <path d="M122.931,67.163,108.066,52.3a1.75,1.75,0,0,0-2.978,1.06L104,64.093,83.671,82.459,77.139,46.567c0-.017-.014-.03-.017-.046a1.755,1.755,0,0,0-.189-.507c-.012-.022-.027-.039-.04-.06a1.754,1.754,0,0,0-.332-.391c-.012-.01-.021-.023-.033-.032l-.012-.012L59.153,31.505A29.492,29.492,0,0,0,24.137,19.114a1.75,1.75,0,0,0,1.175,3.3A25.983,25.983,0,0,1,55.723,32.64l-2.2,3.131A22.447,22.447,0,1,0,28.3,68.582l-.63,3.462a25.959,25.959,0,0,1-9-46.108A1.75,1.75,0,0,0,16.6,23.114,29.469,29.469,0,0,0,27.036,75.507l-4.015,22.06c-.006.036,0,.071-.008.107a1.752,1.752,0,0,0-.02.206v3.955a8.76,8.76,0,0,0,8.75,8.75H55.914a1.75,1.75,0,0,0,0-3.5H31.743a5.256,5.256,0,0,1-5.25-5.25v-2.2H82.948v2.2a5.256,5.256,0,0,1-5.25,5.25h-.391a1.75,1.75,0,0,0,0,3.5H77.7a8.76,8.76,0,0,0,8.75-8.75v-3.28l24.688-27.322,10.734-1.092a1.75,1.75,0,0,0,1.061-2.978ZM54.682,40.22c.01-.013.02-.027.029-.041l3.476-4.956L70.463,45.13H51.238ZM15.074,46.88a18.944,18.944,0,0,1,36.179-7.866l-4.29,6.116H34.024A1.751,1.751,0,0,0,32.3,46.567L28.923,65.134A18.925,18.925,0,0,1,15.074,46.88ZM26.84,96.13l5.2-28.571h0L35.484,48.63H73.957L82.6,96.13Zm58.943-2.061-1.375-7.56,21.2-19.155,2.268,2.267Zm25.155-26.334-3.444-3.445.7-6.912,9.654,9.654Z" fill="#441d03"/>
    </g>
  </g>
</svg>
