<svg xmlns="http://www.w3.org/2000/svg" width="128" height="128" viewBox="0 0 128 128">
  <title>WATER HOSE</title>
  <g>
    <path d="M93.072,25.964H87.528V10.045H57.577A47.532,47.532,0,0,0,10.045,57.577v48.517h12.18V89.348l0-.01A47.529,47.529,0,0,0,93.072,25.964Zm-35.5,42.6a10.991,10.991,0,1,1,10.99-10.99A10.99,10.99,0,0,1,57.577,68.567Z" fill="#2eb74e"/>
    <polygon points="99.249 10.045 121.694 13.178 121.694 19.092 99.249 22.225 99.249 10.045" fill="#fd3"/>
    <rect x="87.528" y="6.306" width="11.721" height="19.657" fill="#f9922d"/>
    <rect x="8.335" y="104.065" width="15.6" height="19.657" transform="translate(130.029 97.759) rotate(90)" fill="#f9922d"/>
    <path d="M93.8,88.36a47.455,47.455,0,0,1-5.45,5.44L62.14,67.59a11.056,11.056,0,0,0,5.44-5.45Z" fill="#fd3"/>
    <g>
      <path d="M65.814,11.8h4.5a1.75,1.75,0,0,0,0-3.5h-4.5a1.75,1.75,0,0,0,0,3.5Z" fill="#441d03"/>
      <path d="M121.936,11.444,101,8.522V6.307a1.749,1.749,0,0,0-1.75-1.75H87.527a1.75,1.75,0,0,0-1.75,1.75V8.3H78.969a1.75,1.75,0,0,0,0,3.5h6.808v8.681h-28.2a37.1,37.1,0,1,0,21.976,67l6.172,6.171A45.769,45.769,0,1,1,57.577,11.8a1.75,1.75,0,0,0,0-3.5A49.338,49.338,0,0,0,8.3,57.577v33a1.75,1.75,0,0,0,3.5,0v-14.8a49.353,49.353,0,0,0,8.68,14.178v14.384H11.8V98.26a1.75,1.75,0,0,0-3.5,0v6.084H6.307a1.749,1.749,0,0,0-1.75,1.75v15.6a1.749,1.749,0,0,0,1.75,1.75H25.964a1.75,1.75,0,0,0,1.75-1.75v-15.6a1.75,1.75,0,0,0-1.75-1.75H23.975V93.58A49.157,49.157,0,0,0,89.25,95.294a1.79,1.79,0,0,0,.341-.26c.038-.038.067-.083.1-.124A49.693,49.693,0,0,0,94.9,89.7a1.6,1.6,0,0,0,.129-.105,1.723,1.723,0,0,0,.262-.346,49.194,49.194,0,0,0,1.473-61.534h2.481a1.749,1.749,0,0,0,1.75-1.75V23.749l20.937-2.924a1.75,1.75,0,0,0,1.507-1.733V13.178A1.751,1.751,0,0,0,121.936,11.444Zm-97.722,108.5H8.057v-12.1H24.214ZM57.577,91.178a33.6,33.6,0,1,1,33.6-33.6,33.191,33.191,0,0,1-6.219,19.468L78.7,70.784A24.952,24.952,0,1,0,70.781,78.7l6.262,6.261A33.188,33.188,0,0,1,57.577,91.178Zm0-24.361a9.241,9.241,0,1,1,9.24-9.24A9.251,9.251,0,0,1,57.577,66.817Zm0-21.981A12.741,12.741,0,1,0,61.7,69.619l6.532,6.532a21.444,21.444,0,1,1,7.917-7.916L69.618,61.7A12.711,12.711,0,0,0,57.577,44.836Zm7.389,23.1a12.84,12.84,0,0,0,2.968-2.967L91.381,88.417q-1.415,1.549-2.967,2.966Zm38.392-10.359a45.537,45.537,0,0,1-9.717,28.15L87.47,79.556a37.094,37.094,0,0,0-14.185-55.58H85.777v1.988a1.75,1.75,0,0,0,1.75,1.75h4.737A45.7,45.7,0,0,1,103.358,57.577ZM97.5,24.214H89.277V8.057H97.5Zm22.444-6.645L101,20.214V12.056L119.943,14.7Z" fill="#441d03"/>
    </g>
  </g>
</svg>
