<svg xmlns="http://www.w3.org/2000/svg" width="128" height="128" viewBox="0 0 128 128">
  <title>WHEELBARROW</title>
  <g>
    <rect x="53.613" y="-14.823" width="6.196" height="100.809" rx="3.098" transform="translate(92.292 -21.13) rotate(90)" fill="#fd3"/>
    <path d="M11.349,38.679,32.392,60.428a23.544,23.544,0,0,0,16.046,7.157l2.312.086,44.4-14.135,6.926-14.857Z" fill="#fd3"/>
    <circle cx="21.643" cy="80.18" r="15.337" fill="#9e5410"/>
    <circle cx="21.643" cy="80.18" r="7.911" fill="#fd3"/>
    <path d="M121.548,48.41l-.016-.05a3.071,3.071,0,0,0-3.859-1.995L21.625,76.943a3.072,3.072,0,0,0-2,3.858l.016.051a3.073,3.073,0,0,0,3.859,1.995l24.508-7.8,5.826,12.411a14.019,14.019,0,0,0,25.381,0L91.553,61.182l28-8.914A3.071,3.071,0,0,0,121.548,48.41ZM73.611,84.822a7.823,7.823,0,0,1-14.164,0l-5.48-11.673,29.539-9.405Z" fill="#ea4a42"/>
    <g>
      <path d="M78.908,34.233h4.5a1.75,1.75,0,1,0,0-3.5h-4.5a1.75,1.75,0,0,0,0,3.5Z" fill="#441d03"/>
      <path d="M82.976,62.077l-29.539,9.4a1.751,1.751,0,0,0-1.054,2.411l5.48,11.674a9.574,9.574,0,0,0,17.332,0l9.9-21.078a1.749,1.749,0,0,0-2.114-2.411Zm-10.949,22a6.074,6.074,0,0,1-11,0L56.4,74.211,80.22,66.627Z" fill="#441d03"/>
      <path d="M123.215,47.879l-.016-.05a4.826,4.826,0,0,0-6.056-3.132L98.419,50.658l4.768-10.229h.83a4.848,4.848,0,0,0,0-9.7H91.645a1.75,1.75,0,0,0,0,3.5h12.372a1.348,1.348,0,0,1,0,2.7H9.4a1.348,1.348,0,0,1,0-2.7H70.252a1.75,1.75,0,1,0,0-3.5H9.4a4.848,4.848,0,0,0,0,9.7h1.2L31.134,61.645A25.178,25.178,0,0,0,42.57,68.439L35.783,70.6A17.081,17.081,0,0,0,4.557,80.18a1.75,1.75,0,0,0,3.5,0,13.581,13.581,0,0,1,24.208-8.461l-4.131,1.315a9.659,9.659,0,1,0,2.934,9.241l4.122-1.312a13.578,13.578,0,0,1-25.544,5.6,1.75,1.75,0,1,0-3.087,1.648,17.088,17.088,0,0,0,32.17-8.032c0-.113-.015-.225-.017-.338l8.369-2.664L52.255,88.2a15.769,15.769,0,0,0,28.549,0L92.812,62.618l27.272-8.682a4.821,4.821,0,0,0,3.131-6.057ZM48.5,65.835a21.692,21.692,0,0,1-14.854-6.624L15.477,40.429H99.326L93.885,52.1,50.512,65.91ZM21.643,86.341A6.161,6.161,0,1,1,23.8,74.416l-2.7.859a4.848,4.848,0,0,0,2.941,9.239l2.678-.852A6.121,6.121,0,0,1,21.643,86.341ZM119.022,50.6l-28,8.914a1.752,1.752,0,0,0-1.053.924L77.636,86.711a12.269,12.269,0,0,1-22.213,0L49.6,74.3a1.747,1.747,0,0,0-2.115-.924L36.375,76.913l-.009,0-7.355,2.341-.044.014-5.993,1.908a1.313,1.313,0,0,1-1.008-.085,1.35,1.35,0,0,1-.668-.823,1.322,1.322,0,0,1,.858-1.661l13.4-4.265h0L118.2,48.032a1.324,1.324,0,0,1,1.66.857l.016.05v0A1.322,1.322,0,0,1,119.022,50.6Z" fill="#441d03"/>
      <path d="M30.687,44.782a1.75,1.75,0,1,0-2.516,2.434L30.7,49.832A1.75,1.75,0,1,0,33.218,47.4Z" fill="#441d03"/>
      <path d="M49.005,58.2c-4.152-.26-7.1-1.861-11.255-6.117a1.75,1.75,0,1,0-2.5,2.446c4.058,4.154,7.738,6.8,13.54,7.164.037,0,.074,0,.111,0a1.75,1.75,0,0,0,.108-3.5Z" fill="#441d03"/>
    </g>
  </g>
</svg>
