<svg xmlns="http://www.w3.org/2000/svg" width="128" height="128" viewBox="0 0 128 128">
  <title>WINDMILL</title>
  <g>
    <polygon points="53.4 27.201 45.579 29.116 32.506 16.043 42.242 6.306 55.315 19.379 53.4 27.201" fill="#fd3"/>
    <polygon points="74.6 27.201 72.685 19.379 85.758 6.306 95.494 16.043 82.421 29.116 74.6 27.201" fill="#fd3"/>
    <rect x="36.232" y="110.869" width="55.537" height="10.825" fill="#f9922d"/>
    <polygon points="43.362 110.869 48.323 48.401 79.677 48.401 84.638 110.869 43.362 110.869" fill="#ea4a42"/>
    <path d="M53.878,110.869V96.352A10.123,10.123,0,0,1,64,86.229h0A10.123,10.123,0,0,1,74.122,96.352v14.517Z" fill="#ffefc2"/>
    <rect x="59.746" y="66.475" width="8.508" height="8.508" fill="#ffefc2"/>
    <rect x="45.579" y="37.801" width="36.842" height="10.6" fill="#f9922d"/>
    <polygon points="74.6 48.401 72.685 56.222 85.758 69.295 95.494 59.558 82.421 46.485 74.6 48.401" fill="#fd3"/>
    <polygon points="53.4 48.401 45.579 46.485 32.506 59.558 42.242 69.295 55.315 56.222 53.4 48.401" fill="#fd3"/>
    <circle cx="64" cy="37.801" r="6.016" fill="#fd3"/>
    <g>
      <path d="M58.559,119.943h-4.5a1.75,1.75,0,1,0,0,3.5h4.5a1.75,1.75,0,1,0,0-3.5Z" fill="#441d03"/>
      <path d="M84.171,45.761V37.8a1.749,1.749,0,0,0-1.75-1.75H71.559A7.731,7.731,0,0,0,70.58,33.7l4.56-4.56,6.865,1.681a1.751,1.751,0,0,0,1.653-.462L96.731,17.28a1.748,1.748,0,0,0,0-2.474L87,5.069a1.75,1.75,0,0,0-2.474,0L81.44,8.149a1.75,1.75,0,0,0,2.475,2.475l1.843-1.843,7.262,7.262L81.88,27.182l-5.833-1.429-1.428-5.832,3.867-3.868a1.75,1.75,0,0,0-2.474-2.475l-4.565,4.565a1.751,1.751,0,0,0-.463,1.653l1.681,6.864-4.56,4.561a7.7,7.7,0,0,0-8.21,0L55.334,26.66,57.015,19.8a1.749,1.749,0,0,0-.463-1.653L43.479,5.069a1.8,1.8,0,0,0-2.474,0l-9.736,9.737a1.748,1.748,0,0,0,0,2.474L44.342,30.354A1.753,1.753,0,0,0,46,30.816l6.864-1.681,4.56,4.56a7.708,7.708,0,0,0-.98,2.356H45.579a1.75,1.75,0,0,0-1.75,1.75v7.96l-12.56,12.56a1.749,1.749,0,0,0,0,2.475l9.736,9.736a1.748,1.748,0,0,0,2.474,0l1.446-1.445-3.179,40.032H36.231a1.75,1.75,0,0,0-1.75,1.75v10.824a1.75,1.75,0,0,0,1.75,1.75h9.592a1.75,1.75,0,0,0,0-3.5H37.981v-7.324H90.019v7.324h-22.8a1.75,1.75,0,0,0,0,3.5H91.769a1.75,1.75,0,0,0,1.75-1.75V110.869a1.75,1.75,0,0,0-1.75-1.75H86.254L83.075,69.087l1.446,1.445a1.748,1.748,0,0,0,2.474,0L96.731,60.8a1.749,1.749,0,0,0,0-2.475Zm-3.5-.649L75.14,46.466l-4.56-4.56a7.715,7.715,0,0,0,.979-2.355h9.112ZM59.9,44.381a7.7,7.7,0,0,0,8.21,0l2.27,2.269H57.625Zm8.371-6.58A4.266,4.266,0,1,1,64,33.535,4.27,4.27,0,0,1,68.266,37.8ZM34.981,16.043l7.261-7.262,11.139,11.14-1.428,5.832L46.12,27.182ZM56.44,39.551a7.692,7.692,0,0,0,.98,2.355l-4.56,4.56-5.531-1.354V39.551ZM42.242,66.82l-7.261-7.261L46.12,48.42l5.833,1.428,1.428,5.833Zm30.13,29.532v12.767H65.75V88.167A8.384,8.384,0,0,1,72.372,96.352ZM62.25,109.119H55.627V96.352a8.385,8.385,0,0,1,6.623-8.185Zm20.493,0H75.872V96.352a11.873,11.873,0,1,0-23.745,0v12.767h-6.87l3.482-43.846,7.813-7.814a1.75,1.75,0,0,0,.463-1.653L55.63,50.15H72.369l-1.385,5.656a1.753,1.753,0,0,0,.463,1.653l7.815,7.815Zm3.015-42.3L74.619,55.681l1.428-5.833L81.88,48.42,93.02,59.559Z" fill="#441d03"/>
      <path d="M68.254,64.725H59.746A1.75,1.75,0,0,0,58,66.475v8.507a1.75,1.75,0,0,0,1.75,1.75h8.508A1.749,1.749,0,0,0,70,74.982V66.475A1.749,1.749,0,0,0,68.254,64.725ZM66.5,73.232H61.5V68.225H66.5Z" fill="#441d03"/>
    </g>
  </g>
</svg>
